<svg width="21" height="26" viewBox="0 0 21 26" fill="none" xmlns="http://www.w3.org/2000/svg">
<path d="M16.8604 21.0534C16.8604 18.9591 15.1611 17.2598 13.0668 17.2598H7.34761C5.25336 17.2598 3.554 18.9591 3.554 21.0534V25.2463C3.554 25.4903 3.75367 25.69 3.9977 25.69H16.4212C16.6652 25.69 16.8649 25.4903 16.8649 25.2463V21.0534H16.8604ZM15.9731 24.8026H13.7546V21.6967C13.7546 21.4527 13.5549 21.253 13.3109 21.253C13.0668 21.253 12.8672 21.4527 12.8672 21.6967V24.8026H7.54283V21.6967C7.54283 21.4527 7.34317 21.253 7.09914 21.253C6.8551 21.253 6.65544 21.4527 6.65544 21.6967V24.8026H4.43696V21.0534C4.43696 19.4472 5.73699 18.1472 7.34317 18.1472H13.0624C14.6686 18.1472 15.9686 19.4472 15.9686 21.0534V24.8026H15.9731ZM13.7546 13.6614C13.7546 11.7047 12.1617 10.1118 10.205 10.1118C8.24831 10.1118 6.65544 11.7047 6.65544 13.6614C6.65544 15.6181 8.24831 17.211 10.205 17.211C12.1617 17.211 13.7546 15.6181 13.7546 13.6614ZM10.205 16.3236C8.73637 16.3236 7.54283 15.13 7.54283 13.6614C7.54283 12.1928 8.73637 10.9992 10.205 10.9992C11.6736 10.9992 12.8672 12.1928 12.8672 13.6614C12.8672 15.13 11.6736 16.3236 10.205 16.3236ZM7.53396 5.91447L7.05477 8.70975C7.02814 8.87836 7.0947 9.04252 7.23224 9.14457C7.36979 9.24219 7.55171 9.2555 7.69813 9.18007L10.205 7.86229L12.7119 9.18007C12.7784 9.21557 12.8494 9.22888 12.9204 9.22888C13.0136 9.22888 13.1023 9.20226 13.1822 9.14457C13.3198 9.04696 13.3863 8.87836 13.3597 8.70975L12.8805 5.91447L14.9082 3.93558C15.028 3.81579 15.0724 3.64274 15.0191 3.47858C14.9659 3.31885 14.8283 3.19905 14.6597 3.17686L11.8556 2.76866L10.5999 0.226285C10.449 -0.0754283 9.9521 -0.0754283 9.80568 0.226285L8.55002 2.76866L5.74586 3.17686C5.57726 3.19905 5.43971 3.31885 5.38647 3.47858C5.33323 3.63831 5.37759 3.81579 5.49739 3.93558L7.52508 5.91447H7.53396ZM8.91385 3.61612C9.06027 3.59394 9.18451 3.5052 9.24662 3.37209L10.205 1.4287L11.1634 3.37209C11.2299 3.5052 11.3542 3.59394 11.4962 3.61612L13.6437 3.92671L12.0907 5.43971C11.9842 5.54176 11.9399 5.68818 11.962 5.8346L12.3303 7.97322L10.4091 6.96603C10.3426 6.93053 10.2716 6.91722 10.2006 6.91722C10.1296 6.91722 10.0586 6.93497 9.99203 6.96603L8.07083 7.97322L8.4391 5.8346C8.46572 5.69262 8.41691 5.54176 8.31043 5.43971L6.75749 3.92671L8.90498 3.61612H8.91385ZM20.4145 10.1606C20.4145 10.4047 20.2148 10.6043 19.9708 10.6043H16.4212C16.1772 10.6043 15.9775 10.4047 15.9775 10.1606C15.9775 9.91661 16.1772 9.71694 16.4212 9.71694H19.9708C20.2148 9.71694 20.4145 9.91661 20.4145 10.1606ZM15.8311 8.1152C15.7068 7.90223 15.7823 7.63157 15.9952 7.50734L19.0701 5.73255C19.283 5.60832 19.5537 5.68375 19.6779 5.89672C19.8022 6.10969 19.7267 6.38035 19.5138 6.50458L16.4389 8.27937C16.3679 8.3193 16.2925 8.33705 16.2171 8.33705C16.0618 8.33705 15.9154 8.25718 15.8311 8.1152ZM19.6735 14.3269C19.5892 14.4689 19.4428 14.5488 19.2875 14.5488C19.212 14.5488 19.1366 14.531 19.0656 14.4911L15.9908 12.7163C15.7778 12.5921 15.7068 12.3214 15.8266 12.1085C15.9509 11.8955 16.2215 11.8245 16.4345 11.9443L19.5093 13.7191C19.7223 13.8433 19.7933 14.114 19.6735 14.3269ZM3.99326 10.6043H0.443696C0.199663 10.6043 0 10.4047 0 10.1606C0 9.91661 0.199663 9.71694 0.443696 9.71694H3.99326C4.2373 9.71694 4.43696 9.91661 4.43696 10.1606C4.43696 10.4047 4.2373 10.6043 3.99326 10.6043ZM0.740972 5.89672C0.865207 5.68375 1.13586 5.61276 1.34884 5.73255L4.42365 7.50734C4.63662 7.63157 4.70761 7.90223 4.58782 8.1152C4.50351 8.25718 4.35709 8.33705 4.2018 8.33705C4.12637 8.33705 4.05094 8.3193 3.97995 8.27937L0.90514 6.50458C0.692166 6.38035 0.621174 6.10969 0.740972 5.89672ZM4.41921 12.7163L1.3444 14.4911C1.27341 14.531 1.19798 14.5488 1.12255 14.5488C0.967257 14.5488 0.820837 14.4689 0.736535 14.3269C0.6123 14.114 0.687729 13.8433 0.900703 13.7191L3.97552 11.9443C4.18849 11.8201 4.45914 11.8955 4.58338 12.1085C4.70761 12.3214 4.63219 12.5921 4.41921 12.7163Z" fill="#242424"/>
</svg>
