<svg width="16" height="16" viewBox="0 0 16 16" fill="none" xmlns="http://www.w3.org/2000/svg">
<g clip-path="url(#clip0_110_1327)">
<path d="M15.9873 2.57288C16.0002 2.71991 16.0002 2.98056 15.9873 3.1276C15.968 3.37488 15.8652 3.7291 15.7753 3.96302C15.6725 4.23036 15.5054 4.51106 15.319 4.71824L11.4636 0.73495C11.9263 0.186914 12.7937 -0.0470044 13.4749 0.00646257C14.76 0.106713 15.8652 1.2362 15.9873 2.57288Z" fill="#242424"/>
<path d="M7.4603 0.955738C12.0547 0.64162 15.6916 4.78531 14.8884 9.53051C14.6442 10.9875 13.9567 12.2774 12.9993 13.3467C12.98 13.447 14.1045 14.7168 14.143 14.9775C14.3615 15.7394 13.494 16.3141 12.9221 15.7928L11.7976 14.3359C9.54865 15.8998 6.45789 15.8998 4.20889 14.3359L3.18078 15.6926C2.55749 16.4278 1.48439 15.6592 1.94062 14.7903L3.00728 13.34C1.61291 11.8162 0.893228 9.83126 1.00889 7.71263C1.20166 4.18381 4.0611 1.18966 7.4603 0.955738ZM7.67877 2.35925C3.1101 2.63327 0.713309 8.18047 3.59845 11.9165C6.37435 15.5121 11.8876 14.5096 13.3398 10.1654C14.6571 6.21555 11.6756 2.11865 7.67877 2.35925Z" fill="#242424"/>
<path d="M4.56188 0.688317L0.674327 4.71839C-1.1313 2.49951 0.963483 -0.761975 3.64943 0.16033C3.98999 0.280631 4.26629 0.487816 4.56188 0.688317Z" fill="#242424"/>
<path d="M8.32738 4.85884C8.39806 4.93235 8.44947 5.08607 8.46232 5.18632V7.23143C10.0366 8.29409 8.10891 10.3593 7.06794 8.74856C6.19405 8.72851 5.32015 8.78198 4.44626 8.74856C4.22136 8.74188 3.87437 8.74188 3.66875 8.71514C3.22537 8.66168 3.18682 7.91982 3.64304 7.81289L7.01654 7.79952C7.12577 7.5255 7.33782 7.37847 7.54987 7.19802C7.6077 6.55641 7.49204 5.82124 7.54987 5.18632C7.58842 4.78532 8.0318 4.55808 8.32095 4.85884H8.32738Z" fill="#242424"/>
</g>
<defs>
<clipPath id="clip0_110_1327">
<rect width="16" height="16" fill="white"/>
</clipPath>
</defs>
</svg>
