<svg width="20" height="20" viewBox="0 0 20 20" fill="none" xmlns="http://www.w3.org/2000/svg">
<path d="M19.7921 7.48028C19.7585 7.37646 19.6731 7.29759 19.5671 7.27201L13.5218 5.81291L10.2676 0.516136C10.1533 0.330091 9.84659 0.330091 9.73228 0.516136L6.47804 5.81291L0.432804 7.27201C0.32669 7.29759 0.241421 7.37646 0.207737 7.48028C0.174053 7.58409 0.196601 7.69798 0.26742 7.78109L4.30026 12.5134L3.81939 18.7124C3.81092 18.8212 3.85961 18.9267 3.94796 18.9909C4.03631 19.055 4.15158 19.0687 4.2525 19.0271L10 16.6532L15.7475 19.0271C15.7861 19.043 15.8269 19.0509 15.8673 19.0509C15.9327 19.0509 15.9975 19.0304 16.052 18.9909C16.1403 18.9268 16.189 18.8213 16.1805 18.7125L15.6996 12.5135L19.7324 7.78118C19.8033 7.69798 19.8259 7.58414 19.7921 7.48028ZM15.1372 12.2046C15.0833 12.2678 15.0567 12.3498 15.0632 12.4327L15.5146 18.2511L10.1199 16.023C10.0431 15.9913 9.95685 15.9913 9.88004 16.023L4.4853 18.2512L4.93663 12.4327C4.94307 12.3499 4.91642 12.2678 4.86259 12.2046L1.07727 7.76277L6.75143 6.39318C6.83223 6.37372 6.9019 6.32305 6.94543 6.25228L9.99987 1.28061L13.0543 6.25228C13.0977 6.32305 13.1675 6.37367 13.2482 6.39318L18.9225 7.76277L15.1372 12.2046Z" fill="#242424"/>
<path d="M9.54368 8.66992C9.45574 8.52037 9.26321 8.47044 9.11361 8.55833C8.55184 8.88864 7.9926 8.88772 7.40391 8.55553C7.25265 8.4703 7.06109 8.52364 6.97591 8.67476C6.89064 8.82592 6.94402 9.01749 7.09514 9.10276C7.48913 9.32511 7.8823 9.43624 8.27192 9.43624C8.6632 9.43624 9.05075 9.3241 9.43214 9.10004C9.5816 9.01192 9.63162 8.81943 9.54368 8.66992Z" fill="#242424"/>
<path d="M13.0215 8.66993C12.9335 8.52037 12.7411 8.47031 12.5914 8.55834C12.0296 8.8886 11.4704 8.88772 10.8817 8.55553C10.7304 8.47031 10.539 8.52364 10.4537 8.67476C10.3684 8.82592 10.4218 9.01749 10.5729 9.10276C10.9669 9.32502 11.3601 9.43624 11.7497 9.43624C12.1409 9.43624 12.5285 9.3241 12.9099 9.10004C13.0594 9.01201 13.1094 8.81943 13.0215 8.66993Z" fill="#242424"/>
<path d="M13.3603 11.8283C13.2572 11.6888 13.0606 11.6592 12.921 11.7623C10.9884 13.1902 9.07587 13.1894 7.07438 11.7593C6.93316 11.6585 6.73699 11.6912 6.63617 11.8323C6.53535 11.9735 6.56802 12.1696 6.7092 12.2706C7.81856 13.0631 8.92678 13.4594 10.0262 13.4594C11.127 13.4594 12.219 13.0621 13.2943 12.2676C13.4339 12.1645 13.4634 11.9679 13.3603 11.8283Z" fill="#242424"/>
<path d="M3.4995 3.27629L1.63624 2.40718C1.4791 2.33373 1.29209 2.40184 1.21874 2.55908C1.14539 2.71632 1.2134 2.90324 1.37064 2.97659L3.23394 3.84575C3.27683 3.86576 3.32206 3.87529 3.36651 3.87529C3.48468 3.87529 3.59802 3.80815 3.65135 3.69389C3.72475 3.53656 3.65674 3.34964 3.4995 3.27629Z" fill="#242424"/>
<path d="M5.01754 2.13928L4.31473 0.206957C4.25541 0.0439209 4.07526 -0.0401974 3.91217 0.0191179C3.74914 0.0784332 3.66502 0.258634 3.72433 0.42167L4.42714 2.35395C4.47362 2.48155 4.59405 2.56079 4.72243 2.56079C4.758 2.56079 4.79431 2.55477 4.8297 2.54188C4.99273 2.48257 5.07685 2.30232 5.01754 2.13928Z" fill="#242424"/>
<path d="M18.5504 2.55903C18.477 2.40179 18.29 2.33373 18.1329 2.40713L16.2696 3.27629C16.1123 3.34964 16.0443 3.53656 16.1177 3.69379C16.1709 3.80805 16.2842 3.87519 16.4025 3.87519C16.447 3.87519 16.4922 3.86576 16.5352 3.84565L18.3985 2.97649C18.5557 2.90318 18.6237 2.71627 18.5504 2.55903Z" fill="#242424"/>
<path d="M15.8576 0.0190111C15.6946 -0.0403042 15.5143 0.043814 15.4551 0.206851L14.7522 2.13922C14.6929 2.30226 14.777 2.48251 14.94 2.54178C14.9754 2.55466 15.0117 2.56078 15.0474 2.56078C15.1757 2.56078 15.2962 2.48154 15.3426 2.35394L16.0455 0.421564C16.1048 0.258527 16.0207 0.0782804 15.8576 0.0190111Z" fill="#242424"/>
<path d="M2.09456 12.6281C2.05531 12.4591 1.88638 12.3543 1.71746 12.3932L0.243131 12.7357C0.0741127 12.7749 -0.0310351 12.9438 0.00821704 13.1128C0.0419011 13.2578 0.171162 13.3559 0.313951 13.3559C0.337511 13.3559 0.361394 13.3533 0.385323 13.3477L1.85965 13.0052C2.02867 12.966 2.13381 12.7971 2.09456 12.6281Z" fill="#242424"/>
<path d="M2.70021 14.1995C2.55296 14.1078 2.35923 14.1528 2.26747 14.3001L1.46697 15.5848C1.37525 15.732 1.42026 15.9257 1.56751 16.0175C1.61919 16.0497 1.67662 16.065 1.73331 16.065C1.83823 16.065 1.94071 16.0125 2.00025 15.917L2.80075 14.6323C2.89247 14.485 2.84746 14.2912 2.70021 14.1995Z" fill="#242424"/>
<path d="M19.7572 12.7358L18.2827 12.3933C18.1136 12.3544 17.9449 12.4592 17.9057 12.6282C17.8664 12.7972 17.9716 12.966 18.1406 13.0053L19.615 13.3478C19.639 13.3533 19.6628 13.3559 19.6864 13.3559C19.8292 13.3559 19.9584 13.2579 19.992 13.1129C20.0313 12.9439 19.9262 12.775 19.7572 12.7358Z" fill="#242424"/>
<path d="M18.5328 15.5847L17.7324 14.3C17.6407 14.1528 17.4469 14.1078 17.2997 14.1995C17.1524 14.2912 17.1074 14.4849 17.1991 14.6322L17.9996 15.9169C18.0591 16.0125 18.1617 16.065 18.2665 16.065C18.3232 16.065 18.3806 16.0497 18.4323 16.0174C18.5795 15.9258 18.6246 15.732 18.5328 15.5847Z" fill="#242424"/>
</svg>
