<svg width="27" height="24" viewBox="0 0 27 24" fill="none" xmlns="http://www.w3.org/2000/svg">
<path d="M7.6051 22H19.3951C22.5001 22 23.7376 20.31 23.8839 18.25L24.4689 9.99C24.6264 7.83 22.6914 6 20.2501 6C19.5639 6 18.9339 5.65 18.6189 5.11L17.8089 3.66C17.2914 2.75 15.9414 2 14.7939 2H12.2176C11.0589 2 9.70885 2.75 9.19135 3.66L8.38135 5.11C8.06635 5.65 7.43635 6 6.7501 6C4.30885 6 2.37385 7.83 2.53135 9.99L3.11635 18.25C3.25135 20.31 4.5001 22 7.6051 22Z" stroke="#054023" stroke-width="1.5" stroke-linecap="round" stroke-linejoin="round"/>
<path d="M11.8125 8H15.1875" stroke="#054023" stroke-width="1.5" stroke-linecap="round" stroke-linejoin="round"/>
</svg>
