<svg width="26" height="26" viewBox="0 0 26 26" fill="none" xmlns="http://www.w3.org/2000/svg">
<path d="M23.1737 19.9997V15.7775C23.1737 14.8533 22.9097 13.9713 22.4234 13.2113V11.8068C22.9791 12.3788 23.4167 13.0723 23.686 13.8214C23.7453 13.9868 23.9017 14.09 24.0683 14.09C24.1138 14.09 24.1605 14.0823 24.2056 14.066C24.4168 13.9896 24.5265 13.7573 24.4506 13.546C24.1321 12.6604 23.6117 11.8402 22.9454 11.1735C22.7805 11.0086 22.6058 10.853 22.423 10.7067V5.29506C22.423 3.83134 21.2318 2.64062 19.7681 2.64062H17.7629V1.625C17.7629 1.40034 17.5809 1.21875 17.3566 1.21875C17.1324 1.21875 16.9504 1.40034 16.9504 1.625V2.64062H12.3025V1.625C12.3025 1.40034 12.1205 1.21875 11.8962 1.21875C11.672 1.21875 11.49 1.40034 11.49 1.625V2.64062H6.84125V1.625C6.84125 1.40034 6.65925 1.21875 6.435 1.21875C6.21075 1.21875 6.02875 1.40034 6.02875 1.625V2.64062H4.0235C2.55978 2.64062 1.36865 3.83175 1.36865 5.29506V22.1264C1.36906 23.5901 2.55978 24.7812 4.0235 24.7812H18.3958C19.3643 24.7812 20.1748 24.0923 20.3633 23.1786H23.0348C23.9147 23.1786 24.6305 22.462 24.6305 21.5816C24.6309 20.7492 23.9878 20.0712 23.1737 19.9997ZM18.3966 11.8125C19.4557 11.8125 20.4518 12.2249 21.2002 12.9736C21.9489 13.7223 22.3612 14.718 22.3612 15.7771V19.9851H14.4308V15.7775C14.4308 14.7184 14.8432 13.7227 15.5919 12.974C16.341 12.2249 17.3367 11.8125 18.3966 11.8125ZM20.2987 10.4337C20.7642 10.6015 21.2042 10.8392 21.6113 11.1231V12.2513C20.8301 11.5375 19.8526 11.1081 18.8025 11.0199V9.94906C18.8025 9.72441 18.6205 9.54281 18.3962 9.54281C18.172 9.54281 17.99 9.72441 17.99 9.94906V11.0199C16.8667 11.1138 15.823 11.5936 15.0178 12.3996C14.1156 13.3018 13.6187 14.5015 13.6187 15.7775V19.9997C12.8046 20.0712 12.1615 20.7496 12.1615 21.5824C12.1615 22.4624 12.8773 23.1786 13.7572 23.1786H16.4287C16.4893 23.4715 16.6189 23.7372 16.7919 23.9688H9.23243V19.2847C9.23243 18.6111 8.97 17.9774 8.49346 17.5004C8.01693 17.0239 7.38318 16.7615 6.70921 16.7615H2.18156V9.14062H21.6113V10.1619C21.279 9.96978 20.9341 9.79875 20.5741 9.66956C20.3621 9.59278 20.1305 9.70328 20.0541 9.91412C19.9782 10.125 20.0874 10.3577 20.2987 10.4337ZM8.41993 23.2379L2.756 17.574H6.70921C7.16625 17.574 7.59606 17.7519 7.91903 18.0749C8.2424 18.3983 8.42034 18.8281 8.42034 19.2847L8.41993 23.2379ZM4.0235 3.45312H6.02875V4.46875C6.02875 4.69341 6.21075 4.875 6.435 4.875C6.65925 4.875 6.84125 4.69341 6.84125 4.46875V3.45312H11.49V4.46875C11.49 4.69341 11.672 4.875 11.8962 4.875C12.1205 4.875 12.3025 4.69341 12.3025 4.46875V3.45312H16.9512V4.46875C16.9512 4.69341 17.1332 4.875 17.3574 4.875C17.5817 4.875 17.7637 4.69341 17.7637 4.46875V3.45312H19.7689C20.7846 3.45312 21.6113 4.27944 21.6113 5.29506V8.32812H2.18156V5.29506C2.18156 4.27944 3.00787 3.45312 4.0235 3.45312ZM2.18156 22.1264V18.1484L8.0019 23.9688H4.0235C3.00787 23.9688 2.18156 23.1424 2.18156 22.1264ZM18.3962 23.9688C17.8791 23.9688 17.4371 23.6389 17.2705 23.1786H19.5219C19.3554 23.6389 18.9134 23.9688 18.3962 23.9688ZM23.0356 22.3661H13.7572C13.3254 22.3661 12.974 22.0143 12.974 21.5816C12.974 21.1498 13.3254 20.798 13.7572 20.798H23.0356C23.4674 20.798 23.8188 21.1498 23.8188 21.5824C23.8184 22.0143 23.4674 22.3661 23.0356 22.3661Z" fill="black"/>
<path d="M16.2183 9.72319C15.3319 10.0421 14.5117 10.5621 13.8462 11.2279C13.1804 11.8938 12.6604 12.714 12.3415 13.6004C12.2655 13.8121 12.3752 14.0445 12.5864 14.1204C12.6319 14.1367 12.6783 14.1444 12.7238 14.1444C12.8903 14.1444 13.0463 14.0412 13.106 13.8759C13.3847 13.1012 13.8393 12.3841 14.4207 11.8024C15.002 11.2206 15.719 10.766 16.4938 10.4873C16.705 10.4114 16.8143 10.1786 16.7383 9.96775C16.6623 9.75691 16.4296 9.646 16.2183 9.72319Z" fill="black"/>
</svg>
