<svg width="20" height="26" viewBox="0 0 20 26" fill="none" xmlns="http://www.w3.org/2000/svg">
<path d="M18.901 1.51907C17.2371 -0.46479 14.2952 -0.469428 12.414 1.29414C11.7014 1.93649 11.2521 3.22234 11.0693 4.21254C10.9442 4.89431 10.6641 5.54709 10.26 6.10248L8.52643 8.08403C8.12007 8.54898 8.09404 9.24003 8.44946 9.73512C7.51506 11.4639 8.35042 13.8403 8.8694 15.6867C8.20383 15.1261 7.35999 14.8849 6.58633 14.5603C5.48894 14.0971 4.60548 13.4686 3.95972 12.6918C3.26586 11.8709 2.82837 10.7526 2.84648 9.75078C2.84818 9.55888 2.69764 9.40119 2.51031 9.39946C1.6925 9.39076 2.5154 11.7572 2.80121 12.1938C0.982221 11.9764 0.419094 9.87542 0.799983 8.1936C1.18483 6.56743 2.6501 5.012 4.30496 4.32964C3.35924 5.8532 3.48998 7.75416 4.46116 9.20408C4.76168 9.74266 5.10069 10.2766 5.11767 10.9676C5.0905 12.1399 4.20874 11.85 4.42211 12.4547C4.50247 12.6286 4.70509 12.7022 4.87431 12.6199C5.438 12.3463 5.79965 11.6964 5.79682 10.9647C5.69212 8.88813 3.83012 8.17389 4.44758 5.73145C4.62585 5.03693 5.0175 4.37081 5.55063 3.85542C5.80814 3.62294 5.55572 3.16089 5.22633 3.26756C4.16007 3.57135 3.24718 4.01137 2.512 4.57603C1.30255 5.50709 0.460975 6.73092 0.141209 8.02258C-0.427578 10.2807 0.74452 13.0825 3.24945 12.8959C4.08706 14.042 5.41763 14.8942 6.87044 15.4195C8.04989 15.8612 8.91581 16.2786 9.19256 17.5187C9.295 18.4451 9.31254 19.375 9.28708 20.3159C8.67245 19.1698 7.14832 17.812 5.90378 18.7031C5.50479 19.0133 5.33273 19.5472 5.48554 20.0011C5.67684 20.64 6.53256 20.84 6.84101 20.2174C6.94175 20.0162 6.93609 19.7884 6.82516 19.6092C6.62198 19.2718 6.10244 19.5147 6.2111 19.8892C6.02037 19.7368 6.12111 19.4069 6.31354 19.2579C6.48332 19.1269 6.73687 19.0811 6.99325 19.1356C8.24855 19.5095 9.06239 20.9762 9.18577 22.2638C9.15408 22.7236 9.11786 23.1914 9.0839 23.6546C8.80205 23.7717 8.55133 23.9549 8.35495 24.188C7.97349 23.7764 7.40244 23.5254 6.84724 23.5538C6.81328 22.6563 6.19582 22.1699 5.46856 21.8215C5.21728 21.6748 5.06956 21.5276 5.01693 21.371C4.97052 21.2342 4.84658 21.1409 4.70509 21.1368C4.5636 21.1334 4.43456 21.2192 4.38136 21.3537C3.95463 22.3949 4.32193 23.9909 5.4895 24.2924C5.36782 24.4495 5.27048 24.6257 5.2037 24.8141C3.55167 24.577 2.62689 26.9238 3.48771 26.9997C3.67391 27.0073 3.83295 26.8571 3.83974 26.6652C3.85672 26.1945 4.16799 25.7469 4.59642 25.5759C5.02429 25.4043 5.5495 25.5185 5.87266 25.8524C6.00453 25.9892 6.21959 25.9898 6.35316 25.8547C6.67745 25.486 6.15167 25.1521 5.85964 25.0043C6.27109 24.0031 7.60335 24.0292 8.05782 24.959C8.11271 25.0837 8.23383 25.1631 8.36683 25.1631C8.50266 25.1631 8.62491 25.0802 8.67867 24.9527C8.99448 24.1625 10.076 23.977 10.6646 24.5306C10.8248 24.7434 11.0568 24.904 11.2855 24.6802C12.0738 23.8216 13.5878 24.5109 13.5255 25.6205C13.4927 25.9092 13.8464 26.1087 14.0677 25.9266C14.615 25.5034 15.4237 25.9365 15.3972 26.6386C15.3864 27.0936 16.0531 27.1215 16.0757 26.6635C16.1306 25.6513 15.1051 24.8182 14.1566 25.1231C14.0479 24.6814 13.7712 24.2767 13.3778 23.9886C13.3371 23.6286 13.3008 23.2598 13.3399 22.9097C13.3874 22.2592 13.8696 21.5954 14.4888 21.8035C14.6625 21.876 14.8606 21.7902 14.9314 21.6122C15.2217 20.68 12.3534 20.6713 12.6619 23.6471C12.2091 23.537 11.7247 23.5984 11.3109 23.8112C11.3404 22.6824 11.3641 21.5421 11.3392 20.4006C12.3048 20.3849 13.3405 20.2811 14.0943 19.3437C14.5635 18.7216 14.6359 17.9662 14.7837 17.2416C15.0729 15.8322 15.7305 14.7197 16.6349 14.1075C16.7622 14.0211 16.8177 13.8582 16.7707 13.7098C16.7238 13.5608 16.5857 13.4623 16.4323 13.4698C13.8759 13.5591 11.8893 15.9076 11.2436 18.4724C11.1293 17.0723 10.9046 15.6798 10.4897 14.3168C10.1932 13.3399 9.7738 12.2651 9.87454 11.301C10.4286 11.6309 11.0144 11.4714 11.4909 11.072L13.3574 9.75368C13.9687 9.38554 14.6654 9.16408 15.3756 9.12002C19.309 9.16176 21.4353 4.41661 18.8993 1.51965L18.901 1.51907ZM5.13125 23.2019C4.96656 22.9213 4.8845 22.5908 4.88733 22.2627C5.42838 22.6471 6.18054 22.8158 6.17092 23.6343C5.68533 23.7086 5.34349 23.5659 5.13125 23.2019ZM13.0762 16.1389C13.6851 15.3024 14.4729 14.6988 15.3309 14.3916C13.2658 16.8671 14.9789 19.5263 11.6607 19.6979C11.9278 18.2451 12.3925 17.0775 13.0762 16.1383V16.1389ZM11.3602 10.3201L9.43819 8.08403L9.7506 7.72691L11.745 10.0482L11.3596 10.3201H11.3602ZM10.6363 23.6941C10.3714 23.5735 10.0743 23.5103 9.77719 23.5132C10.0296 20.4232 10.2068 17.4109 9.23444 14.4548C8.85355 13.0808 8.41777 11.8106 8.93901 10.312L9.29274 10.7236C8.99108 11.8396 9.34877 12.9648 9.6957 14.0548C10.7382 17.143 10.7229 20.4655 10.6363 23.6935V23.6941ZM10.0687 10.5746L9.02843 9.36467C8.84506 9.15075 8.83148 8.83885 8.98486 8.60985L10.7931 10.7137C10.552 10.8413 10.252 10.7879 10.0687 10.574V10.5746ZM12.3082 9.65106L10.2068 7.20573L10.5124 6.85672L12.6856 9.38496L12.3082 9.65164V9.65106ZM17.846 7.61792C16.6207 8.66145 14.6246 8.17679 13.2692 9.01103L10.9482 6.31061C11.3364 5.7187 11.6075 5.0433 11.7365 4.34182C11.891 3.50642 12.2787 2.34346 12.8628 1.81706C13.7197 1.04427 14.7593 0.643669 15.7905 0.690628C19.2077 0.851795 20.5762 5.3181 17.846 7.61792Z" fill="black"/>
</svg>
