<svg width="26" height="26" viewBox="0 0 26 26" fill="none" xmlns="http://www.w3.org/2000/svg">
<path d="M24.6785 17.0564C24.8009 17.0238 24.9011 16.9361 24.9497 16.8191C24.9981 16.7021 24.9893 16.5692 24.9257 16.4597C24.8443 16.3194 22.89 13.0321 18.8428 13.1972C17.3408 13.2593 16.0274 14.0119 15.2393 15.2619C14.6459 16.2036 14.4385 17.2903 14.6694 18.1226C14.1706 18.6228 13.7392 19.1736 13.3779 19.7714V14.2147C16.902 14.017 19.7107 11.0959 19.7107 7.52316C19.7107 3.82288 16.7003 0.8125 13 0.8125C9.29971 0.8125 6.28933 3.82288 6.28933 7.52316C6.28933 11.0768 9.06782 13.9861 12.5654 14.2118V19.6786C12.2158 19.1163 11.8033 18.5966 11.3306 18.1227C11.5615 17.2903 11.354 16.2035 10.7607 15.2619C9.97256 14.0119 8.65919 13.2593 7.15717 13.1972C3.1159 13.0333 1.15566 16.3196 1.07433 16.4597C1.01066 16.5692 1.00193 16.7021 1.05033 16.8191C1.09893 16.9361 1.1991 17.0238 1.3215 17.0564C2.06596 17.2535 2.75448 17.8343 3.48327 18.4493C4.56217 19.3596 5.78509 20.3913 7.58723 20.5785C7.76278 20.5968 7.9298 20.6053 8.08949 20.6053C9.79745 20.6053 10.6286 19.6251 10.9997 18.9509C11.6781 19.6937 12.203 20.5497 12.5654 21.504V24.7812C12.5654 25.0056 12.7473 25.1875 12.9716 25.1875C13.196 25.1875 13.3779 25.0056 13.3779 24.7812V21.6453C13.379 21.6424 13.3812 21.6403 13.3822 21.6374C13.7454 20.629 14.2898 19.7289 15.0002 18.9509C15.3713 19.6252 16.2023 20.6053 17.9105 20.6053C18.07 20.6053 18.2374 20.5968 18.4128 20.5785C20.2149 20.3913 21.4378 19.3596 22.5167 18.4493C23.2455 17.8343 23.934 17.2535 24.6785 17.0564ZM7.67133 19.7704C6.11794 19.6089 5.04479 18.7038 4.00715 17.8282C3.36485 17.2865 2.75111 16.7685 2.05802 16.4591C2.68267 15.639 4.35171 13.9012 7.12345 14.0089C8.80915 14.0787 9.69505 15.0953 10.0733 15.6952C10.4322 16.2648 10.6197 16.9212 10.6083 17.4694C8.86876 16.0617 6.64668 15.3518 4.40388 15.5123C4.18012 15.5284 4.01171 15.7227 4.02758 15.9465C4.04365 16.1705 4.23646 16.3363 4.4618 16.3228C6.62749 16.1657 8.7725 16.9129 10.3933 18.3613C10.1832 18.8554 9.50352 19.963 7.67133 19.7704ZM7.10183 7.52316C7.10183 4.27098 9.74781 1.625 13 1.625C16.2522 1.625 18.8982 4.27098 18.8982 7.52316C18.8982 10.7753 16.2522 13.4213 13 13.4213C9.74781 13.4213 7.10183 10.7753 7.10183 7.52316ZM18.3287 19.7704C16.4962 19.9614 15.8168 18.8548 15.6067 18.3611C17.2265 16.9134 19.3714 16.1671 21.5382 16.3228C21.7651 16.3355 21.9565 16.1705 21.9724 15.9465C21.9883 15.7227 21.8199 15.5284 21.5961 15.5123C19.3516 15.3534 17.1302 16.0623 15.3917 17.4693C15.3804 16.9211 15.5678 16.2647 15.9267 15.6952C16.3049 15.0953 17.1908 14.0787 18.8765 14.0089C21.6548 13.8968 23.3173 15.639 23.942 16.4591C23.2489 16.7685 22.6351 17.2865 21.9928 17.8282C20.9552 18.7038 19.882 19.6089 18.3287 19.7704Z" fill="#242424"/>
<path d="M15.7999 5.64862C15.6412 5.48993 15.3841 5.48993 15.2254 5.64862L12.338 8.53601L10.7745 6.9727C10.6158 6.81401 10.3588 6.81401 10.2001 6.9727C10.0414 7.13139 10.0414 7.38847 10.2001 7.54716L12.0508 9.39771C12.1302 9.47705 12.2341 9.51672 12.338 9.51672C12.442 9.51672 12.5459 9.47705 12.6253 9.39771L15.7999 6.22308C15.9586 6.06439 15.9586 5.80731 15.7999 5.64862Z" fill="#242424"/>
</svg>
