<svg width="9" height="9" viewBox="0 0 9 9" fill="none" xmlns="http://www.w3.org/2000/svg">
<g clip-path="url(#clip0_99_278)">
<path d="M8.67112 1.3955C8.67809 1.47525 8.67809 1.61662 8.67112 1.69637C8.66066 1.83049 8.6049 2.02261 8.55611 2.14948C8.50035 2.29447 8.40974 2.44672 8.30867 2.55909L6.21759 0.398659C6.46852 0.101418 6.93901 -0.0254525 7.30843 0.0035465C8.00546 0.0579197 8.6049 0.670525 8.67112 1.3955Z" fill="#359767"/>
<path d="M4.04626 0.518375C6.53813 0.348005 8.51071 2.59543 8.07507 5.1691C7.94263 5.95932 7.56972 6.65892 7.05044 7.2389C7.03998 7.29328 7.64988 7.98201 7.67079 8.12338C7.78929 8.53661 7.3188 8.84835 7.00862 8.56561L6.39872 7.77539C5.17893 8.62361 3.50258 8.62361 2.28279 7.77539L1.72517 8.51124C1.38711 8.90997 0.805092 8.49311 1.05254 8.02188L1.63107 7.23528C0.874795 6.40881 0.484461 5.33222 0.547193 4.18313C0.651747 2.26919 2.20263 0.645246 4.04626 0.518375ZM4.16476 1.2796C1.68683 1.42822 0.386877 4.43687 1.9517 6.46318C3.45727 8.41337 6.44751 7.86963 7.23515 5.51346C7.9496 3.37116 6.3325 1.1491 4.16476 1.2796Z" fill="#359767"/>
<path d="M2.47423 0.373325L0.365727 2.55913C-0.613593 1.35567 0.522558 -0.413275 1.97934 0.0869589C2.16405 0.152207 2.31391 0.264578 2.47423 0.373325Z" fill="#359767"/>
<path d="M4.51657 2.63547C4.55491 2.67534 4.58279 2.75871 4.58976 2.81309V3.9223C5.44362 4.49866 4.39808 5.61874 3.83349 4.74515C3.35951 4.73427 2.88553 4.76327 2.41156 4.74515C2.28958 4.74152 2.10138 4.74152 1.98986 4.72702C1.74938 4.69802 1.72847 4.29566 1.97591 4.23766L3.80561 4.23041C3.86485 4.08179 3.97986 4.00205 4.09487 3.90417C4.12624 3.55619 4.06351 3.15745 4.09487 2.81309C4.11578 2.59559 4.35626 2.47235 4.51309 2.63547H4.51657Z" fill="#359767"/>
</g>
<defs>
<clipPath id="clip0_99_278">
<rect width="8.67797" height="8.67797" fill="white"/>
</clipPath>
</defs>
</svg>
