<svg width="26" height="26" viewBox="0 0 26 26" fill="none" xmlns="http://www.w3.org/2000/svg">
<g clip-path="url(#clip0_314_836)">
<path d="M20.7684 4.06907C20.651 2.96484 20.1336 1.94175 19.3137 1.19283C18.4938 0.443912 17.4282 0.0209406 16.3179 0.003721C15.2075 -0.0134985 14.1293 0.376224 13.2866 1.09936C12.4439 1.8225 11.895 2.82905 11.7434 3.9291C11.0871 3.60761 10.3629 3.44932 9.63235 3.46769C8.90179 3.48607 8.18647 3.68056 7.54719 4.03464C6.9079 4.38872 6.36356 4.89192 5.96043 5.50146C5.5573 6.111 5.3073 6.80887 5.23168 7.53573C2.94932 8.13547 1.30005 10.3177 1.30005 13.0001C1.30005 16.1118 3.91998 19.819 6.79645 20.778C6.86955 20.8024 6.94785 20.8069 7.02327 20.791C7.09868 20.7751 7.16849 20.7393 7.2255 20.6875C7.2825 20.6356 7.32463 20.5694 7.34755 20.4958C7.37047 20.4222 7.37335 20.3439 7.35588 20.2688C7.15568 19.4065 6.89612 16.9456 8.08172 15.929C9.96585 14.3144 10.8368 11.6125 10.1088 9.64563C9.92707 9.14468 9.62807 8.69448 9.23683 8.33264C8.84559 7.9708 8.37345 7.70781 7.85985 7.56563C7.97027 7.10157 8.24725 6.69421 8.6382 6.42089C9.02915 6.14757 9.50685 6.02732 9.98061 6.08297C10.4544 6.13862 10.8912 6.3663 11.2082 6.72278C11.5251 7.07926 11.7002 7.53972 11.7 8.01673V20.8001H9.53338C9.1886 20.8001 8.85794 20.937 8.61414 21.1808C8.37035 21.4246 8.23338 21.7553 8.23338 22.1001V22.5334H6.93338C6.47367 22.5334 6.03279 22.716 5.70773 23.0411C5.38267 23.3661 5.20005 23.807 5.20005 24.2667V25.1334C5.20005 25.3633 5.29136 25.5837 5.45389 25.7462C5.61642 25.9088 5.83686 26.0001 6.06672 26.0001H19.9334C20.1632 26.0001 20.3837 25.9088 20.5462 25.7462C20.7087 25.5837 20.8001 25.3633 20.8001 25.1334V24.2667C20.8001 23.807 20.6174 23.3661 20.2924 23.0411C19.9673 22.716 19.5264 22.5334 19.0667 22.5334H17.7667V22.1001C17.7667 21.7553 17.6298 21.4246 17.386 21.1808C17.1422 20.937 16.8115 20.8001 16.4667 20.8001H14.3V4.55007C14.2994 4.07286 14.474 3.61204 14.7908 3.25515C15.1076 2.89827 15.5445 2.67019 16.0184 2.61425C16.4923 2.55832 16.9703 2.67842 17.3615 2.95174C17.7526 3.22506 18.0298 3.63255 18.1402 4.0968C17.6266 4.23897 17.1545 4.50196 16.7633 4.86381C16.372 5.22565 16.073 5.67584 15.8913 6.1768C15.1632 8.14543 16.0342 10.8473 17.9184 12.4601C19.3427 13.6813 18.6516 16.7692 18.6442 16.8004C18.6268 16.8754 18.6298 16.9538 18.6528 17.0273C18.6757 17.1008 18.7179 17.1669 18.7748 17.2187C18.8318 17.2705 18.9016 17.3062 18.977 17.3221C19.0523 17.338 19.1306 17.3335 19.2037 17.3091C22.0801 16.3523 24.7001 12.6452 24.7001 9.5334C24.7001 6.85107 23.0508 4.6688 20.7684 4.06907ZM9.29592 9.94463C9.90258 11.5913 9.14035 13.8806 7.51925 15.2712C6.21015 16.3931 6.24395 18.5047 6.38002 19.6613C4.13102 18.4982 2.16672 15.4831 2.16672 13.0001C2.16672 10.2826 4.03005 8.2334 6.50005 8.2334C7.91532 8.2334 8.88338 8.82533 9.29592 9.94463ZM16.9001 22.1001V22.5334H16.0334C15.9185 22.5334 15.8082 22.5791 15.727 22.6603C15.6457 22.7416 15.6 22.8518 15.6 22.9667C15.6 23.0817 15.6457 23.1919 15.727 23.2731C15.8082 23.3544 15.9185 23.4001 16.0334 23.4001H19.0667C19.2966 23.4001 19.517 23.4914 19.6795 23.6539C19.8421 23.8164 19.9334 24.0369 19.9334 24.2667V25.1334H6.06672V24.2667C6.06672 24.0369 6.15803 23.8164 6.32056 23.6539C6.48309 23.4914 6.70353 23.4001 6.93338 23.4001H9.96672C10.0816 23.4001 10.1919 23.3544 10.2731 23.2731C10.3544 23.1919 10.4 23.0817 10.4 22.9667C10.4 22.8518 10.3544 22.7416 10.2731 22.6603C10.1919 22.5791 10.0816 22.5334 9.96672 22.5334H9.10005V22.1001C9.10005 21.9851 9.1457 21.8749 9.22697 21.7937C9.30824 21.7124 9.41846 21.6667 9.53338 21.6667H16.4667C16.5816 21.6667 16.6919 21.7124 16.7731 21.7937C16.8544 21.8749 16.9001 21.9851 16.9001 22.1001ZM16.25 1.7334C15.5033 1.73432 14.7874 2.03137 14.2594 2.5594C13.7313 3.08742 13.4343 3.80332 13.4334 4.55007V20.8001H12.5667V8.01673C12.5678 7.32382 12.3131 6.65489 11.8514 6.13815C11.3898 5.62142 10.7537 5.29324 10.065 5.21652C9.37634 5.1398 8.6836 5.31994 8.11954 5.7224C7.55549 6.12486 7.15981 6.72134 7.00835 7.3975C6.83954 7.37877 6.66989 7.3685 6.50005 7.36673C6.37352 7.36673 6.24958 7.37757 6.12565 7.38667C6.23039 6.77337 6.48928 6.19674 6.87801 5.71095C7.26674 5.22516 7.77256 4.84613 8.34797 4.60946C8.92338 4.37279 9.5495 4.28624 10.1675 4.35794C10.7856 4.42964 11.3752 4.65724 11.8812 5.01937C11.946 5.06572 12.0222 5.09333 12.1017 5.09916C12.1811 5.10498 12.2606 5.08881 12.3315 5.0524C12.4023 5.016 12.4617 4.96077 12.5032 4.89279C12.5447 4.82482 12.5667 4.74671 12.5667 4.66707V4.55007C12.5659 3.62801 12.9111 2.73922 13.5341 2.05952C14.1572 1.37981 15.0126 0.958699 15.9313 0.879494C16.8499 0.80029 17.7648 1.06876 18.495 1.63179C19.2252 2.19482 19.7175 3.01141 19.8744 3.92C19.7505 3.9109 19.6266 3.90007 19.5 3.90007C19.3302 3.90184 19.1606 3.9121 18.9918 3.93083C18.8523 3.30759 18.5049 2.75039 18.0065 2.35097C17.5082 1.95156 16.8887 1.73375 16.25 1.7334ZM19.621 16.1946C19.757 15.038 19.7908 12.9264 18.4817 11.8045C16.8598 10.4139 16.0953 8.1242 16.705 6.47797C17.1167 5.35867 18.0848 4.76673 19.5 4.76673C21.9701 4.76673 23.8334 6.81597 23.8334 9.5334C23.8334 12.0164 21.8691 15.0315 19.621 16.1946Z" fill="black"/>
<path d="M6.03112 9.633C6.04542 9.6954 6.36262 11.1722 4.87455 12.6971C3.62482 13.9776 4.32119 16.0836 4.35109 16.1729C4.36941 16.2268 4.39818 16.2766 4.43574 16.3194C4.4733 16.3622 4.51893 16.3972 4.57001 16.4223C4.62109 16.4475 4.67663 16.4624 4.73346 16.4661C4.79029 16.4698 4.84729 16.4622 4.9012 16.4439C4.95512 16.4256 5.0049 16.3968 5.04771 16.3593C5.09051 16.3217 5.12549 16.2761 5.15066 16.225C5.17583 16.1739 5.19069 16.1184 5.1944 16.0615C5.1981 16.0047 5.19058 15.9477 5.17225 15.8938C5.16619 15.8773 4.61282 14.2068 5.49509 13.3025C7.33242 11.4192 6.89345 9.5108 6.87395 9.43063C6.86073 9.37559 6.83679 9.3237 6.80348 9.27794C6.77017 9.23217 6.72816 9.19342 6.67986 9.16392C6.63156 9.13441 6.5779 9.11473 6.52198 9.10599C6.46606 9.09725 6.40896 9.09963 6.35395 9.113C6.24226 9.13927 6.14555 9.20877 6.08503 9.30625C6.02451 9.40374 6.00512 9.52124 6.03112 9.633Z" fill="black"/>
<path d="M19.9685 6.16681C19.9927 6.0561 19.9725 5.94033 19.9123 5.84431C19.8521 5.7483 19.7567 5.67967 19.6466 5.65315C19.5364 5.62663 19.4202 5.64432 19.3229 5.70242C19.2257 5.76053 19.155 5.85444 19.1261 5.96401C19.1066 6.04418 18.6677 7.95258 20.505 9.83628C21.3821 10.7341 20.8335 12.4116 20.8278 12.4272C20.8095 12.4812 20.802 12.5384 20.8058 12.5953C20.8095 12.6523 20.8245 12.708 20.8497 12.7591C20.875 12.8103 20.9101 12.856 20.953 12.8936C20.996 12.9313 21.0459 12.9601 21.1 12.9784C21.154 12.9967 21.2112 13.0042 21.2681 13.0004C21.3251 12.9967 21.3807 12.9817 21.4319 12.9565C21.4831 12.9312 21.5288 12.8961 21.5664 12.8532C21.604 12.8102 21.6328 12.7603 21.6512 12.7062C21.6811 12.617 22.3774 10.511 21.1277 9.23091C19.6414 7.70991 19.9529 6.23658 19.9685 6.16681Z" fill="black"/>
</g>
<defs>
<clipPath id="clip0_314_836">
<rect width="26" height="26" fill="white"/>
</clipPath>
</defs>
</svg>
