<svg width="14" height="16" viewBox="0 0 14 16" fill="none" xmlns="http://www.w3.org/2000/svg">
<path d="M13.125 3.31094C10.794 3.07994 8.44903 2.96094 6.11103 2.96094C4.72503 2.96094 3.33903 3.03094 1.95302 3.17094L0.525024 3.31094" stroke="#FD5668" stroke-width="1.05" stroke-linecap="round" stroke-linejoin="round"/>
<path d="M4.37512 2.6039L4.52912 1.6869C4.64112 1.0219 4.72512 0.524902 5.90812 0.524902H7.74212C8.92512 0.524902 9.01612 1.0499 9.12112 1.6939L9.27512 2.6039" stroke="#FD5668" stroke-width="1.05" stroke-linecap="round" stroke-linejoin="round"/>
<path d="M11.62 5.52295L11.165 12.572C11.088 13.671 11.025 14.525 9.07203 14.525H4.57803C2.62503 14.525 2.56203 13.671 2.48503 12.572L2.03003 5.52295" stroke="#FD5668" stroke-width="1.05" stroke-linecap="round" stroke-linejoin="round"/>
<path d="M5.65613 10.6748H7.98713" stroke="#FD5668" stroke-width="1.05" stroke-linecap="round" stroke-linejoin="round"/>
<path d="M5.07507 7.875H8.57507" stroke="#FD5668" stroke-width="1.05" stroke-linecap="round" stroke-linejoin="round"/>
</svg>
