<svg width="26" height="26" viewBox="0 0 26 26" fill="none" xmlns="http://www.w3.org/2000/svg">
<g clip-path="url(#clip0_46_164)">
<path d="M4.27974 25.6191H24.7778C25.2425 25.6191 25.6191 25.2425 25.6191 24.7778V22.6746C25.6191 22.4423 25.4308 22.254 25.1985 22.254H8.98879C8.88291 22.254 8.79562 22.175 8.78033 22.0701C8.69131 21.4604 8.16618 20.9921 7.53172 20.9921C7.51766 20.9921 7.50374 20.9927 7.48978 20.9932C7.29529 20.0326 6.44643 19.3096 5.42857 19.3096C4.62536 19.3096 3.92752 19.7599 3.57327 20.4218C3.52452 20.5129 3.43149 20.5716 3.32815 20.5715H3.32536C2.62844 20.5715 2.06345 21.1365 2.06345 21.8334C2.06345 21.8961 2.06807 21.9577 2.07695 22.0179C2.09539 22.1429 1.99469 22.254 1.86824 22.254H0.80148C0.569156 22.254 0.380859 22.4424 0.380859 22.6746V24.7778C0.380859 25.2424 0.757504 25.6191 1.22215 25.6191H2.5024" stroke="#242424" stroke-width="0.761719" stroke-miterlimit="10" stroke-linecap="round" stroke-linejoin="round"/>
<path d="M7.53173 20.9921C7.15798 20.9921 6.82221 21.1545 6.59116 21.4127" stroke="#242424" stroke-width="0.761719" stroke-miterlimit="10" stroke-linecap="round" stroke-linejoin="round"/>
<path d="M1.86819 22.254H3.74598" stroke="#242424" stroke-width="0.761719" stroke-miterlimit="10" stroke-linecap="round" stroke-linejoin="round"/>
<path d="M13 16.3651V22.254" stroke="#242424" stroke-width="0.761719" stroke-miterlimit="10" stroke-linecap="round" stroke-linejoin="round"/>
<path d="M10.5196 16.0755C9.76513 15.2641 8.79622 14.6858 7.75734 14.6825C7.57214 14.6819 7.40812 14.7997 7.35078 14.9759C6.88796 16.3976 7.01776 18.0699 7.47565 19.4564C7.66096 20.0176 7.86718 20.5711 8.08579 21.1199" stroke="#242424" stroke-width="0.761719" stroke-miterlimit="10" stroke-linecap="round" stroke-linejoin="round"/>
<path d="M14.8698 22.2541C15.1738 20.8425 15.7046 17.9505 15.4623 15.9039C15.1965 13.6599 13.778 12.5686 13.2229 12.2227C13.0861 12.1374 12.9139 12.1374 12.7771 12.2227C12.2221 12.5686 10.8035 13.6599 10.5378 15.9039C10.2954 17.9505 10.8262 20.8425 11.1303 22.2541" stroke="#242424" stroke-width="0.761719" stroke-miterlimit="10" stroke-linecap="round" stroke-linejoin="round"/>
<path d="M16.8746 22.2541C17.456 20.9175 18.0364 19.5793 18.491 18.1946C18.9461 16.8082 19.0752 15.1362 18.6153 13.7146C18.5595 13.5422 18.4013 13.4207 18.2201 13.4207C17.0991 13.4206 16.0596 14.0988 15.2848 15.0182" stroke="#242424" stroke-width="0.761719" stroke-miterlimit="10" stroke-linecap="round" stroke-linejoin="round"/>
<path d="M19.7208 6.29353C19.7208 6.29353 19.5195 8.00892 20.2011 9.66266C20.7213 10.9248 21.6775 11.5572 22.1794 11.8147C22.3701 11.9126 22.6012 11.8507 22.7174 11.6706C23.0233 11.1965 23.5353 10.1708 23.3547 8.81761C23.1181 7.04464 22.086 5.65973 22.086 5.65973" stroke="#242424" stroke-width="0.761719" stroke-miterlimit="10" stroke-linecap="round" stroke-linejoin="round"/>
<path d="M20.8767 10.7761C20.4899 11.1296 19.94 11.4757 19.1591 11.7276C18.9675 11.7894 18.7589 11.7027 18.6605 11.5229C18.3188 10.8987 17.7317 8.7784 19.0086 7.01324C19.929 5.74097 21.6295 5.28531 23.0627 5.92698C25.0511 6.81723 25.6029 8.94689 25.619 9.65834C25.6237 9.86329 25.4863 10.0427 25.2896 10.0849C24.4873 10.2573 23.838 10.2324 23.3263 10.1197" stroke="#242424" stroke-width="0.761719" stroke-miterlimit="10" stroke-linecap="round" stroke-linejoin="round"/>
<path d="M22.4119 5.71388L21.7649 4.73401C21.4361 4.23605 20.8987 3.9957 20.4079 4.12722C19.9171 4.25875 19.5718 4.73553 19.5361 5.33119L19.4657 6.50328" stroke="#242424" stroke-width="0.761719" stroke-miterlimit="10" stroke-linecap="round" stroke-linejoin="round"/>
<path d="M14.1525 3.21112C14.0827 3.39657 14.0156 3.59107 13.9513 3.79455C13.4748 5.30407 13.1205 7.36909 12.8984 9.93227C12.831 10.711 12.7799 11.4904 12.7414 12.2453" stroke="#242424" stroke-width="0.761719" stroke-miterlimit="10" stroke-linecap="round" stroke-linejoin="round"/>
<path d="M21.2293 4.23512C21.2052 4.17266 21.1807 4.11009 21.1554 4.04753C19.8769 0.883047 18.1625 0.310488 16.9486 0.38732C16.1869 0.435613 15.5255 0.848617 14.97 1.61993" stroke="#242424" stroke-width="0.761719" stroke-miterlimit="10" stroke-linecap="round" stroke-linejoin="round"/>
<path d="M14.3798 13.2611C14.4194 12.2462 14.4809 11.1612 14.5747 10.0775C15.0796 4.24859 16.2264 2.11902 17.055 2.06646C18.2181 1.99354 19.081 3.35412 19.652 4.82277" stroke="#242424" stroke-width="0.761719" stroke-miterlimit="10" stroke-linecap="round" stroke-linejoin="round"/>
<path d="M6.27917 7.97622C6.27917 7.97622 6.48051 9.69161 5.79893 11.3454C5.27872 12.6075 4.32251 13.2398 3.82059 13.4975C3.62991 13.5953 3.3988 13.5334 3.28256 13.3533C2.97666 12.8792 2.46473 11.8536 2.64531 10.5004C2.8819 8.72737 3.91398 7.34247 3.91398 7.34247" stroke="#242424" stroke-width="0.761719" stroke-miterlimit="10" stroke-linecap="round" stroke-linejoin="round"/>
<path d="M5.12333 12.4588C5.51014 12.8122 6.05999 13.1583 6.84091 13.4102C7.03246 13.472 7.24106 13.3854 7.33953 13.2055C7.68124 12.5813 8.26827 10.461 6.99137 8.69586C6.07101 7.42359 4.3705 6.96793 2.9373 7.6096C0.948913 8.49984 0.397123 10.6295 0.380975 11.341C0.376303 11.5459 0.513666 11.7253 0.710444 11.7676C1.51274 11.9399 2.16198 11.915 2.6737 11.8024" stroke="#242424" stroke-width="0.761719" stroke-miterlimit="10" stroke-linecap="round" stroke-linejoin="round"/>
<path d="M3.58817 7.39636L4.23512 6.41648C4.56393 5.91852 5.10135 5.67823 5.5921 5.8097C6.0829 5.94122 6.42816 6.41801 6.46391 7.01367L6.53424 8.18575" stroke="#242424" stroke-width="0.761719" stroke-miterlimit="10" stroke-linecap="round" stroke-linejoin="round"/>
<path d="M13.1482 12.1867C13.1335 11.9963 13.118 11.8055 13.1015 11.6148C12.8795 9.05164 12.5253 6.98662 12.0486 5.47709C11.3609 3.29873 10.3524 2.15234 9.05143 2.06982C7.83755 1.99294 6.12313 2.56555 4.84466 5.73003C4.81937 5.7926 4.79484 5.85516 4.77072 5.91762" stroke="#242424" stroke-width="0.761719" stroke-miterlimit="10" stroke-linecap="round" stroke-linejoin="round"/>
<path d="M6.34796 6.5052C6.919 5.03661 7.78197 3.67598 8.94497 3.7489C9.77356 3.80146 10.9203 5.93107 11.4253 11.7599C11.4717 12.296 11.5102 12.8324 11.5421 13.3606" stroke="#242424" stroke-width="0.761719" stroke-miterlimit="10" stroke-linecap="round" stroke-linejoin="round"/>
</g>
<defs>
<clipPath id="clip0_46_164">
<rect width="26" height="26" fill="white"/>
</clipPath>
</defs>
</svg>
