<svg width="27" height="27" viewBox="0 0 27 27" fill="none" xmlns="http://www.w3.org/2000/svg">
<path fill-rule="evenodd" clip-rule="evenodd" d="M0.878998 15.293C3.379 17.793 8.55099 22.965 11.051 25.465C11.613 26.027 12.376 26.344 13.172 26.344C13.968 26.344 14.731 26.027 15.293 25.465C17.793 22.965 22.965 17.793 25.465 15.293C26.027 14.731 26.344 13.968 26.344 13.172C26.344 12.376 26.027 11.613 25.465 11.051C22.965 8.551 17.793 3.379 15.293 0.879002C14.731 0.317002 13.968 0 13.172 0C12.376 0 11.613 0.317002 11.051 0.879002C8.55099 3.379 3.379 8.551 0.878998 11.051C0.316998 11.613 0 12.376 0 13.172C0 13.968 0.316998 14.731 0.878998 15.293Z" fill="#FCD22E"/>
<path fill-rule="evenodd" clip-rule="evenodd" d="M12.172 6.17188V16.1719C12.172 16.7239 12.62 17.1719 13.172 17.1719C13.724 17.1719 14.172 16.7239 14.172 16.1719V6.17188C14.172 5.61988 13.724 5.17188 13.172 5.17188C12.62 5.17188 12.172 5.61988 12.172 6.17188Z" fill="#242424"/>
<path d="M13.172 20.1719C13.7243 20.1719 14.172 19.7242 14.172 19.1719C14.172 18.6196 13.7243 18.1719 13.172 18.1719C12.6197 18.1719 12.172 18.6196 12.172 19.1719C12.172 19.7242 12.6197 20.1719 13.172 20.1719Z" fill="#242424"/>
</svg>
