<svg width="26" height="26" viewBox="0 0 26 26" fill="none" xmlns="http://www.w3.org/2000/svg">
<path d="M10.3206 14.7298H13.5295C13.7677 14.7298 13.9612 14.9233 13.9612 15.1614C13.9611 15.4 13.7675 15.5925 13.5305 15.5921H10.3206C10.0825 15.5921 9.88902 15.3995 9.88892 15.1614C9.88892 14.9233 10.0824 14.7298 10.3206 14.7298Z" stroke="#242424" stroke-width="0.6"/>
<path d="M10.3222 11.1085H16.8232C17.0611 11.1087 17.2538 11.3021 17.2538 11.5401C17.2537 11.778 17.061 11.9706 16.8232 11.9708H10.3222C10.0841 11.9708 9.89064 11.7782 9.89053 11.5401C9.89053 11.302 10.084 11.1085 10.3222 11.1085Z" stroke="#242424" stroke-width="0.6"/>
<path d="M6.5083 11.1085H7.19775C7.43588 11.1085 7.62939 11.302 7.62939 11.5401C7.62929 11.7782 7.43582 11.9708 7.19775 11.9708H6.5083C6.27024 11.9708 6.07677 11.7782 6.07666 11.5401C6.07666 11.302 6.27017 11.1085 6.5083 11.1085Z" stroke="#242424" stroke-width="0.6"/>
<path d="M10.3206 18.3609H12.9934C13.2315 18.3609 13.425 18.5544 13.425 18.7925C13.4249 19.0305 13.2315 19.2232 12.9934 19.2232H10.3206C10.0825 19.2232 9.88902 19.0305 9.88892 18.7925C9.88892 18.5544 10.0824 18.3609 10.3206 18.3609Z" stroke="#242424" stroke-width="0.6"/>
<path d="M6.5083 18.3593H7.19775C7.43588 18.3593 7.62939 18.5528 7.62939 18.7909C7.62929 19.0289 7.43582 19.2216 7.19775 19.2216H6.5083C6.27024 19.2216 6.07677 19.0289 6.07666 18.7909C6.07666 18.5528 6.27017 18.3593 6.5083 18.3593Z" stroke="#242424" stroke-width="0.6"/>
<path d="M6.5083 14.7339H7.19775C7.43588 14.7339 7.62939 14.9274 7.62939 15.1655C7.62929 15.4036 7.43582 15.5962 7.19775 15.5962H6.5083C6.27024 15.5962 6.07677 15.4036 6.07666 15.1655C6.07666 14.9274 6.27017 14.7339 6.5083 14.7339Z" stroke="#242424" stroke-width="0.6"/>
<path d="M11.6562 1.19275C12.4993 1.20492 13.341 1.31125 14.1777 1.50916C14.9173 1.68449 15.4969 2.24925 15.6904 2.98279L15.8906 3.74158L15.9502 3.96423H18.1455C20.1614 3.96423 21.8027 5.60558 21.8027 7.62146V11.4232C21.8026 11.6612 21.6091 11.8539 21.3711 11.8539C21.1331 11.8538 20.9405 11.6612 20.9404 11.4232V7.62048C20.9404 6.07924 19.6867 4.82654 18.1455 4.82654H16.2011L16.247 5.16541C16.2908 5.49427 16.2106 5.81849 16.0097 6.07947C15.7734 6.38655 15.4171 6.56273 15.0293 6.56287H8.3027C7.96391 6.56281 7.64872 6.42871 7.41696 6.18982L7.32224 6.08044C7.12166 5.82052 7.04173 5.49576 7.08493 5.16541L7.12985 4.82654H5.18552C3.64427 4.82654 2.39059 6.08021 2.39059 7.62146V20.9711C2.39083 22.5121 3.64441 23.765 5.18552 23.765H13.8955C14.133 23.7651 14.3259 23.9583 14.3261 24.1967C14.3261 24.4347 14.1336 24.6282 13.8955 24.6283H5.18552C3.16983 24.6283 1.52853 22.9876 1.52829 20.9711V7.62146C1.52829 5.60554 3.16887 3.96423 5.18552 3.96423H7.38278L7.44138 3.74158L7.64255 2.98279C7.82476 2.29424 8.34529 1.75529 9.01852 1.54626L9.15524 1.50916C9.9931 1.31118 10.8336 1.20491 11.6562 1.19275ZM11.6513 2.05603C11.0014 2.06559 10.3233 2.14261 9.6445 2.28455L9.35349 2.34998C8.9254 2.45185 8.58954 2.77834 8.47653 3.20349L8.47556 3.20447L7.93942 5.22986L7.93845 5.23376C7.92916 5.27093 7.89737 5.41532 8.00681 5.55603L8.09665 5.67126H8.24216L15.0273 5.70056L15.1767 5.70154L15.2666 5.58337L15.3388 5.48865L15.4287 5.37244L15.3916 5.22986L14.8554 3.20447C14.7434 2.77862 14.4063 2.44995 13.9775 2.349H13.9765C13.2013 2.16573 12.4218 2.06691 11.6601 2.05603H11.6513Z" stroke="#242424" stroke-width="0.6"/>
<path d="M19.5721 12.6295C19.8102 12.6295 20.0037 12.823 20.0037 13.0611V13.606L20.2547 13.648C22.2261 13.9748 23.735 15.688 23.7351 17.7496V19.443C23.7351 19.6047 23.7726 19.7632 23.8435 19.9068L23.9256 20.0455L24.2576 20.5191L24.2586 20.5201C24.4826 20.8377 24.5325 21.245 24.3924 21.609V21.61C24.2518 21.9749 23.9402 22.2464 23.5574 22.3346C22.9927 22.4644 22.4189 22.5608 21.8406 22.6353L21.5955 22.6666L21.5799 22.9127C21.5104 23.9682 20.6387 24.806 19.5711 24.8062C18.5024 24.8062 17.6315 23.9694 17.5613 22.9137L17.5447 22.6676L17.2996 22.6363L16.868 22.5758C16.4367 22.5111 16.0095 22.4323 15.5877 22.3355C15.2526 22.2584 14.9711 22.0406 14.8113 21.7418L14.7508 21.609C14.6114 21.245 14.6607 20.8358 14.8846 20.5162L15.2185 20.0435C15.3422 19.8675 15.408 19.6593 15.408 19.443V17.7496C15.4081 15.6881 16.9179 13.9755 18.8904 13.648L19.1414 13.606V13.0611C19.1414 12.8231 19.334 12.6296 19.5721 12.6295ZM20.3631 22.7643C20.0955 22.7764 19.8329 22.7867 19.5721 22.7867C19.3105 22.7867 19.0484 22.7764 18.781 22.7643L18.3357 22.7447L18.4842 23.1646C18.6419 23.6106 19.0601 23.9438 19.5721 23.9439C20.0834 23.9439 20.5031 23.6093 20.6599 23.1637L20.8074 22.7447L20.3631 22.7643ZM19.5721 14.4488C17.7517 14.449 16.2715 15.9281 16.2713 17.7486V19.442C16.2713 19.8376 16.1506 20.2163 15.9236 20.5396L15.5916 21.0123L15.5877 21.0191C15.5696 21.0463 15.5563 21.0759 15.5476 21.106C15.5434 21.1208 15.5397 21.1351 15.5379 21.149C15.5369 21.156 15.5364 21.1629 15.5359 21.1695V21.4254L15.7654 21.481C18.2644 22.0797 20.8771 22.0659 23.366 21.4937L23.7879 21.3971L23.5486 21.0357L23.2244 20.5465L23.2195 20.5396L23.1394 20.4166C22.9645 20.1227 22.8728 19.7884 22.8728 19.442V17.7486C22.8726 15.9281 21.3927 14.4488 19.5721 14.4488Z" stroke="#242424" stroke-width="0.6"/>
</svg>
