<svg width="115" height="23" viewBox="0 0 115 23" fill="none" xmlns="http://www.w3.org/2000/svg">
<path d="M109.32 19.2182C108.258 19.2182 107.327 18.9855 106.527 18.52C105.741 18.04 105.138 17.4 104.716 16.6C104.294 15.7855 104.083 14.8764 104.083 13.8727C104.083 12.8691 104.294 11.9673 104.716 11.1673C105.138 10.3527 105.741 9.71273 106.527 9.24728C107.327 8.76728 108.258 8.52728 109.32 8.52728C110.381 8.52728 111.305 8.76728 112.091 9.24728C112.891 9.71273 113.501 10.3527 113.923 11.1673C114.345 11.9673 114.556 12.8691 114.556 13.8727C114.556 14.8764 114.345 15.7855 113.923 16.6C113.501 17.4 112.891 18.04 112.091 18.52C111.305 18.9855 110.381 19.2182 109.32 19.2182ZM109.32 18.2364C110.061 18.2364 110.629 17.8364 111.021 17.0364C111.414 16.2364 111.611 15.1818 111.611 13.8727C111.611 12.5636 111.414 11.5091 111.021 10.7091C110.629 9.90909 110.061 9.50909 109.32 9.50909C108.578 9.50909 108.011 9.90909 107.618 10.7091C107.225 11.5091 107.029 12.5636 107.029 13.8727C107.029 15.1818 107.225 16.2364 107.618 17.0364C108.011 17.8364 108.578 18.2364 109.32 18.2364Z" fill="#359767"/>
<path d="M98.0223 19.2182C97.0187 19.2182 96.1387 18.9855 95.3823 18.52C94.626 18.0545 94.0369 17.4218 93.6151 16.6218C93.2078 15.8073 93.0042 14.8909 93.0042 13.8727C93.0042 12.7382 93.2078 11.7709 93.6151 10.9709C94.0369 10.1709 94.6114 9.56727 95.3387 9.16C96.066 8.73818 96.8878 8.52728 97.8041 8.52728C98.706 8.52728 99.5205 8.70909 100.248 9.07273C100.975 9.43637 101.55 9.95273 101.971 10.6218C102.393 11.2764 102.604 12.0327 102.604 12.8909C102.604 13.1673 102.59 13.48 102.561 13.8291L102.517 14.2655H95.9496C95.9496 15.6473 96.1605 16.6582 96.5823 17.2982C97.0042 17.9236 97.5932 18.2364 98.3496 18.2364C99.0478 18.2364 99.6296 18.0836 100.095 17.7782C100.575 17.4582 101.033 17.0073 101.47 16.4255L102.146 16.9273C101.724 17.5818 101.193 18.1273 100.553 18.5636C99.9278 19 99.0841 19.2182 98.0223 19.2182ZM99.6587 13.2836C99.6587 11.9164 99.4987 10.9491 99.1787 10.3818C98.8587 9.8 98.4005 9.50909 97.8041 9.50909C97.2514 9.50909 96.8005 9.80728 96.4514 10.4036C96.1169 10.9855 95.9496 11.9455 95.9496 13.2836H99.6587Z" fill="#359767"/>
<path d="M89.4149 19.2182C88.4112 19.2182 87.633 18.9491 87.0803 18.4109C86.5276 17.8582 86.2512 17.0655 86.2512 16.0327V9.72727H84.9421V8.74546H86.2512V6.78182L87.3421 5.47273H89.0876V8.74546H91.4876V9.72727H89.0876V16.1636C89.0876 16.9491 89.1821 17.4945 89.3712 17.8C89.5603 18.0909 89.844 18.2364 90.2221 18.2364C90.6294 18.2364 91.0367 18.1418 91.444 17.9527C91.604 17.8655 91.7712 17.7636 91.9458 17.6473L92.2512 18.2582C92.0621 18.4182 91.8367 18.5782 91.5749 18.7382C90.964 19.0582 90.244 19.2182 89.4149 19.2182Z" fill="#359767"/>
<path d="M73.6797 11.5818C73.6797 10.84 73.5779 10.2945 73.3742 9.94546C73.1851 9.58182 72.7851 9.4 72.1742 9.4H71.9561V8.74546H74.1161C74.6106 8.74546 74.9961 8.81091 75.2724 8.94182C75.5633 9.05818 75.7888 9.26182 75.9488 9.55273C76.6906 8.86909 77.7524 8.52728 79.1342 8.52728C80.5161 8.52728 81.5488 8.85455 82.2324 9.50909C82.9306 10.1491 83.2797 11.16 83.2797 12.5418V19H80.4433V12.52C80.4433 11.5164 80.2542 10.7818 79.8761 10.3164C79.5124 9.85091 79.0106 9.61818 78.3706 9.61818C77.9197 9.61818 77.5197 9.68364 77.1706 9.81455C76.8361 9.93091 76.567 10.0909 76.3633 10.2945L76.4288 10.6C76.487 10.7745 76.5161 11.0582 76.5161 11.4509V19H73.6797V11.5818Z" fill="#359767"/>
<path d="M65.452 19.2182C64.2738 19.2182 63.3575 18.9564 62.7029 18.4327C62.0629 17.8945 61.7429 17.1745 61.7429 16.2727C61.7429 15.5455 61.9102 14.9418 62.2447 14.4618C62.5938 13.9818 63.1975 13.6182 64.0556 13.3709C64.9138 13.1236 66.1066 13 67.6338 13H67.9611C67.9611 11.7345 67.7866 10.84 67.4375 10.3164C67.0884 9.77818 66.572 9.50909 65.8884 9.50909C65.3211 9.50909 64.8556 9.64728 64.492 9.92364C64.1284 10.2 63.8666 10.7164 63.7066 11.4727H62.5066C62.5066 10.9782 62.5356 10.5564 62.5938 10.2073C62.6666 9.85818 62.8193 9.55273 63.052 9.29091C63.5029 8.78182 64.5938 8.52728 66.3247 8.52728C67.7793 8.52728 68.8847 8.91273 69.6411 9.68364C70.412 10.44 70.7975 11.5818 70.7975 13.1091V19H68.9429L68.1793 18.0182H68.0702C67.9393 18.2218 67.7356 18.4255 67.4593 18.6291C66.9647 19.0218 66.2956 19.2182 65.452 19.2182ZM66.1066 18.1273C66.412 18.1273 66.6738 18.0691 66.892 17.9527C67.1102 17.8218 67.3211 17.6473 67.5247 17.4291C67.7138 17.2255 67.8593 16.9855 67.9611 16.7091V13.9818H67.6338C66.6011 13.9818 65.852 14.1709 65.3866 14.5491C64.9211 14.9127 64.6884 15.4873 64.6884 16.2727C64.6884 16.8691 64.812 17.3273 65.0593 17.6473C65.3066 17.9673 65.6556 18.1273 66.1066 18.1273Z" fill="#359767"/>
<path d="M56.8817 7.43636C56.8817 6.69454 56.7799 6.14909 56.5762 5.8C56.3726 5.43636 55.9653 5.25454 55.3544 5.25454H55.1362V4.6H57.7544C58.278 4.6 58.678 4.68727 58.9544 4.86182C59.2308 5.03636 59.4271 5.32727 59.5435 5.73454C59.6599 6.12727 59.718 6.69454 59.718 7.43636V19H56.8817V7.43636Z" fill="#359767"/>
<path d="M44.9657 7.43636C44.9657 6.69454 44.8639 6.14909 44.6602 5.8C44.4566 5.43636 44.0493 5.25454 43.4384 5.25454H43.2202V4.6H49.2202C50.7184 4.6 52.0711 4.89818 53.2784 5.49454C54.5002 6.07636 55.1111 7.24 55.1111 8.98545C55.1111 10.12 54.7911 11 54.1511 11.6255C53.5257 12.2509 52.8202 12.6655 52.0348 12.8691C51.2493 13.0727 50.5293 13.1745 49.8748 13.1745H47.802V19H44.9657V7.43636ZM49.1111 12.3018C49.9693 12.3018 50.6748 12.04 51.2275 11.5164C51.7802 10.9927 52.0566 10.1127 52.0566 8.87636C52.0566 7.65454 51.7802 6.78182 51.2275 6.25818C50.6893 5.73454 50.0202 5.47273 49.2202 5.47273C48.7984 5.47273 48.4711 5.50182 48.2384 5.56L47.802 5.62545V12.3018H49.1111Z" fill="#359767"/>
<g clip-path="url(#clip0_170_609)">
<path fill-rule="evenodd" clip-rule="evenodd" d="M24.7016 8.78617C26.1045 6.67346 28.3484 5.38318 30.7563 5.30464C28.1026 4.82257 25.4123 6.03168 23.8541 8.40646C22.6044 10.3111 22.2637 12.69 22.8646 14.8458C21.4543 10.3426 23.0714 5.24482 26.9513 2.5938C28.4412 1.70861 30.2772 1.89693 31.5641 3.06689C32.8509 4.23684 33.3206 6.14496 32.744 7.86046C31.2997 12.1575 27.7927 9.58631 25.2032 12.1319C24.181 13.1368 23.6075 14.56 23.629 16.0382C22.9013 13.5866 23.299 10.8987 24.702 8.78601L24.7016 8.78617Z" fill="#359767"/>
<path fill-rule="evenodd" clip-rule="evenodd" d="M28.9497 15.248C31.3411 14.9163 33.7267 15.8111 35.3867 17.6622C33.9487 15.2342 31.3214 13.931 28.6458 14.3186C26.5 14.6295 24.6338 15.9827 23.5493 17.9286C25.7111 13.7411 30.3019 11.5425 34.7162 12.8029C36.3199 13.3775 37.4149 14.9582 37.4672 16.7744C37.5195 18.5903 36.5181 20.2636 34.9515 20.9777C31.0279 22.7668 30.4598 18.2386 26.9788 17.9269C25.6047 17.8039 24.2416 18.3212 23.2376 19.3468C24.4413 17.0986 26.5582 15.5796 28.9497 15.248Z" fill="#359767"/>
<path fill-rule="evenodd" clip-rule="evenodd" d="M14.7842 11.6796C10.9945 10.5678 6.91891 11.4418 3.78749 14.0377C6.69833 10.455 11.2634 8.97798 15.4994 10.2487C18.8967 11.2676 21.5911 13.9064 22.8778 17.316C20.3869 10.0199 13.4874 5.35841 6.04121 6.33612C3.30806 6.88025 1.15597 9.17476 0.634626 12.1007C0.113106 15.0267 1.33104 17.975 3.69421 19.5075C9.61305 23.3461 11.6212 16.1557 17.329 16.4884C19.5821 16.6197 21.6634 17.7847 23.0414 19.6857C21.6342 15.7585 18.5741 12.7912 14.7844 11.6796L14.7842 11.6796Z" fill="#359767"/>
</g>
<defs>
<clipPath id="clip0_170_609">
<rect width="37.1422" height="20.1884" fill="white" transform="translate(1.48828) rotate(4.22732)"/>
</clipPath>
</defs>
</svg>
