<svg width="26" height="26" viewBox="0 0 26 26" fill="none" xmlns="http://www.w3.org/2000/svg">
<g clip-path="url(#clip0_46_244)">
<path d="M19.471 4.87361C19.4258 4.21915 19.3365 3.56728 19.2033 2.9308C19.17 2.7718 19.0453 2.64795 18.8861 2.61581C17.3546 2.30681 13.7925 1.86441 10.6299 3.51056C10.0651 2.7226 9.35762 2.16041 8.95549 1.8412C5.98671 -0.515671 2.12054 -0.0531628 0.596008 0.255024C0.436964 0.287219 0.312298 0.410971 0.278935 0.569812C-0.0355483 2.06926 -0.507502 5.8718 1.89705 8.79061C2.51292 9.53815 3.94112 11.2718 6.10828 11.2718C6.28728 11.2718 6.47329 11.26 6.6921 11.2282C7.09535 12.0963 7.67668 12.7548 8.05393 13.1413C7.48996 14.3936 7.07219 15.9812 6.9427 17.7406C6.64889 17.1873 6.2987 16.7118 5.93207 16.3068C6.17881 15.9495 6.41916 15.4578 6.43551 14.8646C6.471 13.5772 5.43 12.7198 5.03808 12.397C3.41138 11.057 1.30434 11.3169 0.473983 11.4908C0.31504 11.524 0.191186 11.6488 0.159042 11.808C-0.0111229 12.6511 -0.265228 14.7903 1.04628 16.4427C1.35853 16.836 2.17934 17.8699 3.41575 17.8699C4.18725 17.8699 4.85375 17.4749 5.39893 16.9291C6.37462 18.0417 6.86907 19.3558 6.92534 20.7351C6.93448 20.954 7.11632 21.1249 7.33092 21.1249C7.5446 21.1249 7.71903 20.9594 7.73574 20.7522C7.78708 20.1296 7.35651 16.9186 8.67904 13.743C10.2499 15.1446 12.1551 15.7945 14.1223 15.0474C14.5808 15.714 15.16 16.2912 15.8286 16.7471L12.267 24.259C11.9786 24.8686 12.2386 25.5944 12.8463 25.8819C13.4544 26.1706 14.1807 25.9125 14.4698 25.303L18.0657 17.7177C22.1322 18.6244 25.9812 15.5147 25.9812 11.3735C25.9813 7.83644 23.1158 4.87361 19.471 4.87361ZM3.41712 17.0574C2.57182 17.0574 1.95042 16.2746 1.68266 15.9373C0.699448 14.6986 0.775162 13.087 0.9078 12.2366C1.7406 12.1025 3.31256 12.0282 4.52164 13.0241C4.85867 13.3017 5.648 13.9519 5.62343 14.8422C5.61403 15.1818 5.49145 15.4808 5.34383 15.7232C4.80124 15.2393 4.26931 14.897 3.87272 14.6763C3.67671 14.5672 3.4293 14.6376 3.32018 14.8337C3.21105 15.0297 3.28148 15.2771 3.47755 15.3862C3.84098 15.5885 4.33111 15.9039 4.82795 16.3512C4.43907 16.7412 3.9657 17.0574 3.41712 17.0574ZM6.11153 10.4593C4.32461 10.4593 3.06633 8.93203 2.52414 8.27397C0.471444 5.78222 0.74119 2.52892 1.02216 1.00114C2.57924 0.724387 5.90409 0.456114 8.45068 2.47784C8.80787 2.76134 9.42917 3.25534 9.9224 3.91965C9.66697 4.08291 9.41541 4.26104 9.16932 4.4564C8.74947 4.78962 8.06642 5.3318 7.46513 6.07335C6.51071 4.79683 5.20779 4.07514 4.23204 3.6854C4.02369 3.60217 3.78731 3.70358 3.70413 3.91198C3.6209 4.12038 3.72236 4.35671 3.93071 4.43994C4.85954 4.81094 6.11691 5.51329 6.96733 6.77503C6.23487 7.9736 6.06603 9.2324 6.40209 10.445C6.28357 10.4559 6.20141 10.4593 6.11153 10.4593ZM9.03938 12.971C10.0734 10.9734 11.5805 9.62112 12.3715 8.91172L12.478 8.8161C12.6448 8.66599 12.6583 8.4091 12.5082 8.24233C12.3581 8.07557 12.1012 8.06211 11.9345 8.21217L11.8291 8.30682C11.0284 9.02486 9.53098 10.3686 8.43956 12.3676C7.6615 11.5188 7.08367 10.4981 7.05087 9.35189C6.98967 7.22347 8.87109 5.73038 9.67454 5.09267C12.0937 3.1719 15.4194 2.81131 18.4606 3.36152C18.5573 3.87592 18.6238 4.39952 18.6603 4.9251C15.4625 5.33002 12.9816 8.06739 12.9816 11.3733C12.9816 12.4402 13.24 13.4477 13.6974 14.3369C12.3218 14.8045 10.7074 14.5521 9.03938 12.971ZM13.7358 24.9548C13.6398 25.1573 13.3987 25.2445 13.1945 25.1477C12.9905 25.0511 12.9061 24.8084 13.0014 24.6068L16.5303 17.1639C16.7705 17.2868 17.0194 17.395 17.2756 17.4877L13.7358 24.9548ZM19.4814 17.0608C16.3454 17.0608 13.794 14.5094 13.794 11.3734C13.794 8.36497 16.142 5.89506 19.1016 5.69894C22.6067 5.5237 25.1688 8.25356 25.1688 11.3734C25.1688 14.5094 22.6175 17.0608 19.4814 17.0608Z" fill="#242424"/>
<path d="M19.4814 6.49844C16.7933 6.49844 14.6065 8.6853 14.6065 11.3734C14.6065 12.272 14.8512 13.1145 15.2771 13.8381C15.2865 13.8574 15.2975 13.8762 15.3102 13.8942C16.1655 15.3042 17.7153 16.2483 19.4814 16.2483C22.1695 16.2483 24.3563 14.0614 24.3563 11.3734C24.3563 8.6853 22.1695 6.49844 19.4814 6.49844ZM18.5923 7.41016C18.3693 9.11465 17.767 10.6725 16.6944 11.9724C16.4716 12.2427 16.1609 12.6193 15.7618 13.004C14.7338 10.6682 16.1066 7.96752 18.5923 7.41016ZM19.4814 15.4358C18.1195 15.4358 16.913 14.7615 16.1755 13.73C16.6848 13.2609 17.0743 12.7888 17.3214 12.489C18.544 10.993 19.2033 9.25537 19.424 7.31235C21.7135 7.2828 23.5438 9.13344 23.5438 11.3734C23.5438 13.6134 21.7215 15.4358 19.4814 15.4358Z" fill="#242424"/>
</g>
<defs>
<clipPath id="clip0_46_244">
<rect width="26" height="26" fill="white"/>
</clipPath>
</defs>
</svg>
