<svg width="26" height="26" viewBox="0 0 26 26" fill="none" xmlns="http://www.w3.org/2000/svg">
<g clip-path="url(#clip0_46_226)">
<path fill-rule="evenodd" clip-rule="evenodd" d="M12.9924 25.9847C12.3527 25.9847 11.713 25.802 11.1646 25.4364C9.86997 24.5835 9.3521 22.9537 9.73288 20.9584C10.7686 15.6274 11.2713 9.55007 9.91566 8.7885C9.77858 8.71234 9.71765 8.52956 9.80904 8.37725C9.8852 8.24016 10.068 8.17924 10.2203 8.27063C12.3831 9.48914 10.86 18.3843 10.3421 21.0802C10.007 22.8166 10.4335 24.2179 11.4997 24.9338C12.3984 25.5278 13.6017 25.5278 14.4851 24.9338C15.5665 24.2179 15.993 22.8166 15.6579 21.0802C15.5665 20.5776 15.3685 19.5419 15.1705 18.232C15.1553 18.0644 15.2619 17.8969 15.4294 17.8816C15.597 17.8512 15.7493 17.973 15.7797 18.1406C15.9778 19.4352 16.1605 20.471 16.2519 20.9584C16.6327 22.9537 16.1148 24.5835 14.8354 25.4364C14.2871 25.802 13.6321 25.9847 12.9924 25.9847ZM14.9573 12.0176C14.9573 12.0176 14.9573 12.0176 14.942 12.0176C14.7745 12.0023 14.6526 11.8652 14.6526 11.6977C14.7136 9.77854 15.0791 8.65141 15.7797 8.27063C15.9168 8.17924 16.0996 8.24016 16.191 8.37725C16.2672 8.52956 16.2215 8.71234 16.0691 8.7885C15.795 8.95604 15.3228 9.53483 15.2619 11.7129C15.2619 11.8805 15.1248 12.0176 14.9573 12.0176Z" fill="#242424"/>
<path fill-rule="evenodd" clip-rule="evenodd" d="M9.61102 15.3685C6.38197 15.3685 0.396027 15.3685 0.396027 9.06267C0.396027 6.10778 1.90394 3.67076 4.76744 2.01053C9.38255 -0.65496 16.6175 -0.65496 21.2174 2.01053C24.0809 3.65553 25.604 6.10778 25.604 9.06267C25.604 11.7129 24.5226 13.5407 22.4206 14.4851C22.2683 14.5612 22.0855 14.4851 22.0094 14.3327C21.9485 14.1804 22.0094 13.9976 22.1617 13.9367C24.0656 13.0838 24.9947 11.4845 24.9947 9.06267C24.9947 5.60515 22.771 3.60983 20.9127 2.54363C16.4804 -0.0304728 9.51964 -0.0304728 5.07207 2.54363C3.21384 3.60983 1.00528 5.62038 1.00528 9.06267C1.00528 14.3175 5.43762 14.7592 9.61102 14.7592C9.77857 14.7592 9.91565 14.8963 9.91565 15.0638C9.91565 15.2314 9.77857 15.3685 9.61102 15.3685Z" fill="#242424"/>
<path fill-rule="evenodd" clip-rule="evenodd" d="M9.64148 13.6169C9.62624 13.6169 9.61101 13.6169 9.59578 13.6169C6.29057 13.1752 4.31049 12.1699 4.31049 10.9514C4.31049 9.07791 8.78852 8.0574 12.9924 8.0574C17.2115 8.0574 21.6895 9.07791 21.6895 10.9514C21.6895 11.2712 21.5524 11.5911 21.2783 11.8805C21.1564 12.0023 20.9584 12.0023 20.8366 11.8957C20.7147 11.7739 20.7147 11.5759 20.8213 11.454C20.9889 11.2865 21.0803 11.1189 21.0803 10.9514C21.0803 9.86994 17.7598 8.66666 12.9924 8.66666C8.24019 8.66666 4.91974 9.86994 4.91974 10.9514C4.91974 11.6368 6.41242 12.5659 9.68717 13.0076C9.85472 13.0381 9.96134 13.1904 9.9461 13.3579C9.93087 13.5102 9.79379 13.6169 9.64148 13.6169Z" fill="#242424"/>
<path fill-rule="evenodd" clip-rule="evenodd" d="M12.2308 11.4388C12.0785 11.4388 11.9414 11.3169 11.9262 11.1646C11.8196 9.50437 11.4388 8.95604 11.1494 8.7885C10.9971 8.71234 10.9514 8.52956 11.0275 8.37725C11.1189 8.24016 11.3017 8.17924 11.454 8.27063C12.0785 8.62095 12.4288 9.55007 12.5354 11.1189C12.5507 11.2864 12.4288 11.4235 12.2613 11.4388C12.2461 11.4388 12.2461 11.4388 12.2308 11.4388Z" fill="#242424"/>
<path fill-rule="evenodd" clip-rule="evenodd" d="M13.754 11.4388H13.7387C13.5712 11.4235 13.4493 11.2864 13.4493 11.1189C13.5712 9.55007 13.9215 8.62095 14.546 8.27063C14.6983 8.17924 14.8811 8.24016 14.9572 8.37725C15.0486 8.52956 14.9877 8.71234 14.8506 8.7885C14.546 8.95604 14.1804 9.50437 14.0586 11.1646C14.0586 11.3169 13.9215 11.4388 13.754 11.4388Z" fill="#242424"/>
<path fill-rule="evenodd" clip-rule="evenodd" d="M4.56942 6.7932C3.94493 6.7932 3.41183 6.27533 3.41183 5.63561C3.41183 4.99589 3.94493 4.47803 4.56942 4.47803C5.20914 4.47803 5.74224 4.99589 5.74224 5.63561C5.74224 6.27533 5.20914 6.7932 4.56942 6.7932ZM4.56942 5.08728C4.28002 5.08728 4.02109 5.33099 4.02109 5.63561C4.02109 5.94024 4.28002 6.18394 4.56942 6.18394C4.87405 6.18394 5.13298 5.94024 5.13298 5.63561C5.13298 5.33099 4.87405 5.08728 4.56942 5.08728Z" fill="#242424"/>
<path fill-rule="evenodd" clip-rule="evenodd" d="M10.3878 4.66078C9.74809 4.66078 9.23022 4.14292 9.23022 3.5032C9.23022 2.86348 9.74809 2.34561 10.3878 2.34561C11.0275 2.34561 11.5454 2.86348 11.5454 3.5032C11.5454 4.14292 11.0275 4.66078 10.3878 4.66078ZM10.3878 2.95487C10.0832 2.95487 9.83948 3.19857 9.83948 3.5032C9.83948 3.80783 10.0832 4.05153 10.3878 4.05153C10.6924 4.05153 10.9361 3.80783 10.9361 3.5032C10.9361 3.19857 10.6924 2.95487 10.3878 2.95487Z" fill="#242424"/>
<path fill-rule="evenodd" clip-rule="evenodd" d="M19.0088 7.64617C18.3691 7.64617 17.8512 7.1283 17.8512 6.48858C17.8512 5.84886 18.3691 5.33099 19.0088 5.33099C19.6485 5.33099 20.1664 5.84886 20.1664 6.48858C20.1664 7.1283 19.6485 7.64617 19.0088 7.64617ZM19.0088 5.94025C18.7042 5.94025 18.4605 6.18395 18.4605 6.48858C18.4605 6.79321 18.7042 7.03691 19.0088 7.03691C19.3134 7.03691 19.5571 6.79321 19.5571 6.48858C19.5571 6.18395 19.3134 5.94025 19.0088 5.94025Z" fill="#242424"/>
<path fill-rule="evenodd" clip-rule="evenodd" d="M12.7944 7.41768C12.1547 7.41768 11.6368 6.89981 11.6368 6.2601C11.6368 5.62038 12.1547 5.10251 12.7944 5.10251C13.4341 5.10251 13.952 5.62038 13.952 6.2601C13.952 6.89981 13.4341 7.41768 12.7944 7.41768ZM12.7944 5.71176C12.4898 5.71176 12.2461 5.95547 12.2461 6.2601C12.2461 6.56472 12.4898 6.80843 12.7944 6.80843C13.099 6.80843 13.3427 6.56472 13.3427 6.2601C13.3427 5.95547 13.099 5.71176 12.7944 5.71176Z" fill="#242424"/>
<path fill-rule="evenodd" clip-rule="evenodd" d="M1.4013 11.6825C1.26422 11.6825 1.1119 11.6673 0.97482 11.6368C0.8682 11.6216 0.776812 11.5454 0.746349 11.4388C0.517878 10.7534 0.396027 9.9461 0.396027 9.06268C0.396027 8.51435 0.441721 7.98125 0.548341 7.46338C0.578803 7.35676 0.65496 7.26538 0.76158 7.23491C0.97482 7.17399 1.18806 7.14352 1.4013 7.14352C2.66551 7.14352 3.68601 8.16403 3.68601 9.413C3.68601 10.662 2.66551 11.6825 1.4013 11.6825ZM1.26422 11.0732H1.4013C2.33041 11.0732 3.07675 10.3269 3.07675 9.413C3.07675 8.49912 2.33041 7.75278 1.4013 7.75278C1.30991 7.75278 1.20329 7.75278 1.1119 7.76801C1.03575 8.19449 1.00528 8.62097 1.00528 9.06268C1.00528 9.80902 1.09667 10.4792 1.26422 11.0732Z" fill="#242424"/>
<path fill-rule="evenodd" clip-rule="evenodd" d="M16.4499 4.00586C15.201 4.00586 14.1805 2.98535 14.1805 1.73638C14.1805 1.17282 14.3785 0.639716 14.7592 0.213237C14.8202 0.152311 14.9116 0.106617 15.0182 0.121849C16.191 0.2437 17.3334 0.472171 18.3995 0.79203C18.4909 0.822493 18.5671 0.89865 18.5976 0.990038C18.6737 1.23374 18.7194 1.47744 18.7194 1.73638C18.7194 2.98535 17.6989 4.00586 16.4499 4.00586ZM15.1096 0.746336C14.8963 1.0205 14.7897 1.37082 14.7897 1.73638C14.7897 2.65026 15.536 3.3966 16.4499 3.3966C17.3638 3.3966 18.1102 2.65026 18.1102 1.73638C18.1102 1.59929 18.0949 1.46221 18.0645 1.32513C17.1353 1.05096 16.1453 0.852956 15.1096 0.746336Z" fill="#242424"/>
<path fill-rule="evenodd" clip-rule="evenodd" d="M22.6034 4.82834C21.3544 4.82834 20.3339 3.80784 20.3339 2.55887C20.3339 2.36086 20.3492 2.17808 20.4101 1.9953C20.4253 1.90392 20.4862 1.82776 20.5776 1.78206C20.6538 1.7516 20.7604 1.7516 20.8366 1.7973C22.0246 2.42178 23.0146 3.19858 23.7762 4.08201C23.8371 4.15816 23.8524 4.24955 23.8371 4.34094C23.8219 4.43233 23.7762 4.50849 23.6848 4.55418C23.365 4.73696 22.9842 4.82834 22.6034 4.82834ZM20.9432 2.54363V2.55887C20.9432 3.47275 21.6895 4.21909 22.6034 4.21909C22.7405 4.21909 22.8928 4.20386 23.0299 4.15816C22.4511 3.56414 21.7504 3.01581 20.9432 2.54363Z" fill="#242424"/>
<path fill-rule="evenodd" clip-rule="evenodd" d="M24.7663 12.1242C23.5173 12.0937 22.5577 11.0885 22.5577 9.85471C22.5577 8.60574 23.5782 7.58524 24.8272 7.58524C24.9795 7.58524 25.1318 7.60047 25.2689 7.63093C25.406 7.64616 25.4974 7.75278 25.5126 7.87463C25.5735 8.27065 25.604 8.66667 25.604 9.06268C25.604 10.1746 25.4212 11.1342 25.0557 11.9414C24.9947 12.0633 24.8881 12.1242 24.7663 12.1242ZM24.8272 8.19449C23.9133 8.19449 23.167 8.94083 23.167 9.85471C23.167 10.6924 23.7762 11.3779 24.5835 11.4997C24.8577 10.8143 24.9947 9.9918 24.9947 9.06268C24.9947 8.77328 24.9795 8.48389 24.949 8.19449C24.9033 8.19449 24.8577 8.19449 24.8272 8.19449Z" fill="#242424"/>
<path fill-rule="evenodd" clip-rule="evenodd" d="M18.034 19.3134C16.3585 19.3134 14.8202 18.4148 14.0129 16.9678C12.7639 14.7592 13.5559 11.9414 15.7797 10.7077C16.4651 10.3269 17.2419 10.1136 18.0187 10.1136C19.679 10.1136 21.2326 11.0123 22.0398 12.4745C23.2736 14.6831 22.4816 17.4856 20.273 18.7346C19.5876 19.1154 18.8108 19.3134 18.034 19.3134ZM18.0187 10.7229C17.3486 10.7229 16.6632 10.9057 16.0691 11.2408C14.15 12.307 13.4646 14.744 14.546 16.6631C15.2466 17.9274 16.587 18.7042 18.034 18.7042C18.7042 18.7042 19.3743 18.5366 19.9684 18.2015C20.9127 17.6837 21.5829 16.8307 21.8723 15.795C22.1617 14.7745 22.0246 13.693 21.5067 12.7639C20.8061 11.5149 19.4657 10.7229 18.0187 10.7229Z" fill="#242424"/>
<path fill-rule="evenodd" clip-rule="evenodd" d="M20.6538 20.0293C20.5472 20.0293 20.4558 19.9836 20.3949 19.877L19.7247 18.6889C19.6485 18.5366 19.6942 18.3538 19.8465 18.2777C19.9836 18.1863 20.1816 18.2472 20.2578 18.3843L20.928 19.5723C21.0041 19.7247 20.9584 19.9074 20.8061 19.9988C20.7604 20.0141 20.7147 20.0293 20.6538 20.0293Z" fill="#242424"/>
<path fill-rule="evenodd" clip-rule="evenodd" d="M22.8014 25.1927C22.4511 25.1927 22.116 24.9947 21.9485 24.6901L19.5267 20.3644C19.481 20.2882 19.4657 20.2121 19.4962 20.1359C19.5114 20.0598 19.5724 19.9836 19.6333 19.9531L21.3849 18.9783C21.5372 18.8869 21.72 18.9479 21.7961 19.0849L24.2179 23.4107C24.4921 23.8828 24.3093 24.4921 23.8371 24.751L23.2888 25.0709C23.1365 25.147 22.969 25.1927 22.8014 25.1927ZM20.1968 20.3339L22.4815 24.3855C22.5729 24.5683 22.8166 24.6292 22.9842 24.5378L23.5477 24.2179C23.7305 24.1265 23.7915 23.8981 23.6848 23.7153L21.4154 19.6485L20.1968 20.3339Z" fill="#242424"/>
</g>
<defs>
<clipPath id="clip0_46_226">
<rect width="26" height="26" fill="white"/>
</clipPath>
</defs>
</svg>
