<svg width="24" height="24" viewBox="0 0 24 24" fill="none" xmlns="http://www.w3.org/2000/svg">
<path d="M23.6881 18.3544C23.516 18.3544 23.3764 18.2148 23.3764 18.0427V17.927C23.3764 15.6088 23.3764 14.21 22.8694 11.8544C22.6594 10.8799 22.6805 9.88582 22.7005 8.92478C22.7065 8.63853 22.713 8.34199 22.713 8.05087C22.713 8.04654 22.713 8.04275 22.713 8.03842C22.8136 5.47836 18.0155 3.73052 15.4381 2.79167C15.1545 2.68831 14.8867 2.59091 14.6578 2.50379C14.5366 2.45779 14.457 2.34199 14.457 2.21266V0.311688C14.457 0.13961 14.5966 0 14.7687 0C14.9408 0 15.0804 0.13961 15.0804 0.311688V1.99675C15.2568 2.06223 15.45 2.13258 15.6518 2.20617C17.029 2.70779 18.9148 3.39502 20.4884 4.32738C22.4273 5.47619 23.3851 6.73052 23.3364 8.05682C23.3364 8.35227 23.3299 8.64989 23.3239 8.93777C23.3034 9.90584 23.2844 10.8198 23.4787 11.7229C23.9998 14.1434 23.9998 15.6488 23.9998 17.927V18.0427C23.9998 18.2148 23.8602 18.3544 23.6881 18.3544Z" fill="#242424"/>
<path d="M7.40809 9.60824H6.92595C6.75387 9.60824 6.61426 9.46863 6.61426 9.29655C6.61426 9.12447 6.75387 8.98486 6.92595 8.98486H7.40809C7.58017 8.98486 7.71978 9.12447 7.71978 9.29655C7.71978 9.46863 7.58017 9.60824 7.40809 9.60824Z" fill="#242424"/>
<path d="M17.0502 9.60824H16.568C16.396 9.60824 16.2563 9.46863 16.2563 9.29655C16.2563 9.12447 16.396 8.98486 16.568 8.98486H17.0502C17.2223 8.98486 17.3619 9.12447 17.3619 9.29655C17.3619 9.46863 17.2223 9.60824 17.0502 9.60824Z" fill="#242424"/>
<path d="M19.3375 11.0877C19.2877 11.0877 19.2374 11.0757 19.1903 11.0503C19.0388 10.9686 18.982 10.7798 19.0631 10.6282C19.4343 9.93722 19.6308 9.15746 19.6308 8.37336C19.6308 8.20129 19.7704 8.06168 19.9425 8.06168C20.1145 8.06168 20.2541 8.20129 20.2541 8.37336C20.2541 9.26081 20.0323 10.1423 19.6124 10.9237C19.5561 11.0281 19.449 11.0877 19.3375 11.0877ZM4.63943 11.0833C4.52687 11.0833 4.41865 11.0222 4.36291 10.9156C3.94516 10.1147 3.7233 9.23592 3.72168 8.37391L4.34506 8.37228C4.34668 9.13527 4.54419 9.91503 4.91594 10.6272C4.99549 10.7797 4.93651 10.9681 4.78391 11.0476C4.73737 11.072 4.68813 11.0833 4.63943 11.0833Z" fill="#242424"/>
<path d="M2.99835 19.6223C2.83547 19.6223 2.69857 19.4957 2.68774 19.3312C2.5898 17.829 3.22292 15.7868 3.33601 15.4372V12.4139C3.33601 12.3571 3.35171 12.3014 3.38093 12.2527L4.37119 10.6136C4.46047 10.4664 4.65203 10.4188 4.79922 10.5081C4.9464 10.5974 4.99402 10.7889 4.90474 10.9361L3.95939 12.5005V15.4865C3.95939 15.52 3.95398 15.553 3.9437 15.5849C3.93612 15.6071 3.21318 17.7998 3.31004 19.29C3.3214 19.4616 3.19099 19.6104 3.01945 19.6212C3.01188 19.6223 3.00484 19.6223 2.99835 19.6223Z" fill="#242424"/>
<path d="M20.9773 19.6234C20.9702 19.6234 20.9637 19.6234 20.9567 19.6228C20.7852 19.6115 20.6548 19.4632 20.6661 19.2917C20.7635 17.8014 20.04 15.6082 20.0325 15.5866C20.0216 15.5546 20.0168 15.5216 20.0168 15.4881V12.5022L19.0714 10.9378C18.9821 10.7906 19.0298 10.599 19.1769 10.5097C19.3247 10.421 19.5157 10.4681 19.605 10.6152L20.5952 12.2543C20.6245 12.303 20.6402 12.3588 20.6402 12.4156V15.4388C20.7532 15.7884 21.3864 17.8306 21.2884 19.3328C21.2771 19.4967 21.1402 19.6234 20.9773 19.6234Z" fill="#242424"/>
<path d="M16.3338 12.1932C15.0362 12.1932 13.8387 11.533 12.6677 10.8869C12.3987 10.7386 12.1201 10.585 11.8446 10.4416C11.692 10.362 11.6325 10.1737 11.712 10.0211C11.7916 9.8685 11.9794 9.80898 12.1325 9.88853C12.415 10.0357 12.6969 10.191 12.9691 10.3409C14.6926 11.2911 16.1807 12.1115 17.9561 11.1277C18.3614 10.9031 18.7342 10.7186 19.2045 10.4935C19.3598 10.4194 19.5459 10.4848 19.62 10.6401C19.6942 10.7955 19.6287 10.9816 19.4734 11.0557C19.0134 11.276 18.6493 11.4562 18.2575 11.6732C17.5887 12.0438 16.9496 12.1932 16.3338 12.1932Z" fill="#242424"/>
<path d="M7.64222 12.1932C7.02588 12.1932 6.38735 12.0444 5.71852 11.6738C5.32675 11.4568 4.96311 11.2766 4.50261 11.0563C4.34731 10.9822 4.28183 10.7961 4.35597 10.6408C4.4301 10.4855 4.61679 10.42 4.77155 10.4941C5.24179 10.7192 5.61463 10.9043 6.01993 11.1283C7.79536 12.1121 9.28346 11.2912 11.0069 10.3415C11.2791 10.1916 11.5611 10.0363 11.8435 9.88914C11.9961 9.80959 12.1844 9.86911 12.264 10.0217C12.3435 10.1743 12.284 10.3626 12.1314 10.4422C11.8554 10.5856 11.5773 10.7392 11.3083 10.8875C10.1374 11.5325 8.9393 12.1932 7.64222 12.1932Z" fill="#242424"/>
<path d="M12.7251 15.1953H11.2511C9.69863 15.1953 8.48218 14.4107 8.48218 13.4096C8.48218 13.2375 8.62179 13.0979 8.79387 13.0979C8.96594 13.0979 9.10555 13.2375 9.10555 13.4096C9.10555 14.04 10.0882 14.572 11.2511 14.572H12.7251C13.888 14.572 14.8707 14.0395 14.8707 13.4096C14.8707 13.2375 15.0103 13.0979 15.1824 13.0979C15.3545 13.0979 15.4941 13.2375 15.4941 13.4096C15.4941 14.4107 14.2776 15.1953 12.7251 15.1953Z" fill="#242424"/>
<path d="M12.7251 21.092H11.2511C9.69863 21.092 8.48218 20.3074 8.48218 19.3063C8.48218 19.1342 8.62179 18.9946 8.79387 18.9946C8.96594 18.9946 9.10555 19.1342 9.10555 19.3063C9.10555 19.9367 10.0882 20.4686 11.2511 20.4686H12.7251C13.888 20.4686 14.8707 19.9362 14.8707 19.3063C14.8707 19.1342 15.0103 18.9946 15.1824 18.9946C15.3545 18.9946 15.4941 19.1342 15.4941 19.3063C15.4941 20.3079 14.2776 21.092 12.7251 21.092Z" fill="#242424"/>
<path d="M12.7251 18.1434H11.2511C9.69863 18.1434 8.48218 17.3588 8.48218 16.3577C8.48218 16.1856 8.62179 16.046 8.79387 16.046C8.96594 16.046 9.10555 16.1856 9.10555 16.3577C9.10555 16.9881 10.0882 17.52 11.2511 17.52H12.7251C13.888 17.52 14.8707 16.9875 14.8707 16.3577C14.8707 16.1856 15.0103 16.046 15.1824 16.046C15.3545 16.046 15.4941 16.1856 15.4941 16.3577C15.4941 17.3593 14.2776 18.1434 12.7251 18.1434Z" fill="#242424"/>
<path d="M11.9882 15.1953C11.8161 15.1953 11.6765 15.0557 11.6765 14.8837V13.7933C11.6765 13.6212 11.8161 13.4816 11.9882 13.4816C12.1603 13.4816 12.2999 13.6212 12.2999 13.7933V14.8837C12.2999 15.0557 12.1603 15.1953 11.9882 15.1953Z" fill="#242424"/>
<path d="M11.9882 18.1434C11.8161 18.1434 11.6765 18.0038 11.6765 17.8317V16.7408C11.6765 16.5687 11.8161 16.4291 11.9882 16.4291C12.1603 16.4291 12.2999 16.5687 12.2999 16.7408V17.8317C12.2999 18.0043 12.1603 18.1434 11.9882 18.1434Z" fill="#242424"/>
<path d="M11.9882 21.092C11.8161 21.092 11.6765 20.9524 11.6765 20.7803V19.6894C11.6765 19.5173 11.8161 19.3777 11.9882 19.3777C12.1603 19.3777 12.2999 19.5173 12.2999 19.6894V20.7803C12.2999 20.9524 12.1603 21.092 11.9882 21.092Z" fill="#242424"/>
<path d="M19.1153 22.2495C19.1066 22.2495 19.0985 22.2489 19.0899 22.2484C18.9183 22.2343 18.7906 22.0839 18.8042 21.9124C18.9319 20.3377 18.0222 17.3258 18.013 17.2955C17.9908 17.223 17.9963 17.145 18.0271 17.0763C18.8404 15.2782 19.0249 10.8079 19.0266 10.763C19.0336 10.5909 19.1792 10.4573 19.3502 10.4638C19.5222 10.4703 19.6559 10.6153 19.6494 10.7874C19.6424 10.9724 19.4654 15.2614 18.6424 17.2246C18.8123 17.8036 19.5498 20.4307 19.4254 21.9621C19.4124 22.1261 19.276 22.2495 19.1153 22.2495Z" fill="#242424"/>
<path d="M0.311688 18.3544C0.13961 18.3544 0 18.2148 0 18.0427V17.9275C0 15.6488 5.16057e-08 14.1439 0.521104 11.7229C0.715368 10.8198 0.696429 9.9053 0.675866 8.93777C0.669913 8.64989 0.66342 8.35227 0.66342 8.05682C0.614718 6.73052 1.57251 5.47565 3.51136 4.32738C5.0855 3.39502 6.97132 2.70779 8.34794 2.20617C8.54978 2.13258 8.74296 2.06223 8.91937 1.99675V0.311688C8.91937 0.13961 9.05898 0 9.23106 0C9.40314 0 9.54275 0.13961 9.54275 0.311688V2.21266C9.54275 2.34199 9.46266 2.45833 9.34199 2.50379C9.11309 2.59091 8.84524 2.68831 8.56169 2.79167C5.98431 3.73052 1.18615 5.4789 1.2868 8.03842V8.05087C1.2868 8.34199 1.29329 8.63799 1.29924 8.92478C1.31926 9.88582 1.34037 10.8799 1.13041 11.8544C0.623377 14.21 0.623377 15.6093 0.623377 17.9275V18.0427C0.623377 18.2148 0.483766 18.3544 0.311688 18.3544Z" fill="#242424"/>
<path d="M4.86028 22.2489C4.69957 22.2489 4.56321 22.1256 4.55022 21.9627C4.4263 20.4313 5.16385 17.8036 5.33323 17.2246C4.51017 15.2614 4.33323 10.9724 4.32619 10.7874C4.31916 10.6153 4.45336 10.4703 4.62543 10.4638C4.79805 10.4573 4.94253 10.5909 4.94903 10.763C4.95065 10.8079 5.13517 15.2782 5.94849 17.0763C5.97987 17.145 5.98474 17.223 5.96256 17.2955C5.95336 17.3258 5.04372 20.3388 5.17143 21.9124C5.1855 22.0839 5.05779 22.2343 4.88572 22.2484C4.87706 22.2484 4.86894 22.2489 4.86028 22.2489Z" fill="#242424"/>
<path d="M11.6832 23.5076C10.5814 23.5076 9.61389 23.4237 8.80924 23.3106C6.2719 22.9529 4.78705 22.2478 4.72536 22.2181C4.57006 22.1434 4.50513 21.9572 4.5798 21.8019C4.65448 21.6472 4.84062 21.5817 4.99539 21.6564C5.01 21.6634 6.47428 22.3555 8.9245 22.6975C11.1832 23.0124 14.767 23.0855 19.0143 21.6428C19.1772 21.5876 19.3542 21.6748 19.4099 21.8376C19.4651 22.0005 19.378 22.1775 19.2151 22.2332C16.3493 23.2062 13.7741 23.5076 11.6832 23.5076Z" fill="#242424"/>
<path d="M11.9882 10.4767C11.8161 10.4767 11.6765 10.3371 11.6765 10.165V9.10228C11.6765 8.9302 11.8161 8.79059 11.9882 8.79059C12.1603 8.79059 12.2999 8.9302 12.2999 9.10228V10.165C12.2999 10.3377 12.1603 10.4767 11.9882 10.4767Z" fill="#242424"/>
</svg>
