<svg width="26" height="26" viewBox="0 0 26 26" fill="none" xmlns="http://www.w3.org/2000/svg">
<path d="M13.2316 10.3431C13.126 10.3431 13.0244 10.3025 12.9432 10.2253L12.8416 10.1238C12.6832 9.96532 12.6832 9.70938 12.8416 9.55094C13 9.3925 13.256 9.3925 13.4144 9.55094L13.516 9.6525C13.6744 9.81094 13.6744 10.0709 13.516 10.2253C13.4347 10.3025 13.3332 10.3431 13.2275 10.3431H13.2316Z" fill="#242424"/>
<path d="M13.6094 10.7331C13.4997 10.7331 13.3941 10.6884 13.3169 10.6072L13.2437 10.53C13.1625 10.4447 13.0609 10.3391 12.9472 10.2253C12.8619 10.14 12.8172 10.0222 12.8294 9.90031C12.8862 9.27874 13 8.68968 13.1584 8.14531C13.5687 6.74781 14.2878 5.66718 15.2912 4.93187C15.7381 4.60687 16.1037 4.54999 16.3759 4.76124C16.7172 5.02531 16.965 5.59406 15.5959 9.00249C15.5716 9.06749 15.5269 9.12437 15.47 9.16906C15.1409 9.42906 14.8728 9.65656 14.6534 9.86374C14.3934 10.1075 14.1375 10.3634 13.91 10.6031C13.8328 10.6844 13.7272 10.7331 13.6175 10.7331H13.6094ZM15.8275 5.54531C15.8275 5.54531 15.7869 5.57374 15.7666 5.58593C14.9094 6.21156 14.2919 7.14999 13.9344 8.36874C13.8166 8.77499 13.7272 9.21374 13.6703 9.67687C13.8084 9.53874 13.9506 9.40062 14.1009 9.26249C14.3162 9.05937 14.5722 8.83999 14.8809 8.59624C15.6406 6.69499 15.8072 5.87437 15.8316 5.54124L15.8275 5.54531Z" fill="#242424"/>
<path d="M19.0938 24.7812H6.90625C6.68281 24.7812 6.5 24.5984 6.5 24.375V23.9687C6.5 21.4256 7.995 19.1019 10.3147 18.0497C10.3269 18.0456 10.3391 18.0375 10.3513 18.0334C12.0738 17.2616 14.0806 17.2859 15.7828 18.0903C16.4491 18.4031 17.0625 18.8378 17.5988 19.3741C18.8297 20.5969 19.5041 22.23 19.5041 23.9687V24.375C19.5041 24.5984 19.3212 24.7812 19.0978 24.7812H19.0938ZM7.3125 23.9687H18.6875C18.6875 22.4494 18.0944 21.0234 17.0178 19.9509C16.5466 19.4797 16.0144 19.1019 15.4294 18.8297C13.9303 18.1187 12.1631 18.1025 10.6519 18.7931C10.6397 18.7972 10.6275 18.8012 10.6194 18.8053C8.60844 19.7356 7.3125 21.7587 7.3125 23.9728V23.9687Z" fill="#242424"/>
<path d="M10.4854 18.8256C10.4244 18.8256 10.3635 18.8134 10.3066 18.785C10.1035 18.6875 10.0222 18.4438 10.1197 18.2406C10.981 16.4734 11.7407 14.2431 12.3094 11.7853C12.3622 11.5659 12.5816 11.4278 12.7969 11.4806C13.0163 11.5294 13.1504 11.7487 13.1016 11.9681C12.5085 14.5194 11.7488 16.7456 10.851 18.5941C10.7819 18.7403 10.6357 18.8216 10.4854 18.8216V18.8256Z" fill="#242424"/>
<path d="M15.1815 11.9478C15.1246 11.9478 15.0678 11.9356 15.0109 11.9113C14.9053 11.8625 14.824 11.7731 14.7915 11.6594C14.6493 11.2003 14.4828 10.7534 14.2918 10.3309C14.1984 10.1197 14.1009 9.92875 14.0115 9.75C13.9303 9.5875 13.9628 9.3925 14.0968 9.26656C14.3324 9.04719 14.6168 8.80344 14.9621 8.53125C16.5059 7.33281 18.9068 6.00844 21.6043 6.50406C22.1893 6.60969 22.5103 6.86156 22.559 7.24344C22.6037 7.62531 22.7256 8.64094 15.3481 11.9072C15.2953 11.9316 15.2384 11.9437 15.1815 11.9437V11.9478ZM14.8728 9.66063C14.9256 9.76625 14.9784 9.88 15.0312 9.99375C15.1774 10.3106 15.3074 10.6438 15.4253 10.985C19.4553 9.17313 21.4784 7.87719 21.7262 7.38156C21.6815 7.36125 21.5962 7.33281 21.4581 7.30438C19.0531 6.86563 16.8715 8.07625 15.4618 9.17313C15.2384 9.34781 15.0434 9.51031 14.8728 9.66063Z" fill="#242424"/>
<path d="M15.604 18.8662C15.5837 18.8662 15.5634 18.8662 15.5431 18.8622C15.3197 18.8297 15.1693 18.6225 15.2018 18.3991C15.5715 15.9778 15.4334 13.7109 14.7915 11.6634C14.7265 11.4481 14.8443 11.2206 15.0597 11.1556C15.275 11.0866 15.5025 11.2084 15.5675 11.4237C16.2459 13.5891 16.3922 15.9819 16.0062 18.525C15.9737 18.7281 15.8031 18.8703 15.604 18.8703V18.8662Z" fill="#242424"/>
<path d="M12.7075 12.285C12.6506 12.285 12.5937 12.2728 12.5409 12.2484C4.52559 8.66937 4.65153 7.62125 4.69622 7.22718C4.72872 6.96718 4.91153 6.63 5.61028 6.50406C6.06934 6.41875 6.54059 6.38625 7.04841 6.4025C8.14122 6.44718 9.25841 6.76 10.3715 7.32468C11.7 7.99906 12.7562 8.905 13.4103 9.54281C13.5078 9.63625 13.5525 9.77437 13.5281 9.90437C13.4184 10.5137 13.2681 11.2287 13.1015 11.9641C13.0731 12.0819 12.9959 12.1834 12.8862 12.2362C12.8293 12.2647 12.7684 12.2809 12.7034 12.2809L12.7075 12.285ZM5.52903 7.36937C5.80122 7.90156 8.01528 9.31125 12.419 11.3059C12.5206 10.8387 12.614 10.3878 12.6912 9.9775C12.0697 9.3925 11.1393 8.63281 10.0059 8.05187C8.99841 7.54 7.99497 7.25968 7.01997 7.21906C6.57716 7.20281 6.16278 7.23125 5.76466 7.30437C5.65091 7.32468 5.57778 7.34906 5.53309 7.36531L5.52903 7.36937Z" fill="#242424"/>
<path d="M10.1888 8.09656C10.1278 8.09656 10.0628 8.08031 10.0059 8.05187C8.99844 7.54 7.995 7.25969 7.02 7.21906C6.8575 7.21094 6.71531 7.10937 6.65844 6.95906C6.55281 6.68687 6.5 6.39844 6.5 6.09375C6.5 5.44375 6.75188 4.83438 7.21094 4.37125C7.67813 3.90813 8.2875 3.65625 8.9375 3.65625C9.5875 3.65625 10.1969 3.90812 10.66 4.36719C11.1231 4.83437 11.375 5.44781 11.375 6.09375C11.375 6.73969 11.1231 7.35312 10.6641 7.81625C10.5788 7.90156 10.4975 7.97062 10.4162 8.02344C10.3472 8.07219 10.2659 8.0925 10.1888 8.0925V8.09656ZM7.345 6.42687C8.26312 6.50406 9.19344 6.76812 10.1237 7.20687C10.4041 6.90219 10.5625 6.50812 10.5625 6.09375C10.5625 5.67937 10.3919 5.25281 10.0872 4.94C9.77844 4.63531 9.37219 4.46875 8.9375 4.46875C8.50281 4.46875 8.09656 4.63937 7.78375 4.94406C7.47906 5.25281 7.3125 5.65906 7.3125 6.09375C7.3125 6.2075 7.32469 6.31719 7.345 6.42687Z" fill="#242424"/>
<path d="M5.68748 5.28125C5.62654 5.28125 5.56561 5.26906 5.50467 5.23656L3.87967 4.42406C3.68061 4.3225 3.59936 4.07875 3.69686 3.87969C3.79436 3.68062 4.04217 3.59937 4.24123 3.69687L5.86623 4.50937C6.06529 4.61094 6.14654 4.85468 6.04904 5.05375C5.97592 5.19593 5.83373 5.27718 5.68342 5.27718L5.68748 5.28125Z" fill="#242424"/>
<path d="M7.49932 3.33938C7.32869 3.33938 7.17026 3.23375 7.11338 3.06313L6.54057 1.34063C6.47151 1.12938 6.58526 0.897814 6.79651 0.828751C7.01182 0.755626 7.23932 0.873439 7.31245 1.08469L7.88526 2.80719C7.95432 3.01844 7.84057 3.25 7.62932 3.31906C7.5887 3.33531 7.54401 3.33938 7.49932 3.33938Z" fill="#242424"/>
<path d="M10.1562 3.25C10.0953 3.25 10.0344 3.23781 9.97342 3.20531C9.77436 3.10375 9.69311 2.86 9.79061 2.66094L10.6031 1.03594C10.7047 0.836873 10.9484 0.755623 11.1475 0.853123C11.3465 0.954685 11.4278 1.19844 11.3303 1.3975L10.5178 3.0225C10.4447 3.16469 10.3025 3.24593 10.1522 3.24593L10.1562 3.25Z" fill="#242424"/>
<path d="M12.0981 5.06187C11.9275 5.06187 11.7691 4.95624 11.7122 4.78562C11.6431 4.57437 11.7569 4.34281 11.9681 4.27374L13.6906 3.69687C13.9019 3.62374 14.1335 3.74156 14.2066 3.95281C14.2756 4.16406 14.1619 4.39562 13.9506 4.46468L12.2281 5.04156C12.1875 5.05781 12.1428 5.06187 12.0981 5.06187Z" fill="#242424"/>
</svg>
