<svg width="25" height="25" viewBox="0 0 25 25" fill="none" xmlns="http://www.w3.org/2000/svg">
<path d="M10.9404 20.911H10.7117V19.1008C10.7117 17.5509 9.95799 16.0889 8.69574 15.1899L6.37008 13.5334C5.76313 13.1008 4.9258 13.1942 4.40958 13.7423L2.50099 9.00265C2.26669 8.41997 1.65115 8.10035 1.01639 8.24485C0.294062 8.41021 -0.14507 9.13587 0.0438889 9.84951L1.61381 15.7644C1.85092 16.6577 2.32979 17.4673 2.99872 18.1056L4.95828 19.9753C5.15562 20.1637 5.26876 20.4279 5.26876 20.7005V20.911H5.04006C4.64501 20.911 4.3237 21.2323 4.3237 21.6274V23.7505C4.3237 24.1455 4.64501 24.467 5.04006 24.467H10.9404C11.3354 24.467 11.6567 24.1455 11.6567 23.7505V21.6274C11.6567 21.2323 11.3354 20.911 10.9404 20.911ZM5.35408 19.5605L3.39498 17.6912C2.80278 17.1261 2.37833 16.4084 2.1683 15.6173L0.598377 9.70239C0.495475 9.31557 0.718424 8.87638 1.21811 8.7883C1.5355 8.73232 1.84849 8.91783 1.96891 9.2168L4.04814 14.3802C3.88572 14.9631 4.07876 15.6147 4.58153 16.0017C5.36183 16.6021 6.40247 17.4052 6.85465 17.7543C6.98001 17.8511 7.15877 17.8269 7.25557 17.7015C7.35237 17.5762 7.33063 17.3971 7.20516 17.3003C6.75289 16.9511 5.71197 16.1477 4.9314 15.5473C4.49192 15.2089 4.43012 14.5763 4.83515 14.1211C5.14059 13.7777 5.66567 13.7357 6.0399 14.0023L8.36305 15.657C9.47688 16.4504 10.1382 17.7334 10.1382 19.1008V20.911H5.84229V20.7011C5.84229 20.2702 5.66586 19.858 5.35408 19.5605ZM11.0832 23.7505C11.0832 23.8293 11.0192 23.8935 10.9404 23.8935H5.04005C4.96127 23.8935 4.89723 23.8293 4.89723 23.7505V21.6274C4.89723 21.5486 4.96127 21.4846 5.04005 21.4846H10.9404C11.0192 21.4846 11.0832 21.5486 11.0832 21.6274V23.7505Z" fill="#242424"/>
<path d="M10.0301 22.2508C9.87173 22.2508 9.74329 22.3792 9.74329 22.5375V22.8404C9.74329 22.9987 9.87173 23.1271 10.0301 23.1271C10.1884 23.1271 10.3168 22.9987 10.3168 22.8404V22.5375C10.3168 22.3792 10.1884 22.2508 10.0301 22.2508Z" fill="#242424"/>
<path d="M23.4309 8.23945C22.8178 8.09812 22.2043 8.42017 21.97 9.00247L20.0625 13.7395C19.5625 13.1958 18.7144 13.0962 18.1009 13.5334L15.7752 15.1899C14.513 16.0891 13.7593 17.5511 13.7593 19.1009V20.9111H13.5306C13.1355 20.9111 12.8142 21.2324 12.8142 21.6274V23.7505C12.8142 24.1456 13.1355 24.467 13.5306 24.467H19.4309C19.826 24.467 20.1473 24.1456 20.1473 23.7505V21.6274C20.1473 21.2324 19.826 20.911 19.4309 20.911H19.2022V20.7005C19.2022 20.4279 19.3154 20.1637 19.5127 19.9753L21.4723 18.1056C22.1412 17.4673 22.6201 16.6577 22.8572 15.7644L24.4271 9.8495C24.6083 9.1652 24.2149 8.41889 23.4309 8.23945ZM19.5737 21.6274V23.7505C19.5737 23.8293 19.5097 23.8935 19.4309 23.8935H13.5306C13.4518 23.8935 13.3878 23.8293 13.3878 23.7505V21.6274C13.3878 21.5486 13.4518 21.4846 13.5306 21.4846H19.4309C19.5097 21.4846 19.5737 21.5486 19.5737 21.6274ZM23.8726 9.70239L22.3025 15.6179C22.0926 16.4086 21.6684 17.126 21.0765 17.6907L19.1169 19.5605C18.8051 19.858 18.6287 20.2702 18.6287 20.7011V20.911H14.3328V19.1008C14.3328 17.7334 14.9942 16.4504 16.1079 15.657L18.4336 14.0005C18.837 13.7134 19.4053 13.803 19.7188 14.2249C20.009 14.6158 19.9777 15.2101 19.5396 15.5473C18.759 16.1477 17.7181 16.9511 17.2658 17.3003C17.1404 17.3971 17.1186 17.5762 17.2154 17.7016C17.3122 17.8269 17.491 17.8511 17.6163 17.7543C18.0686 17.4052 19.1092 16.6021 19.8894 16.0017C20.387 15.6188 20.5812 14.9767 20.4198 14.3877L22.5021 9.21661C22.6305 8.89755 22.9658 8.72149 23.3265 8.80382C23.7328 8.89712 23.9787 9.30367 23.8726 9.70239Z" fill="#242424"/>
<path d="M14.4409 23.1271C14.5993 23.1271 14.7277 22.9987 14.7277 22.8404V22.5375C14.7277 22.3792 14.5993 22.2508 14.4409 22.2508C14.2826 22.2508 14.1542 22.3792 14.1542 22.5375V22.8404C14.1542 22.9987 14.2826 23.1271 14.4409 23.1271Z" fill="#242424"/>
<path d="M7.3284 9.0848C8.28955 9.61541 9.43462 9.75081 10.6366 9.38267C11.1624 9.95826 11.5643 10.6475 11.7957 11.4069C10.4306 11.527 9.18854 12.2008 8.34085 13.3071C7.98642 13.7694 8.31113 14.4355 8.89048 14.4355H15.5805C16.1608 14.4355 16.4839 13.7687 16.13 13.3067C15.2825 12.2019 14.0405 11.5283 12.6745 11.4071C12.9057 10.6477 13.3077 9.95826 13.8334 9.38263C15.0317 9.74968 16.1766 9.61727 17.1417 9.0848C18.2189 8.49017 18.9625 7.44767 19.2357 6.14938C19.2631 6.01845 19.1925 5.86812 19.0521 5.81613C17.8071 5.35238 16.5291 5.42463 15.4528 6.0187C14.3763 6.61295 13.634 7.65602 13.3626 8.95598C13.3576 8.97967 13.3603 9.00457 13.3619 9.02924C13.0321 9.39834 12.7496 9.80981 12.5219 10.2562V7.28818C13.5903 6.3291 14.1813 5.07047 14.1813 3.72551C14.1813 2.34173 13.5586 1.04251 12.4278 0.0673979C12.3238 -0.0225889 12.1504 -0.0222181 12.0464 0.0670231C10.913 1.04139 10.2888 2.33948 10.2888 3.72253C10.2888 5.06312 10.8799 6.32138 11.9484 7.28475V10.2563C11.721 9.81063 11.4391 9.39969 11.1098 9.03099C11.1113 9.00599 11.1126 8.98084 11.1075 8.95598C10.8362 7.65602 10.0939 6.61295 9.01743 6.01889C7.94113 5.42463 6.66264 5.35238 5.41813 5.81614C5.29399 5.86227 5.20335 6.00171 5.23442 6.14939C5.50755 7.44767 6.25116 8.49018 7.3284 9.0848ZM15.6748 13.6559C15.7398 13.7405 15.686 13.862 15.5805 13.862H8.89048C8.78487 13.862 8.73115 13.7407 8.79601 13.6559C9.6242 12.5753 10.8767 11.9554 12.2325 11.9554C13.5913 11.9554 14.8461 12.5753 15.6748 13.6559ZM15.7299 6.52091C16.5907 6.04596 17.6069 5.96008 18.6166 6.27317C18.3418 7.29271 17.7262 8.10689 16.8646 8.58259C16.0958 9.00658 15.2066 9.11918 14.3115 8.91832C14.9632 8.36259 15.7501 7.96125 16.6146 7.77737C16.7696 7.74451 16.8685 7.59217 16.8355 7.4374C16.8026 7.28207 16.6486 7.18368 16.4955 7.21654C15.6324 7.40006 14.8474 7.76596 14.1788 8.2723C14.5025 7.51432 15.0335 6.90515 15.7299 6.52091ZM10.8624 3.72253C10.8624 2.58536 11.3483 1.50925 12.2366 0.667623C13.1227 1.51018 13.6077 2.58742 13.6077 3.72551C13.6077 4.73561 13.2252 5.69424 12.5219 6.48233V3.57728C12.5219 3.41896 12.3935 3.29051 12.2351 3.29051C12.0768 3.29051 11.9484 3.41896 11.9484 3.57728V6.47767C11.2448 5.68706 10.8624 4.729 10.8624 3.72253ZM8.74038 6.52091C9.43666 6.90529 9.96771 7.51434 10.2913 8.27223C9.62279 7.76587 8.83774 7.40001 7.97455 7.21654C7.82071 7.18368 7.66744 7.28244 7.63458 7.4374C7.60153 7.59217 7.70048 7.74451 7.85544 7.77737C8.71984 7.96125 9.50676 8.36259 10.1585 8.91832C9.2635 9.11911 8.37389 9.00672 7.60545 8.58259C6.74385 8.10689 6.12832 7.29271 5.8535 6.27317C6.86315 5.96008 7.87952 6.04577 8.74038 6.52091Z" fill="#242424"/>
</svg>
