<svg width="26" height="26" viewBox="0 0 26 26" fill="none" xmlns="http://www.w3.org/2000/svg">
<path d="M8.67956 7.18007C9.39416 7.18007 9.9755 6.59873 9.9755 5.88413C9.9755 5.16954 9.39375 4.5882 8.67956 4.5882C7.96538 4.5882 7.38403 5.16954 7.38403 5.88413C7.38403 6.59873 7.96538 7.18007 8.67956 7.18007ZM8.67956 5.4007C8.94606 5.4007 9.163 5.61763 9.163 5.88413C9.163 6.15063 8.94606 6.36757 8.67956 6.36757C8.41306 6.36757 8.19653 6.15063 8.19653 5.88413C8.19653 5.61763 8.41306 5.4007 8.67956 5.4007Z" fill="#242424"/>
<path d="M18.1208 9.73537C18.9098 5.78621 19.1767 1.87037 19.1795 1.82975C19.1872 1.71275 19.1438 1.59818 19.0609 1.51531C18.978 1.43243 18.8687 1.39059 18.746 1.3975C18.733 1.39831 17.3981 1.49175 15.5277 1.71518C15.4189 1.72818 15.3197 1.78506 15.2531 1.8724C15.1865 1.95975 15.158 2.07025 15.1743 2.17871C15.1869 2.2624 15.1946 2.34568 15.1946 2.43181C15.1946 3.47181 14.3516 4.31762 13.3149 4.31762C12.3955 4.31762 11.6151 3.66071 11.4595 2.75518C11.4409 2.64753 11.3799 2.55165 11.2901 2.4895C11.2 2.42775 11.0895 2.40459 10.9814 2.42531C6.9518 3.21018 4.27014 4.24775 3.01199 5.50915C1.40039 7.11709 0.512735 9.25721 0.512329 11.5342C0.512329 13.6764 1.30492 15.6918 2.73817 17.2644L0.948642 19.0539C0.789798 19.2128 0.789798 19.4695 0.948642 19.6284C1.02786 19.7076 1.13186 19.7474 1.23586 19.7474C1.33986 19.7474 1.44386 19.7076 1.52308 19.6284L3.31342 17.838C4.89617 19.2749 6.94814 20.0594 9.04927 20.0594C9.67489 20.0594 10.3046 19.9859 10.927 19.8449C11.297 20.8081 11.8491 21.6779 12.5934 22.4226C14.0445 23.8733 15.9506 24.5988 17.8568 24.5988C19.7629 24.5988 21.669 23.8733 23.1201 22.4226C24.5262 21.0165 25.3001 19.1474 25.3001 17.1592C25.3001 15.171 24.5262 13.3014 23.1201 11.8954C21.7909 10.5666 19.9961 9.802 18.1216 9.73456L18.1208 9.73537ZM1.32442 11.5351C1.32442 9.47496 2.12799 7.53959 3.58602 6.0844C4.67517 4.99281 7.15127 4.03203 10.7604 3.29834C11.124 4.3814 12.14 5.13093 13.3145 5.13093C14.7839 5.13093 15.9819 3.94509 16.0063 2.47812C17.0248 2.36112 17.849 2.28596 18.3325 2.24575C18.2354 3.41453 17.9335 6.58734 17.2909 9.74349C17.2218 9.74878 17.154 9.76096 17.0853 9.76787C16.9825 9.77843 16.8801 9.78981 16.7782 9.80443C16.6539 9.82231 16.5308 9.84506 16.4081 9.86903C16.3081 9.88853 16.2082 9.90843 16.1091 9.932C15.9868 9.96125 15.8661 9.99578 15.7459 10.0315C15.6496 10.06 15.5529 10.0872 15.4579 10.1197C15.3376 10.1603 15.2202 10.207 15.102 10.2542C15.0102 10.2907 14.918 10.3252 14.8278 10.3655C14.7095 10.4179 14.5946 10.4772 14.4796 10.5361C14.3939 10.5796 14.307 10.6206 14.2229 10.6677C14.105 10.7335 13.9917 10.8067 13.8775 10.879C13.8004 10.9277 13.722 10.9732 13.6464 11.0248C13.5229 11.1093 13.4047 11.2023 13.286 11.295C13.2251 11.3425 13.1613 11.386 13.102 11.4355C12.9265 11.5814 12.7563 11.7349 12.593 11.8978C12.4711 12.0197 12.3545 12.1452 12.242 12.274C12.2038 12.3179 12.1693 12.3638 12.1323 12.4081C12.0608 12.4942 11.9885 12.5799 11.921 12.6685C11.8792 12.7237 11.841 12.7806 11.8004 12.8367C11.7427 12.9175 11.6838 12.9976 11.6294 13.08C11.5891 13.1414 11.5522 13.2043 11.5136 13.2665C11.4644 13.3465 11.4145 13.4257 11.3681 13.5074C11.3308 13.5732 11.2966 13.6402 11.2617 13.7069C11.2195 13.7869 11.1772 13.8669 11.1378 13.9482C11.1045 14.0177 11.0736 14.0883 11.0427 14.159C11.007 14.2395 10.9716 14.3199 10.9387 14.4016C10.9144 14.4629 10.8912 14.5247 10.8685 14.5864H6.56667L8.65439 12.4987L11.4031 12.5864H11.4165C11.6346 12.5864 11.815 12.413 11.8219 12.1932C11.8296 11.9689 11.6533 11.7812 11.4291 11.7743L9.4417 11.711L11.8532 9.29946C12.012 9.14062 12.012 8.88387 11.8532 8.72503C11.6944 8.56618 11.4376 8.56618 11.2788 8.72503L8.86727 11.1365L8.80389 9.14915C8.79699 8.9249 8.60727 8.74331 8.38505 8.7559C8.1608 8.76321 7.9853 8.9505 7.9922 9.17475L8.07955 11.9238L5.99183 14.0116V9.52046C5.99183 9.29621 5.81024 9.11421 5.58558 9.11421C5.36092 9.11421 5.17933 9.29621 5.17933 9.52046V14.8241L3.3118 16.6916C2.0313 15.2726 1.32361 13.4611 1.32402 11.5363L1.32442 11.5351ZM3.88217 17.2697L5.75417 15.3977H10.6182C10.604 15.4558 10.5926 15.5139 10.58 15.5724C10.5621 15.6544 10.5455 15.7369 10.5305 15.8194C10.5158 15.899 10.5028 15.9786 10.491 16.0587C10.4789 16.1415 10.4679 16.2244 10.4585 16.3073C10.4492 16.3877 10.4411 16.4686 10.4346 16.5494C10.4277 16.6331 10.4232 16.7172 10.4191 16.8013C10.4155 16.8821 10.4122 16.963 10.411 17.0442C10.4098 17.1291 10.411 17.2136 10.413 17.2985C10.4147 17.3794 10.4163 17.4602 10.4208 17.5415C10.4252 17.628 10.433 17.7145 10.4407 17.8011C10.4476 17.8803 10.4545 17.9595 10.4638 18.0387C10.4748 18.1281 10.489 18.2175 10.5032 18.3064C10.5154 18.3828 10.5264 18.4592 10.541 18.5356C10.5589 18.6294 10.5808 18.7224 10.6024 18.8159C10.619 18.8874 10.6336 18.9589 10.6523 19.03C10.6564 19.045 10.6588 19.0604 10.6629 19.0755C8.24814 19.5942 5.7172 18.9178 3.88217 17.2685V17.2697ZM22.5449 21.8493C19.9591 24.4343 15.752 24.4343 13.167 21.8493C12.4236 21.1055 11.8829 20.2288 11.5603 19.2424C10.7681 16.8492 11.3836 14.2549 13.1666 12.4715C13.3161 12.3224 13.4717 12.181 13.633 12.0482C14.7611 11.1166 16.1615 10.5852 17.639 10.5381C17.717 10.5353 17.7946 10.5341 17.8722 10.5341C19.639 10.5341 21.2904 11.217 22.5449 12.4711C23.7974 13.7235 24.4868 15.3887 24.4868 17.16C24.4868 18.9312 23.7974 20.5969 22.5449 21.8493Z" fill="#242424"/>
<path d="M21.5454 16.6822C21.4134 16.5969 21.2444 16.5941 21.1115 16.677L20.5204 17.0401V16.603L21.1774 15.9457H22.0098C22.2344 15.9457 22.416 15.7641 22.416 15.5395C22.416 15.3148 22.2344 15.1332 22.0098 15.1332H21.0092C20.9011 15.1332 20.7979 15.1759 20.7219 15.2522L20.2682 15.7064C20.1491 15.5167 19.9935 15.3489 19.8022 15.2181C19.8018 15.2181 19.801 15.2177 19.8006 15.2173C19.8006 15.2173 19.8002 15.2169 19.7998 15.2165C19.647 15.1141 19.4796 15.0418 19.3045 14.9955C19.3049 14.9805 19.3086 14.9666 19.3086 14.9512C19.3086 14.7172 19.2481 14.4991 19.1493 14.3028L19.2566 14.1956C19.4471 14.0051 19.5564 13.741 19.5564 13.4712V12.5499C19.5564 12.3256 19.3748 12.1436 19.1502 12.1436C18.9255 12.1436 18.7439 12.3256 18.7439 12.5499V13.4712C18.7439 13.5273 18.7212 13.5817 18.6822 13.6211L18.5964 13.7069C18.3795 13.5773 18.1293 13.4981 17.8591 13.4981C17.5869 13.4981 17.3346 13.5781 17.1165 13.7097L17.0279 13.6211C16.9885 13.5817 16.9662 13.5277 16.9662 13.4716V12.5503C16.9662 12.326 16.7846 12.144 16.5599 12.144C16.3353 12.144 16.1537 12.326 16.1537 12.5503V13.4716C16.1537 13.7418 16.2633 14.0059 16.4539 14.196L16.5656 14.3077C16.4685 14.5027 16.4088 14.7192 16.4088 14.9512C16.4088 14.9662 16.4124 14.9801 16.4128 14.9951C16.2402 15.0406 16.0744 15.1109 15.9221 15.2108C15.9176 15.2136 15.9128 15.2149 15.9083 15.2181C15.7173 15.3489 15.5613 15.5167 15.4423 15.7064L14.9881 15.2522C14.9118 15.1759 14.809 15.1332 14.7009 15.1332H13.7003C13.4757 15.1332 13.2941 15.3148 13.2941 15.5395C13.2941 15.7641 13.4757 15.9457 13.7003 15.9457H14.5327L15.19 16.603V17.0401L14.5989 16.677C14.4661 16.5941 14.2975 16.5969 14.1651 16.6822L13.2766 17.2591C13.0885 17.3814 13.0349 17.6329 13.1572 17.8214C13.2794 18.0095 13.5301 18.0635 13.7194 17.9408L14.3922 17.5037L15.19 17.994V18.5746L14.5778 18.4218C14.4283 18.3836 14.267 18.436 14.1671 18.5559L13.3879 19.4915C13.2441 19.6637 13.2677 19.9201 13.4403 20.0635C13.5163 20.1264 13.6081 20.1573 13.6999 20.1573C13.8165 20.1573 13.9319 20.1073 14.0127 20.0111L14.6286 19.2717L15.1904 19.4118V19.5837C15.1904 20.4843 15.9233 21.2172 16.824 21.2172H18.8865C19.7872 21.2172 20.52 20.4843 20.52 19.5837V19.4118L21.0815 19.2717L21.6973 20.0111C21.7778 20.1077 21.8932 20.1573 22.0102 20.1573C22.102 20.1573 22.1938 20.1264 22.2698 20.0635C22.4424 19.9196 22.4656 19.6637 22.3222 19.4915L21.543 18.5559C21.4434 18.436 21.283 18.384 21.1323 18.4218L20.5204 18.5746V17.994L21.3183 17.5037L21.9911 17.9408C22.18 18.0635 22.431 18.0095 22.5533 17.8214C22.6756 17.6329 22.622 17.3814 22.4339 17.2591L21.5454 16.6822ZM18.8869 15.7507C18.9389 15.7507 18.9901 15.7568 19.0405 15.7666C18.8841 16.0318 18.6241 16.2382 18.3104 16.341C18.308 16.3418 18.3056 16.3426 18.3031 16.3434C18.2373 16.3646 18.1691 16.3804 18.0996 16.3922C18.0927 16.3934 18.0862 16.395 18.0793 16.3962C18.0066 16.4076 17.9318 16.4137 17.8563 16.4137C17.7852 16.4137 17.7149 16.4072 17.6462 16.3971C17.6243 16.3938 17.6032 16.3889 17.5812 16.3845C17.5333 16.3751 17.4858 16.3641 17.4394 16.3507C17.4163 16.3438 17.3935 16.3365 17.3708 16.3284C17.3261 16.3126 17.2826 16.2943 17.24 16.2744C17.2205 16.2654 17.2006 16.2569 17.1815 16.2471C17.125 16.2175 17.0706 16.185 17.0194 16.1484C17.0165 16.1464 17.0133 16.1448 17.0104 16.1427C16.9572 16.1041 16.9081 16.0611 16.8622 16.0156C16.8475 16.0014 16.8345 15.9855 16.8207 15.9705C16.7903 15.9376 16.7614 15.9035 16.735 15.8673C16.7212 15.8486 16.7082 15.8299 16.696 15.8104C16.6871 15.7966 16.6798 15.7812 16.6712 15.767C16.724 15.7564 16.7777 15.7507 16.8321 15.7507H18.8869ZM18.4965 14.9382H17.2217C17.229 14.5913 17.5122 14.311 17.8591 14.311C18.206 14.311 18.4896 14.5909 18.4965 14.9382ZM16.0111 19.5833V16.5717C16.0111 16.4856 16.0249 16.4007 16.0509 16.3207C16.0992 16.3885 16.152 16.4539 16.2085 16.5157C16.215 16.523 16.2231 16.5295 16.2296 16.5368C16.2479 16.5563 16.2682 16.5742 16.2873 16.5933C16.343 16.6485 16.4011 16.7005 16.4628 16.7493C16.4884 16.7696 16.514 16.7895 16.5408 16.8086C16.6119 16.8598 16.6863 16.9065 16.7643 16.9491C16.7793 16.9573 16.7935 16.9674 16.8089 16.9751C16.902 17.0231 16.9999 17.0633 17.1006 17.0982C17.1287 17.108 17.1575 17.1153 17.1863 17.1242C17.2648 17.1478 17.3448 17.1673 17.4268 17.1827C17.4358 17.1844 17.4439 17.1876 17.4533 17.1892V20.4043H16.8321C16.3795 20.4043 16.0111 20.0362 16.0111 19.5833ZM18.2658 20.4043V17.1892C18.2743 17.1876 18.282 17.1848 18.2905 17.1831C18.3738 17.1677 18.4551 17.1478 18.5347 17.1238C18.5619 17.1157 18.5895 17.1084 18.6163 17.0995C18.7183 17.0645 18.8174 17.0235 18.9121 16.9747C18.9231 16.9691 18.9332 16.9617 18.9442 16.9561C19.0271 16.9114 19.1063 16.8614 19.1818 16.807C19.2054 16.7899 19.2282 16.7724 19.2509 16.7541C19.3171 16.7021 19.3797 16.6469 19.4386 16.5876C19.4544 16.5717 19.4711 16.5571 19.4865 16.5409C19.5495 16.4734 19.6088 16.4027 19.662 16.3272C19.6864 16.4056 19.7006 16.4876 19.7006 16.5717V19.5833C19.7006 20.0358 19.3326 20.4043 18.8796 20.4043H18.2658Z" fill="#242424"/>
</svg>
