<svg width="10" height="17" viewBox="0 0 10 17" fill="none" xmlns="http://www.w3.org/2000/svg">
<g clip-path="url(#clip0_95_239)">
<path d="M3.033 3.40841L3.04064 3.80268C1.81869 3.60321 1.22334 4.33372 1.06218 5.40515C0.501566 5.61063 0.0937867 5.83945 0.00139332 6.45456L-0.000691414 15.9619C0.117405 16.4336 0.473084 16.8726 0.996183 16.9393C2.4189 17.1201 4.23411 16.8292 5.69782 16.9293C6.16048 16.8546 6.61966 16.3696 6.65231 15.9112L6.64815 6.3745C6.53074 5.99356 6.34735 5.73271 5.9743 5.55392C5.87565 5.50655 5.65822 5.48921 5.62418 5.45652C5.59709 5.43117 5.47343 4.89746 5.41438 4.75736C5.05245 3.90342 4.54464 3.71529 3.595 3.80268L3.60264 3.40841C3.94373 3.37905 4.30011 3.09885 4.35638 2.76462C4.39945 2.5111 4.39181 1.50506 4.28135 1.30892C3.91039 0.653127 2.52519 0.690487 2.30844 1.46503C2.2355 1.72522 2.24036 2.66321 2.3404 2.90605C2.44043 3.14889 2.76555 3.4004 3.033 3.40841ZM3.80271 2.40303C4.01181 2.90205 3.14415 3.00345 2.93436 2.80264C2.79333 2.66788 2.78847 1.77392 2.86767 1.60113C3.033 1.24221 3.9875 1.32093 3.80202 1.86465C3.23585 1.82862 3.24071 2.44106 3.80202 2.40236L3.80271 2.40303ZM5.70059 6.01691C5.89997 6.14033 6.08962 6.32847 6.09795 6.5693L6.09934 15.7131C6.08684 16.1467 5.88538 16.3662 5.43661 16.4109L1.02328 16.3796C0.68149 16.2842 0.580066 16.028 0.538385 15.7111C0.732203 12.797 0.282741 9.57943 0.536301 6.7014C0.569646 6.32246 0.700246 6.05027 1.12817 6.00224L5.70059 6.01691Z" fill="#FCD462"/>
<path d="M9.09275 0.524938C9.19765 0.673709 9.8715 0.610331 9.90206 0.288771C9.95625 -0.283633 8.79265 0.100638 9.09275 0.524938Z" fill="#FCD462"/>
<path d="M9.90067 1.94994C9.75687 1.81385 9.24003 1.80718 9.16639 2.04735C8.96424 2.70248 10.38 2.40427 9.90067 1.94994Z" fill="#FCD462"/>
<path d="M9.37686 3.68124C9.34143 3.67857 9.3067 3.66723 9.27127 3.67924C8.58839 4.1896 9.89857 4.61857 9.88676 3.93809C9.8166 3.79666 9.53386 3.69325 9.37686 3.68191V3.68124Z" fill="#FCD462"/>
<path d="M8.30289 1.95013C8.16881 1.82604 7.68809 1.8127 7.58875 2.00017C7.39424 2.36776 7.91109 2.4745 8.20494 2.39044C8.36888 2.33841 8.42446 2.06221 8.30289 1.95013Z" fill="#FCD462"/>
<path d="M8.13199 0.412309C7.90274 0.346263 7.45814 0.475687 7.51719 0.739206C7.66099 1.38366 8.80305 0.604445 8.13199 0.412309Z" fill="#FCD462"/>
<path d="M8.23273 3.85271C8.28761 3.79868 8.32999 3.65658 8.31054 3.58119C8.20981 3.3657 7.76938 3.22961 7.58945 3.4004C7.2435 3.72929 8.02641 4.05552 8.23273 3.85205V3.85271Z" fill="#FCD462"/>
<path d="M6.60022 3.01614C5.94999 2.91807 6.11811 3.6726 6.74402 3.59188C7.06913 3.38173 7.00661 3.07751 6.60022 3.01614Z" fill="#FCD462"/>
<path d="M6.91351 1.94995C6.76276 1.86323 6.53421 1.82386 6.37443 1.90059C5.77422 2.55371 7.25043 2.63444 6.91351 1.94995Z" fill="#FCD462"/>
<path d="M6.81695 0.742619C6.21674 0.549816 5.89718 1.27366 6.5488 1.27366C6.99687 1.27366 7.04411 0.816004 6.81695 0.742619Z" fill="#FCD462"/>
<path d="M5.74017 1.45837L5.70891 1.06009C4.77595 0.767883 4.84403 1.91402 5.74017 1.45837Z" fill="#FCD462"/>
<path d="M5.56166 1.8801C4.83154 1.66928 4.9156 2.70801 5.71866 2.33909C5.79855 2.17497 5.75548 1.93614 5.56166 1.8801Z" fill="#FCD462"/>
<path d="M5.49011 2.74737C4.93645 2.63996 4.85447 3.31977 5.50748 3.27374C5.88886 3.24705 5.83051 2.81341 5.49011 2.74737Z" fill="#FCD462"/>
<path d="M3.75408 7.21922C2.73358 7.01574 1.91108 7.59615 1.7902 8.57284C1.94095 10.2433 1.57832 12.2634 1.80757 13.8926C2.05349 15.6405 4.56825 15.6432 4.84682 13.9099C4.70024 12.176 5.0448 10.1439 4.83918 8.44608C4.77804 7.93972 4.2869 7.32529 3.75477 7.21922H3.75408Z" fill="#FCD462"/>
</g>
<defs>
<clipPath id="clip0_95_239">
<rect width="10" height="17" fill="white" transform="matrix(-1 0 0 1 10 0)"/>
</clipPath>
</defs>
</svg>
