<svg width="22" height="25" viewBox="0 0 22 25" fill="none" xmlns="http://www.w3.org/2000/svg">
<path d="M16.9025 0.000816575C16.3106 0.00110115 15.7258 0.12815 15.1872 0.373412C14.6486 0.618675 14.1688 0.97646 13.78 1.42269H3.36783C3.34549 1.42269 3.31258 1.42635 3.28455 1.42757C3.27318 1.42757 3.26343 1.42107 3.25205 1.42107C3.23059 1.42356 3.20939 1.42791 3.18868 1.43407C2.32756 1.47417 1.5152 1.84524 0.921079 2.46986C0.326963 3.09449 -0.003007 3.9244 2.06523e-05 4.78644V21.6418V21.6519C0.00324259 22.3752 0.292763 23.0679 0.805268 23.5783C1.31777 24.0888 2.01156 24.3755 2.7349 24.3758H16.4661C16.5428 24.3759 16.6179 24.3543 16.6828 24.3135C16.7477 24.2727 16.7997 24.2143 16.8329 24.1452C16.866 24.0761 16.8789 23.999 16.8701 23.9228C16.8613 23.8467 16.8311 23.7746 16.783 23.7148C16.314 23.1261 16.0586 22.3957 16.0586 21.643C16.0586 20.8903 16.314 20.1598 16.783 19.5711C16.8371 19.5019 16.8673 19.4171 16.8691 19.3294C16.8691 19.3245 16.872 19.32 16.872 19.3152V8.31269H16.9029C17.4555 8.32359 18.0048 8.22415 18.5186 8.02018C19.0324 7.81621 19.5003 7.5118 19.8951 7.12479C20.2898 6.73777 20.6033 6.27591 20.8173 5.76625C21.0314 5.25658 21.1416 4.70934 21.1416 4.15655C21.1416 3.60376 21.0313 3.05653 20.8172 2.54688C20.6031 2.03723 20.2895 1.57541 19.8948 1.18843C19.5 0.80145 19.0321 0.497094 18.5183 0.293173C18.0045 0.0892514 17.4551 -0.0101396 16.9025 0.000816575ZM2.84621 2.29491V18.9105H2.7353C2.01461 18.91 1.32313 19.1953 0.812521 19.7039V4.78644C0.81059 4.19996 1.01223 3.63099 1.38304 3.17661C1.75385 2.72223 2.27085 2.4106 2.8458 2.29491H2.84621ZM2.7349 23.5633C2.23027 23.556 1.74879 23.3504 1.39453 22.9909C1.04027 22.6315 0.841676 22.147 0.841676 21.6424C0.841676 21.1377 1.04027 20.6533 1.39453 20.2938C1.74879 19.9344 2.23027 19.7287 2.7349 19.7214H15.7162C15.6214 19.9068 15.5407 20.0991 15.4749 20.2967H7.68627C7.57853 20.2967 7.47519 20.3395 7.39901 20.4156C7.32282 20.4918 7.28002 20.5952 7.28002 20.7029C7.28002 20.8107 7.32282 20.914 7.39901 20.9902C7.47519 21.0664 7.57853 21.1092 7.68627 21.1092H15.2831C15.2549 21.3382 15.2458 21.5692 15.2559 21.7998H2.37374C2.266 21.7998 2.16266 21.8426 2.08648 21.9188C2.01029 21.995 1.96749 22.0983 1.96749 22.206C1.96749 22.3138 2.01029 22.4171 2.08648 22.4933C2.16266 22.5695 2.266 22.6123 2.37374 22.6123H15.3611C15.4395 22.9428 15.5588 23.2623 15.7162 23.5633H2.7349ZM16.0599 18.9089H3.6583V2.23519H13.2202C12.9217 2.80464 12.7595 3.43565 12.7465 4.07848C12.7335 4.72131 12.87 5.35837 13.1453 5.93942C13.4205 6.52048 13.827 7.02964 14.3327 7.42676C14.8383 7.82388 15.4293 8.0981 16.0591 8.22779L16.0599 18.9089ZM16.9033 7.50182C16.2419 7.50182 15.5953 7.30569 15.0453 6.93824C14.4954 6.57078 14.0668 6.04851 13.8136 5.43745C13.5605 4.82639 13.4942 4.154 13.6233 3.50529C13.7523 2.85658 14.0707 2.26069 14.5384 1.79297C15.006 1.32525 15.6019 1.00671 16.2506 0.877625C16.8993 0.74854 17.5717 0.81471 18.1828 1.06777C18.7939 1.32082 19.3162 1.7494 19.6837 2.29931C20.0512 2.84921 20.2474 3.49575 20.2475 4.15716C20.2466 5.04399 19.8938 5.89422 19.2667 6.52126C18.6396 7.14831 17.7893 7.50096 16.9025 7.50182H16.9033Z" fill="black"/>
</svg>
