<svg width="14" height="14" viewBox="0 0 14 14" fill="none" xmlns="http://www.w3.org/2000/svg">
<path d="M11.7846 4.37159C11.2814 4.34597 10.8871 3.93023 10.8871 3.42539C10.8871 2.99211 11.1798 2.6148 11.5991 2.50787C11.898 2.43149 12.0817 2.13017 12.0021 1.83261C11.9208 1.52547 11.8225 1.21109 11.7102 0.897826C11.373 -0.043641 10.1691 -0.307146 9.46282 0.408018C9.0688 0.80677 8.61936 1.08606 8.08862 1.26205C7.8756 1.33278 7.72719 1.52686 7.71048 1.75659C7.68096 2.16147 7.33957 2.47863 6.93302 2.47863C6.5947 2.47863 6.29675 2.26283 6.19177 1.94121C6.11436 1.7048 5.88908 1.54385 5.64293 1.55332C5.05371 1.57281 4.47647 1.60038 3.89588 1.71956C3.6255 1.77497 3.43475 2.02391 3.45174 2.29819C3.46316 2.48058 3.39661 2.66297 3.26907 2.79886C3.02681 3.05604 2.635 3.07353 2.37049 2.8643C2.14884 2.68943 1.83056 2.7053 1.63007 2.90133C1.48443 3.04362 1.34186 3.20123 1.20653 3.36998C0.944365 3.6968 1.12714 4.1831 1.53818 4.26411C1.99485 4.35377 2.33123 4.75586 2.33846 5.2195C2.34999 5.97824 1.54931 6.45256 0.896331 6.1139C0.508216 5.9135 0.0632399 6.22172 0.0885239 6.64548C0.141431 7.53209 0.436596 8.39587 0.914709 9.15272C0.583065 9.61858 0.285672 10.1092 0.0244785 10.6219C-0.0331623 10.7352 0.0151502 10.87 0.125837 10.9234C0.233044 10.9755 0.36197 10.9335 0.418775 10.8293C1.11517 9.44827 2.22859 8.063 3.51999 7.05977C3.5541 7.03326 3.56936 6.98982 3.56028 6.94758C3.43178 6.34901 3.49176 5.75283 3.69734 5.22476C3.74217 5.11031 3.8711 5.05351 3.98582 5.09806C4.10055 5.14289 4.15707 5.2721 4.11252 5.38654C3.96483 5.76681 3.91351 6.16238 3.94882 6.54657C3.9565 6.63016 4.05123 6.6745 4.12127 6.62824C4.85999 6.14027 5.53338 5.83018 6.28216 5.57094C6.32949 5.55456 6.36049 5.50834 6.35656 5.45841C6.31655 4.94883 6.40613 4.43422 6.63143 3.96167C6.68433 3.85057 6.81716 3.80351 6.92826 3.85642C7.03937 3.90932 7.08643 4.04215 7.03352 4.15325C6.87535 4.48478 6.79424 4.84511 6.79262 5.21404C6.79226 5.29487 6.87516 5.34956 6.94912 5.31696C7.85547 4.91759 8.65779 4.17096 9.22303 3.3482C9.29265 3.24684 9.43132 3.22122 9.53268 3.29084C9.63404 3.36045 9.65993 3.49913 9.59004 3.60048C9.12254 4.28109 8.5666 4.83135 7.97003 5.24935C7.90005 5.29838 7.90816 5.405 7.98554 5.44123C8.26464 5.57183 8.56003 5.6437 8.86602 5.65525C8.9891 5.65971 9.08517 5.76302 9.08044 5.8861C9.07631 5.99748 8.98949 6.10324 8.84987 6.10051C8.3347 6.0904 7.8553 5.92012 7.43338 5.64083C7.40025 5.61889 7.35809 5.6168 7.32242 5.6344C6.62925 5.97648 6.06733 6.04668 5.09849 6.56414C4.28572 6.99804 3.65877 7.49394 3.21101 7.90211C3.16192 7.94685 3.16281 8.0244 3.21288 8.06804C3.79032 8.5713 4.57487 8.68335 5.2493 8.4035C5.36057 8.35733 5.49309 8.40227 5.54419 8.51137C5.59812 8.62657 5.54485 8.76249 5.42874 8.81127C5.32746 8.85385 5.18489 8.90453 5.01047 8.94229C4.93918 8.95771 4.90092 9.03576 4.93358 9.10098C5.11622 9.46559 5.48983 9.66057 5.8626 9.64637C5.98512 9.64136 6.08899 9.73742 6.09372 9.8605C6.09846 9.9833 6.00267 10.0869 5.87987 10.0916C5.23986 10.1158 4.64435 9.72175 4.44352 9.07091C4.42994 9.02688 4.39065 8.99608 4.34464 8.99327C3.808 8.96044 3.29249 8.74271 2.88135 8.36902C2.83691 8.32862 2.76846 8.33054 2.72666 8.3737C2.28311 8.83168 1.89382 9.29481 1.52818 9.83057C1.49922 9.87298 1.50304 9.9302 1.5377 9.96807C3.03464 11.6018 5.28146 12.2128 7.51578 11.3542C7.55465 11.3011 7.60052 11.246 7.65106 11.1923C7.70441 11.1357 7.68586 11.0439 7.61438 11.0131C7.48326 10.9566 7.35778 10.8893 7.22785 10.8017C6.7721 10.4949 6.86633 9.80612 7.36951 9.62078C7.4338 9.59711 7.45895 9.51986 7.42461 9.46058C6.78887 8.3629 7.89635 7.79145 8.39791 8.34433C8.436 8.38632 8.50052 8.39033 8.54574 8.35613C8.61733 8.30197 8.69572 8.25628 8.77937 8.22052C8.811 8.20702 8.83461 8.17934 8.84263 8.14587C8.88741 7.95849 8.9649 7.7839 9.06857 7.62816C9.09127 7.59405 9.09194 7.55044 9.07297 7.51413C8.73612 6.86894 9.59013 6.08352 10.292 6.87042C10.3131 6.89414 10.3439 6.90734 10.3757 6.90656C10.401 6.90595 10.4264 6.90595 10.4517 6.90656C10.4835 6.90731 10.5143 6.89411 10.5355 6.87039C10.9852 6.36669 11.5061 6.50842 11.7232 6.85274C11.7733 6.93218 11.8927 6.91943 11.9233 6.83065C12.1269 6.24066 12.258 5.61783 12.3108 4.9739C12.3365 4.6633 12.1017 4.38791 11.7846 4.37159ZM5.51289 3.81523C5.51289 4.06083 5.31295 4.26076 5.06735 4.26076C4.82175 4.26076 4.62182 4.06083 4.62182 3.81523C4.62182 3.56963 4.82175 3.3697 5.06735 3.3697C5.31295 3.3697 5.51289 3.56963 5.51289 3.81523ZM5.06735 4.7063C4.57588 4.7063 4.17629 4.30643 4.17629 3.81523C4.17629 3.32403 4.57588 2.92417 5.06735 2.92417C5.55883 2.92417 5.95842 3.32403 5.95842 3.81523C5.95842 4.30643 5.55883 4.7063 5.06735 4.7063ZM6.96087 7.96426C6.71527 7.96426 6.51534 7.76432 6.51534 7.51872C6.51534 7.27312 6.71527 7.07319 6.96087 7.07319C7.20647 7.07319 7.4064 7.27312 7.4064 7.51872C7.4064 7.76432 7.20647 7.96426 6.96087 7.96426Z" fill="#FFA556"/>
<path d="M8.10282 10.5799C8.10282 10.6458 8.03874 10.6923 7.97595 10.6725C7.80024 10.6172 7.63205 10.5367 7.47712 10.4322C7.3752 10.3637 7.34819 10.225 7.41697 10.1231C7.48547 10.0212 7.62415 9.99419 7.72606 10.063C7.82464 10.1292 7.93009 10.1831 8.03994 10.2235C8.07787 10.2375 8.10282 10.2738 8.10282 10.3142V10.5799Z" fill="#FFA556"/>
<path d="M12.2797 9.2452V11.1939C12.2797 12.2176 11.4669 13.0719 10.4433 13.0877C9.40131 13.1038 8.54834 12.2606 8.54834 11.2223V9.2452C8.54834 8.87611 8.84754 8.5769 9.21664 8.5769H9.96848C10.0915 8.5769 10.1912 8.67665 10.1912 8.79967V11.7438C10.1912 11.8624 10.2809 11.966 10.3993 11.9736C10.529 11.9819 10.6368 11.8793 10.6368 11.7513V8.79967C10.6368 8.67665 10.7365 8.5769 10.8595 8.5769H11.6114C11.9805 8.5769 12.2797 8.87611 12.2797 9.2452Z" fill="#FFA556"/>
<path d="M8.18705 11.9509C8.07208 12.137 8.04924 12.3225 8.04715 12.4245C8.04451 12.5399 7.95301 12.6438 7.81938 12.6423C7.69627 12.6409 7.59884 12.5376 7.60162 12.4145C7.6088 12.093 7.73046 11.7658 7.96153 11.5133C8.01599 11.4537 8.11641 11.4846 8.12824 11.5644C8.17257 11.8627 8.22603 11.8877 8.18705 11.9509Z" fill="#FFA556"/>
<path d="M7.6864 8.82375C7.67303 8.70151 7.7613 8.59151 7.88355 8.57815C8.00579 8.56395 8.11578 8.65305 8.12914 8.7753C8.14109 8.88133 8.16089 8.88668 8.14752 8.93224C8.09701 9.10416 8.10269 9.22584 8.10269 9.35251C8.10269 9.44165 7.98989 9.48731 7.92977 9.41324C7.7588 9.20304 7.7031 8.97662 7.6864 8.82375Z" fill="#FFA556"/>
<path d="M13.3508 10.4322C13.2013 10.5331 13.0396 10.6114 12.8706 10.6666C12.7988 10.69 12.7251 10.6359 12.7251 10.5604V10.3241C12.7251 10.2777 12.7538 10.2364 12.7972 10.2201C12.9038 10.18 13.0061 10.1274 13.1019 10.063C13.2038 9.99419 13.3424 10.0212 13.4109 10.1231C13.4797 10.225 13.4527 10.3637 13.3508 10.4322Z" fill="#FFA556"/>
<path d="M12.6818 8.93619C12.6674 8.88691 12.6874 8.87761 12.6989 8.77525C12.7123 8.653 12.822 8.56417 12.9445 8.5781C13.0668 8.59146 13.155 8.70145 13.1417 8.8237C13.1196 9.02547 13.0467 9.21579 12.9268 9.37655C12.8623 9.46306 12.725 9.4169 12.7258 9.30897C12.7266 9.18628 12.7217 9.07311 12.6818 8.93619Z" fill="#FFA556"/>
<path d="M13.2264 12.4146C13.2292 12.5385 13.1299 12.6424 13.0036 12.6424C12.8828 12.6424 12.7837 12.546 12.7809 12.4246C12.7788 12.3236 12.7564 12.1407 12.6443 11.9564C12.6029 11.8884 12.6507 11.8688 12.6952 11.5944C12.7102 11.5016 12.8268 11.4672 12.8885 11.5381C13.0976 11.7784 13.2192 12.0903 13.2264 12.4146Z" fill="#FFA556"/>
<path d="M11.2468 8.13128H9.58101C9.44818 8.13128 9.36723 7.98298 9.44114 7.8726C9.51384 7.764 9.60434 7.66818 9.70832 7.5894C9.67206 7.50537 9.61445 7.43898 9.54737 7.39588C9.44434 7.32849 9.41538 7.19037 9.48277 7.08735C9.55015 6.98432 9.68827 6.95563 9.7913 7.02302C9.92579 7.11054 10.0365 7.23646 10.1082 7.39226C10.3043 7.33902 10.5164 7.33707 10.7197 7.39226C10.7913 7.23657 10.902 7.1106 11.0366 7.02302C11.1396 6.95563 11.2777 6.98432 11.3451 7.08735C11.4125 7.19037 11.3835 7.32849 11.2805 7.39588C11.2134 7.43898 11.1558 7.50534 11.1195 7.5894C11.2235 7.66818 11.314 7.764 11.3867 7.8726C11.4606 7.98298 11.3797 8.13128 11.2468 8.13128Z" fill="#FFA556"/>
</svg>
