<svg width="26" height="26" viewBox="0 0 26 26" fill="none" xmlns="http://www.w3.org/2000/svg">
<path d="M5.98218 18.9567H12.491C12.7014 18.9567 12.8719 18.7862 12.8719 18.5758C12.8719 18.3654 12.7014 18.195 12.491 18.195H5.98218C5.77184 18.195 5.60132 18.3654 5.60132 18.5758C5.60132 18.7862 5.77184 18.9567 5.98218 18.9567Z" fill="black"/>
<path d="M18.2147 18.9567C18.4251 18.9567 18.5956 18.7862 18.5956 18.5758C18.5956 18.3654 18.4251 18.195 18.2147 18.195H15.3096C15.0992 18.195 14.9287 18.3654 14.9287 18.5758C14.9287 18.7862 15.0992 18.9567 15.3096 18.9567H18.2147Z" fill="black"/>
<path d="M5.98218 21.1231H18.2148C18.4252 21.1231 18.5956 20.9526 18.5956 20.7422C18.5956 20.5318 18.4252 20.3614 18.2148 20.3614H5.98218C5.77184 20.3614 5.60132 20.5318 5.60132 20.7422C5.60132 20.9526 5.77184 21.1231 5.98218 21.1231Z" fill="black"/>
<path d="M5.98218 16.7903H10.1747C10.385 16.7903 10.5555 16.6198 10.5555 16.4094C10.5555 16.199 10.385 16.0285 10.1747 16.0285H5.98218C5.77184 16.0285 5.60132 16.199 5.60132 16.4094C5.60132 16.6198 5.77184 16.7903 5.98218 16.7903Z" fill="black"/>
<path d="M24.3807 17.2712L21.5744 14.4708V0.655789C21.5744 0.294176 21.2792 0 20.9164 0H3.93855C3.57658 0 3.28205 0.294176 3.28205 0.655789V2.2038H1.72901C1.36704 2.2038 1.07251 2.49798 1.07251 2.85959V9.41931C1.07251 9.6297 1.24303 9.80017 1.45337 9.80017C1.66371 9.80017 1.83423 9.6297 1.83423 9.41931V2.96552H3.28205V23.1389C3.28205 23.5014 3.57658 23.7961 3.93855 23.7961H11.3927C11.603 23.7961 11.7735 23.6257 11.7735 23.4153C11.7735 23.2049 11.603 23.0344 11.3927 23.0344H4.04377V0.761719H20.8127V13.8841C20.2367 13.627 19.5569 13.6754 19.0195 14.0271L17.544 12.5564C18.606 11.3682 19.1869 9.85263 19.187 8.24764C19.187 6.51468 18.5103 4.88577 17.2816 3.66092C14.7471 1.13308 10.6231 1.13308 8.08885 3.66087C6.86005 4.88577 6.18334 6.51468 6.18334 8.24764C6.18334 9.9805 6.8601 11.6094 8.08875 12.8342C9.35615 14.0983 11.0204 14.7303 12.6852 14.7302C14.231 14.73 15.777 14.1845 17.0046 13.0943L18.4797 14.5646C18.2817 14.8658 18.1752 15.2187 18.1752 15.5889C18.1752 16.0895 18.3695 16.559 18.7222 16.9108L20.8127 18.9958V23.0344H13.2241C13.0138 23.0344 12.8432 23.2049 12.8432 23.4153C12.8432 23.6257 13.0138 23.7961 13.2241 23.7961H18.6031V25.2383H1.83423V11.1783C1.83423 10.9679 1.66371 10.7975 1.45337 10.7975C1.24303 10.7975 1.07251 10.9679 1.07251 11.1783V25.3428C1.07251 25.7052 1.36704 26 1.72901 26H18.7069C19.0696 26 19.3648 25.7052 19.3648 25.3428V23.7962H20.9164C21.2792 23.7962 21.5744 23.5014 21.5744 23.139V19.7556L21.7342 19.915C22.099 20.2789 22.5782 20.4608 23.0574 20.4608C23.5366 20.4608 24.0158 20.2789 24.3806 19.915C24.7334 19.5632 24.9276 19.0937 24.9276 18.5931C24.9276 18.0925 24.7334 17.623 24.3807 17.2712ZM16.7436 12.2949C14.5057 14.5269 10.8645 14.527 8.62653 12.2948C7.54214 11.2139 6.94495 9.77656 6.94495 8.24759C6.94495 6.71861 7.54214 5.28125 8.62653 4.20032L8.62658 4.20027C9.74549 3.0842 11.2153 2.52621 12.685 2.52621C14.1548 2.52621 15.6246 3.08425 16.7436 4.20032C17.828 5.28125 18.4252 6.71861 18.4252 8.24759C18.4252 9.77656 17.828 11.2139 16.7436 12.2949ZM23.8427 19.3757C23.4097 19.8076 22.7051 19.8076 22.2721 19.3757L19.2601 16.3715C19.0517 16.1636 18.9369 15.8857 18.9369 15.5889C18.9369 15.2922 19.0517 15.0142 19.2602 14.8063C19.4769 14.5901 19.7615 14.4821 20.0462 14.4821C20.3308 14.4821 20.6155 14.5902 20.8322 14.8062L23.8427 17.8105C24.0512 18.0184 24.1659 18.2963 24.1659 18.5931C24.1659 18.8899 24.0511 19.1678 23.8427 19.3757Z" fill="black"/>
<path d="M17.2122 6.45827C17.2122 6.45822 17.2121 6.45817 17.2121 6.45811C17.1138 6.31115 16.9737 6.27099 16.8382 6.23219C16.8159 6.22579 16.7908 6.21858 16.7622 6.21C15.7455 5.90638 14.881 5.99072 14.2622 6.4541C13.8508 6.76219 13.3661 7.38584 13.3229 8.61987L12.6858 9.04933L12.0472 8.61926C12.0039 7.38563 11.5193 6.76214 11.108 6.45415C10.4891 5.99072 9.62466 5.90633 8.60756 6.2102C8.57938 6.21863 8.55429 6.22584 8.53195 6.23224C8.39641 6.27109 8.25631 6.31126 8.158 6.45817C8.15795 6.45827 8.15784 6.45837 8.15779 6.45847C8.0605 6.60416 8.07568 6.74813 8.09041 6.88732C8.09284 6.91012 8.09554 6.93571 8.09813 6.96349C8.19359 8.01542 8.59238 8.78364 9.25137 9.18522C9.5136 9.34503 9.88984 9.48737 10.3981 9.48737C10.7432 9.48737 11.1493 9.42151 11.6217 9.25103L12.3049 9.71126V11.1113H11.3754C11.1651 11.1113 10.9945 11.2818 10.9945 11.4922C10.9945 11.7025 11.1651 11.873 11.3754 11.873H13.9948C14.2052 11.873 14.3757 11.7025 14.3757 11.4922C14.3757 11.2818 14.2052 11.1113 13.9948 11.1113H13.0667V9.71111L13.7491 9.25119C14.2212 9.42156 14.6271 9.48732 14.9722 9.48732C15.4803 9.48732 15.8566 9.34493 16.1188 9.18517C16.7779 8.78364 17.1766 8.01537 17.2721 6.96456C17.2748 6.93576 17.2774 6.91012 17.2798 6.88732C17.2945 6.74808 17.3097 6.60406 17.2122 6.45827ZM10.2505 8.32737L10.7892 8.69026C10.3348 8.76876 9.94743 8.71732 9.64777 8.53471C9.09801 8.19966 8.91535 7.48537 8.86005 6.92982C9.39868 6.77377 10.1344 6.67663 10.6514 7.06378C10.9311 7.2732 11.1221 7.61202 11.2178 8.06047L10.676 7.69555C10.5016 7.57815 10.2649 7.62426 10.1474 7.79864C10.0298 7.97317 10.0761 8.20986 10.2505 8.32737ZM15.7224 8.53471C15.4228 8.71727 15.0355 8.76876 14.5812 8.69031L15.1198 8.32727C15.2942 8.20976 15.3403 7.97302 15.2227 7.79864C15.1052 7.62415 14.8684 7.57799 14.6941 7.6957L14.1523 8.06082C14.2479 7.61222 14.4389 7.27331 14.7187 7.06378C15.2359 6.67653 15.9719 6.77382 16.5101 6.92982C16.455 7.48451 16.2725 8.19951 15.7224 8.53471Z" fill="black"/>
</svg>
