<svg width="16" height="16" viewBox="0 0 16 16" fill="none" xmlns="http://www.w3.org/2000/svg">
<path d="M10.6998 1.16666C9.96644 0.533323 8.99977 0.166656 7.99977 0.166656C5.86644 0.166656 4.13311 1.73332 4.13311 3.66666V6.06666C3.19977 6.23332 2.43311 6.23332 2.43311 6.23332H1.93311V6.73332C1.93311 13.3 7.7331 15.7333 7.79977 15.7333L7.99977 15.8L8.19977 15.7333C8.26644 15.7 14.0331 13.2667 14.0331 6.73332V6.23332H13.5331C13.5331 6.23332 12.7998 6.23332 11.8331 6.06666V3.66666C11.8664 2.73332 11.4331 1.83332 10.6998 1.16666ZM7.99977 1.16666C8.76644 1.16666 9.49977 1.43332 10.0331 1.93332C10.5664 2.39999 10.8331 3.03332 10.8331 3.69999V5.89999C10.6998 5.86666 10.5998 5.83332 10.4664 5.79999H10.4331C10.2998 5.76666 10.1664 5.69999 10.0331 5.66666C9.99977 5.66666 9.96644 5.63332 9.89977 5.63332C9.79977 5.59999 9.7331 5.56666 9.6331 5.53332C9.59977 5.49999 9.53311 5.49999 9.49977 5.46666C9.43311 5.43332 9.36644 5.39999 9.26644 5.36666C9.23311 5.33332 9.16644 5.33332 9.1331 5.29999C9.06644 5.26666 8.99977 5.23332 8.9331 5.16666C8.89977 5.13332 8.86644 5.13332 8.83311 5.09999C8.76644 5.06666 8.69977 4.99999 8.6331 4.96666C8.59977 4.93332 8.56644 4.93332 8.56644 4.89999C8.49977 4.83332 8.39977 4.76666 8.33311 4.66666L7.99977 4.13332L7.6331 4.53332C7.5331 4.63332 7.43311 4.73332 7.33311 4.79999C7.29977 4.83332 7.26644 4.86666 7.23311 4.86666C7.16644 4.93332 7.09977 4.96666 6.99977 5.03332C6.96644 5.06666 6.93311 5.09999 6.86644 5.09999C6.79977 5.13332 6.69977 5.19999 6.6331 5.23332C6.59977 5.26666 6.56644 5.26666 6.49977 5.29999C6.39977 5.36666 6.29977 5.39999 6.16644 5.43332C6.13311 5.43332 6.1331 5.46666 6.09977 5.46666C5.96644 5.53332 5.83311 5.56666 5.69977 5.59999C5.66644 5.59999 5.63311 5.63332 5.59977 5.63332C5.49977 5.66666 5.39977 5.69999 5.33311 5.73332C5.29977 5.73332 5.23311 5.76666 5.19977 5.76666C5.16644 5.76666 5.13311 5.79999 5.09977 5.79999V3.66666C5.13311 2.29999 6.43311 1.16666 7.99977 1.16666ZM13.0331 7.23332C12.7998 12.1667 8.93311 14.3 7.99977 14.7333C7.06644 14.3 3.19977 12.1667 2.96644 7.19999C3.26644 7.16666 3.66644 7.13332 4.13311 7.06666L4.73311 6.93332C6.1331 6.63332 7.23311 6.16666 7.99977 5.53332C8.76644 6.16666 9.83311 6.63332 11.2664 6.93332L11.8664 7.06666C12.3331 7.16666 12.7331 7.19999 13.0331 7.23332Z" fill="#359767" stroke="#359767" stroke-width="0.2"/>
<path d="M8.63314 9.5C8.63314 9.16667 8.36647 8.86667 7.9998 8.86667C7.63314 8.86667 7.36647 9.13334 7.36647 9.5C7.36647 9.8 7.59981 10.0667 7.89981 10.1L7.2998 12.1667H8.66647L8.06647 10.1C8.39981 10.0667 8.63314 9.8 8.63314 9.5Z" fill="#359767"/>
</svg>
