<svg width="14" height="14" viewBox="0 0 14 14" fill="none" xmlns="http://www.w3.org/2000/svg">
<path d="M9.74154 11.0717H4.25821C4.01321 11.0717 3.73904 10.8792 3.65737 10.6458L1.24237 3.89083C0.898205 2.9225 1.30071 2.625 2.12904 3.22L4.40404 4.8475C4.78321 5.11 5.21487 4.97583 5.37821 4.55L6.40487 1.81417C6.73154 0.939167 7.27404 0.939167 7.60071 1.81417L8.62737 4.55C8.79071 4.97583 9.22237 5.11 9.59571 4.8475L11.7307 3.325C12.6407 2.67167 13.0782 3.00417 12.7049 4.06L10.3482 10.6575C10.2607 10.8792 9.98654 11.0717 9.74154 11.0717Z" stroke="white" stroke-width="0.875" stroke-linecap="round" stroke-linejoin="round"/>
<path d="M3.79175 12.8333H10.2084" stroke="white" stroke-width="0.875" stroke-linecap="round" stroke-linejoin="round"/>
<path d="M5.54175 8.16666H8.45841" stroke="white" stroke-width="0.875" stroke-linecap="round" stroke-linejoin="round"/>
</svg>
