<svg width="18" height="18" viewBox="0 0 18 18" fill="none" xmlns="http://www.w3.org/2000/svg">
<path d="M5.0625 13.592H5.99799L8.60724 16.1367C8.71655 16.2433 8.85828 16.2966 9 16.2966C9.14172 16.2966 9.28345 16.2433 9.39276 16.1367L12.002 13.592H12.9375C15.1087 13.592 16.875 11.863 16.875 9.73801V5.55743C16.875 3.4324 15.1087 1.70343 12.9375 1.70343H5.0625C2.89133 1.70343 1.125 3.4324 1.125 5.55743V9.73801C1.125 11.863 2.89133 13.592 5.0625 13.592ZM2.25 5.55743C2.25 4.05258 3.51178 2.82843 5.0625 2.82843H12.9375C14.4882 2.82843 15.75 4.05258 15.75 5.55743V9.73801C15.75 11.2429 14.4882 12.467 12.9375 12.467H11.7732C11.6266 12.467 11.4857 12.5244 11.3805 12.6269L9 14.9483L6.61954 12.6269C6.51434 12.5244 6.37344 12.467 6.22678 12.467H5.0625C3.51178 12.467 2.25 11.2429 2.25 9.73801V5.55743Z" fill="#359767"/>
<path d="M6.20277 8.84647L6.12971 10.2398C6.10911 10.6298 6.28572 10.9998 6.60158 11.2297C6.91771 11.4587 7.32338 11.5123 7.68895 11.3728L8.99165 10.8726C8.99715 10.8704 9.00319 10.8704 9.00868 10.8726L10.3114 11.3728C10.4457 11.4241 10.5855 11.4497 10.7242 11.4497C10.9629 11.4497 11.1988 11.3747 11.3988 11.2297C11.7146 10.9998 11.8912 10.6298 11.8706 10.2398L11.8028 8.82999L12.6811 7.74564C12.9272 7.44214 13.0019 7.03922 12.8811 6.6676C12.7605 6.29599 12.4631 6.01364 12.0857 5.91257L10.7239 5.5415L9.96394 4.37119C9.75108 4.04352 9.39073 3.84769 9.00017 3.84769C8.6096 3.84769 8.24925 4.04352 8.03639 4.37119L7.26268 5.55167L5.91466 5.91257C5.53728 6.01364 5.23982 6.29599 5.11925 6.6676C4.9984 7.03922 5.0731 7.44214 5.3192 7.74564L6.20277 8.84647ZM8.22014 6.15399L9.02022 4.98367L9.77992 6.15372C9.93455 6.39212 10.171 6.56433 10.4465 6.63821L11.8072 7.03757L10.9285 8.12192C10.7495 8.34329 10.6591 8.62152 10.6742 8.90524L10.7146 10.3225L9.41188 9.82233C9.14656 9.72015 8.85377 9.72015 8.58845 9.82233L7.25307 10.2986L7.32613 8.90579C7.34123 8.62152 7.25087 8.34329 7.07152 8.12192L6.20579 6.99911L7.55409 6.63821C7.8293 6.56433 8.06578 6.39212 8.22014 6.15399Z" fill="#359767"/>
</svg>
