<svg width="30" height="30" viewBox="0 0 30 30" fill="none" xmlns="http://www.w3.org/2000/svg">
<path d="M28.9394 2.05084C28.0207 1.21671 24.7978 2.5391 23.3077 3.07663C21.9467 3.61082 18.6515 5.00868 17.4488 6.44873C15.9653 8.16428 15.8102 10.8234 16.9189 12.8054C16.5553 11.5736 16.8284 10.2045 17.656 9.22827C18.4585 8.26728 20.5584 7.32926 21.424 6.97056C22.1554 6.66751 22.8736 6.41392 23.4462 6.25666C25.1478 5.73741 25.8511 6.3251 25.6436 8.09174C25.5909 8.68324 25.4694 9.43505 25.3015 10.2088C25.1028 11.1244 24.5541 13.3579 23.7516 14.3188C23.0813 15.1215 22.1329 15.6087 21.081 15.691C20.7541 15.7168 20.4226 15.7016 20.1014 15.6466C20.8413 15.9463 21.6183 16.0957 22.3857 16.0956C27.2824 16.0377 28.1434 11.4011 28.9339 7.77504C29.175 6.55308 29.3425 5.36704 29.4054 4.43552C29.4984 3.05853 29.3721 2.41218 28.9394 2.05084Z" fill="white"/>
<path d="M17.4673 13.9604L17.4082 14.0195C16.3107 15.117 15.6405 16.4087 15.4065 17.8712H17.1947C17.4054 16.8887 17.8862 16.0275 18.6512 15.2625L18.7574 15.1562C18.5644 15.0431 18.3791 14.9135 18.2038 14.7671C17.9188 14.5292 17.6726 14.2573 17.4673 13.9604Z" fill="white"/>
<path d="M19.3304 13.4178C19.7871 13.7992 20.3599 13.9839 20.9439 13.9385C21.52 13.8934 22.038 13.6283 22.4024 13.192C22.6572 12.887 23.0987 11.9164 23.5049 10.1848C23.7284 9.2315 23.844 8.46316 23.8909 7.95703C23.4013 8.09338 22.6658 8.34398 21.7677 8.73393C20.1362 9.44221 19.2599 10.0498 19.0051 10.3548C18.6408 10.7911 18.4722 11.348 18.5306 11.923C18.5897 12.5055 18.8738 13.0364 19.3304 13.4178Z" fill="white"/>
<path d="M7.15948 14.5468C7.84964 14.5468 8.53138 14.4283 9.18071 14.2016C8.9437 14.2255 8.70417 14.2283 8.46564 14.2094C7.39953 14.1261 6.43825 13.6322 5.75904 12.8188C4.94465 11.8437 4.38708 9.57408 4.18523 8.6435C4.01455 7.85683 3.89103 7.09254 3.83748 6.49138C3.76213 5.64594 3.80015 5.05121 4.22179 4.69913C4.64348 4.34704 5.23551 4.41565 6.05388 4.64042C6.63595 4.80032 7.36602 5.05801 8.10962 5.36615C10.6047 6.4261 13.518 7.76695 12.7038 11.2063C13.0666 10.5371 13.3048 9.80658 13.3996 9.04457C13.9725 4.33591 9.51299 2.71276 6.21255 1.32656C5.03342 0.863736 3.87703 0.481182 2.95641 0.249387C1.60016 -0.0922113 0.933892 -0.0837739 0.497901 0.280207C0.062026 0.644246 -0.0649454 1.29844 0.0293311 2.69389C0.0933734 3.64105 0.263645 4.84713 0.508916 6.08984C1.28475 9.58744 2.08935 14.2627 6.82233 14.5374C6.93495 14.5437 7.04715 14.5468 7.15948 14.5468Z" fill="white"/>
<path d="M13.5544 17.8711V16.6529C13.5544 15.0613 13.0812 13.6094 12.1765 12.3833C11.8608 12.868 11.4052 13.3117 10.9004 13.6191C11.4952 14.5006 11.7967 15.5159 11.7967 16.6528V17.8711H13.5544V17.8711Z" fill="white"/>
<path d="M7.76866 7.13066C6.84219 6.72865 6.08639 6.47236 5.58806 6.33496C5.63446 6.84976 5.75194 7.63913 5.98233 8.62244C6.39635 10.3888 6.84758 11.38 7.10814 11.6919C7.48156 12.139 8.01235 12.4107 8.60268 12.4568C9.20173 12.5038 9.78767 12.3142 10.2554 11.9236C11.2149 11.1223 11.3642 9.7145 10.5884 8.78539C10.3278 8.47349 9.43306 7.85288 7.76866 7.13066Z" fill="white"/>
<path d="M21.636 19.629H21.5305V19.6289H7.3359V19.629H7.23055C6.06566 19.6722 6.06653 21.3439 7.23055 21.3868H7.71207L9.25564 28.5999C9.2584 28.6128 9.26145 28.6256 9.26479 28.6383C9.47777 29.4527 10.1657 29.9999 10.9766 29.9999H17.8883C18.7251 29.9999 19.4327 29.4243 19.6092 28.6001L21.154 21.3867H21.636C22.8009 21.3435 22.8 19.6718 21.636 19.629Z" fill="white"/>
</svg>
