<svg width="26" height="26" viewBox="0 0 26 26" fill="none" xmlns="http://www.w3.org/2000/svg">
<path d="M22.4616 10.4609H22.1203V10.0547C22.1203 9.94695 22.0775 9.84362 22.0013 9.76743C21.9251 9.69125 21.8218 9.64844 21.7141 9.64844H20.345C20.0218 9.64844 19.7118 9.77685 19.4832 10.0054C19.2547 10.234 19.1262 10.544 19.1262 10.8672V10.9566L15.6162 14.7631L16.0225 8.60032C16.0264 8.54463 16.0188 8.48873 16.0001 8.43611C15.9815 8.38349 15.9522 8.33528 15.914 8.29449C15.8759 8.2537 15.8298 8.22121 15.7786 8.19904C15.7273 8.17687 15.6721 8.1655 15.6162 8.16563H13.9912C13.9412 7.19348 13.5195 6.27774 12.8132 5.6078C12.107 4.93786 11.1703 4.56497 10.1969 4.56626C9.22108 4.57148 8.28455 4.95124 7.5807 5.62711C6.87686 6.30299 6.45945 7.22335 6.41468 8.19813H4.78968C4.73349 8.19795 4.67786 8.20943 4.62633 8.23185C4.57479 8.25427 4.52847 8.28713 4.49029 8.32837C4.45211 8.36961 4.4229 8.41832 4.40451 8.47142C4.38611 8.52452 4.37894 8.58086 4.38343 8.63688L4.46468 9.70938H3.25C2.82736 9.71203 2.41063 9.80885 2.03012 9.9928C1.64961 10.1767 1.31489 10.4432 1.05029 10.7728C0.785704 11.1023 0.5979 11.4867 0.500546 11.898C0.403191 12.3093 0.398733 12.7371 0.487496 13.1503L1.25531 16.6806C1.39413 17.3134 1.74484 17.8798 2.24942 18.2861C2.75399 18.6925 3.38217 18.9143 4.03 18.915H5.1675C5.24065 19.6046 5.56608 20.2428 6.08126 20.707C6.59643 21.1712 7.26499 21.4286 7.95843 21.4297H12.5734C12.9411 21.4315 13.3055 21.3607 13.6458 21.2213C13.986 21.0818 14.2953 20.8765 14.5559 20.6172C14.8131 20.3609 15.0173 20.0563 15.1567 19.7211C15.2961 19.3858 15.3681 19.0263 15.3684 18.6631L19.4228 14.2188C19.5354 14.3601 19.678 14.4745 19.8403 14.5539C20.0026 14.6333 20.1806 14.6756 20.3612 14.6778H21.7303C21.8381 14.6778 21.9414 14.635 22.0176 14.5588C22.0938 14.4826 22.1366 14.3793 22.1366 14.2716V13.2722C22.5127 13.563 22.7895 13.9632 22.9287 14.4178C22.9595 14.5213 23.03 14.6083 23.1248 14.6597C23.2197 14.7111 23.3311 14.7227 23.4345 14.692C23.538 14.6613 23.625 14.5908 23.6764 14.4959C23.7278 14.4011 23.7395 14.2897 23.7087 14.1863C23.5866 13.7837 23.3843 13.4099 23.1142 13.0874C22.844 12.7649 22.5115 12.5002 22.1366 12.3094V11.2734H22.4656C22.9519 11.2711 23.4261 11.4249 23.8184 11.7122C23.9057 11.7758 24.0147 11.8021 24.1213 11.7853C24.228 11.7685 24.3236 11.7101 24.3872 11.6228C24.4508 11.5355 24.477 11.4266 24.4603 11.3199C24.4435 11.2133 24.3851 11.1176 24.2978 11.0541C23.7651 10.6647 23.1214 10.4568 22.4616 10.4609ZM19.1506 12.1428V13.3372L15.4375 17.3388L15.5228 16.0469L19.1506 12.1428ZM10.2131 5.38282C11.0054 5.38577 11.7656 5.69597 12.3337 6.24813C12.8504 6.76008 13.1612 7.44383 13.2072 8.16969L7.23937 8.19407C7.28457 7.43765 7.6149 6.72651 8.16375 6.20405C8.7126 5.68158 9.43915 5.38666 10.1969 5.37876L10.2131 5.38282ZM4.03 18.1106C3.5643 18.114 3.11159 17.9572 2.74772 17.6665C2.38384 17.3759 2.1309 16.969 2.03125 16.5141L1.27156 13C1.21164 12.7065 1.21736 12.4034 1.28833 12.1124C1.3593 11.8214 1.49375 11.5497 1.68205 11.3167C1.87035 11.0838 2.10784 10.8954 2.37751 10.765C2.64718 10.6346 2.94235 10.5654 3.24187 10.5625H4.52562L5.09843 18.1431L4.03 18.1106ZM13.9831 20.0119C13.7988 20.1984 13.5793 20.3465 13.3373 20.4477C13.0953 20.5488 12.8357 20.6009 12.5734 20.6009H7.95843C7.69369 20.5999 7.43179 20.5464 7.18787 20.4435C6.94394 20.3406 6.72284 20.1903 6.53735 20.0014C6.35186 19.8125 6.20566 19.5887 6.1072 19.343C6.00874 19.0972 5.95998 18.8344 5.96375 18.5697L5.22843 9.0147L15.2019 8.97407L14.5559 18.6022C14.5584 18.8634 14.5091 19.1225 14.4108 19.3644C14.3125 19.6064 14.1671 19.8265 13.9831 20.0119ZM20.3653 13.8816C20.2576 13.8816 20.1542 13.8388 20.078 13.7626C20.0019 13.6864 19.9591 13.5831 19.9591 13.4753V10.8469C19.9591 10.7391 20.0019 10.6358 20.078 10.5596C20.1542 10.4834 20.2576 10.4406 20.3653 10.4406H21.32V12.5369C21.319 12.5531 21.319 12.5694 21.32 12.5856V13.8613L20.3653 13.8816Z" fill="#242424"/>
<path d="M25.159 15.3847C25.2668 15.3847 25.3701 15.3419 25.4463 15.2657C25.5225 15.1895 25.5653 15.0862 25.5653 14.9784V13.5484C25.5648 13.3382 25.543 13.1286 25.5003 12.9228C25.4893 12.8695 25.468 12.8188 25.4375 12.7737C25.407 12.7286 25.3679 12.6899 25.3224 12.6599C25.2769 12.63 25.226 12.6092 25.1725 12.5989C25.1191 12.5886 25.0641 12.5889 25.0107 12.5998C24.9574 12.6108 24.9067 12.6321 24.8616 12.6626C24.8165 12.6932 24.7779 12.7323 24.7479 12.7777C24.7179 12.8232 24.6971 12.8741 24.6868 12.9276C24.6765 12.981 24.6768 13.036 24.6878 13.0894C24.7196 13.2417 24.7359 13.3969 24.7365 13.5525V14.9825C24.737 15.0369 24.7484 15.0907 24.7701 15.1406C24.7918 15.1905 24.8232 15.2355 24.8627 15.273C24.9021 15.3105 24.9486 15.3397 24.9995 15.3589C25.0504 15.3781 25.1047 15.3869 25.159 15.3847Z" fill="#242424"/>
<path d="M25.5938 16.9609C25.5938 16.8532 25.5509 16.7499 25.4748 16.6737C25.3986 16.5975 25.2952 16.5547 25.1875 16.5547C25.0798 16.5547 24.9764 16.5975 24.9002 16.6737C24.8241 16.7499 24.7812 16.8532 24.7812 16.9609V19.3984C24.7812 19.5062 24.8241 19.6095 24.9002 19.6857C24.9764 19.7619 25.0798 19.8047 25.1875 19.8047C25.2952 19.8047 25.3986 19.7619 25.4748 19.6857C25.5509 19.6095 25.5938 19.5062 25.5938 19.3984V16.9609Z" fill="#242424"/>
<path d="M23.4325 17.4687C23.5402 17.4687 23.6436 17.4259 23.7198 17.3498C23.7959 17.2736 23.8387 17.1702 23.8387 17.0625V15.6853C23.8387 15.5776 23.7959 15.4742 23.7198 15.398C23.6436 15.3219 23.5402 15.2791 23.4325 15.2791C23.3248 15.2791 23.2214 15.3219 23.1452 15.398C23.069 15.4742 23.0262 15.5776 23.0262 15.6853V17.0787C23.0304 17.1836 23.0751 17.2828 23.1508 17.3556C23.2266 17.4283 23.3275 17.4688 23.4325 17.4687Z" fill="#242424"/>
<path d="M23.4365 18.07C23.3288 18.07 23.2254 18.1128 23.1493 18.189C23.0731 18.2652 23.0303 18.3685 23.0303 18.4763V20.9138C23.0303 21.0215 23.0731 21.1248 23.1493 21.201C23.2254 21.2772 23.3288 21.32 23.4365 21.32C23.5443 21.32 23.6476 21.2772 23.7238 21.201C23.8 21.1248 23.8428 21.0215 23.8428 20.9138V18.4763C23.8428 18.3685 23.8 18.2652 23.7238 18.189C23.6476 18.1128 23.5443 18.07 23.4365 18.07Z" fill="#242424"/>
</svg>
