<svg width="14" height="14" viewBox="0 0 14 14" fill="none" xmlns="http://www.w3.org/2000/svg">
<g clip-path="url(#clip0_330_714)">
<path d="M12.9062 3.99219H12.8516V4.32031H12.9062C12.9787 4.32043 13.0482 4.34927 13.0995 4.40053C13.1507 4.45178 13.1796 4.52127 13.1797 4.59375V6.34375C13.1797 6.38726 13.197 6.42899 13.2277 6.45976C13.2585 6.49053 13.3002 6.50781 13.3438 6.50781C13.3873 6.50781 13.429 6.49053 13.4598 6.45976C13.4905 6.42899 13.5078 6.38726 13.5078 6.34375V4.59375C13.5077 4.43424 13.4443 4.2813 13.3315 4.16851C13.2187 4.05572 13.0658 3.9923 12.9062 3.99219Z" fill="#359767"/>
<path d="M11.7578 10.0078H12.8516V11.8672H11.7578V10.0078Z" fill="#359767"/>
<path d="M12.1444 13.816C12.1524 13.8527 12.1726 13.8855 12.2018 13.909C12.231 13.9325 12.2673 13.9454 12.3048 13.9454C12.3423 13.9454 12.3786 13.9325 12.4078 13.909C12.437 13.8855 12.4572 13.8527 12.4651 13.816L12.8171 12.1953H11.7925L12.1444 13.816Z" fill="#359767"/>
<path d="M2.35156 11.5391H2.89844V12.0859H2.35156V11.5391Z" fill="#359767"/>
<path d="M2.35156 9.78906H2.89844V10.3359H2.35156V9.78906Z" fill="#359767"/>
<path d="M6.67827 3.34863C6.33374 3.69316 6.26987 4.2466 6.26855 4.60688L7.10265 3.77278C7.13361 3.74291 7.17506 3.7264 7.21807 3.72679C7.26109 3.72718 7.30223 3.74446 7.33263 3.77489C7.36304 3.80532 7.38027 3.84648 7.38063 3.8895C7.38098 3.93251 7.36442 3.97395 7.33452 4.00488L6.43765 4.90175C6.62811 4.95421 6.82864 4.95844 7.02114 4.91407C7.21365 4.86969 7.39209 4.77811 7.54037 4.64757C7.67057 4.49883 7.76461 4.32199 7.81512 4.13088C7.90889 3.77234 8.12305 3.45692 8.42171 3.2375C8.03255 3.04675 7.24724 2.77988 6.67827 3.34863Z" fill="#359767"/>
<path d="M4.27212 3.77278L5.10578 4.60643C5.10403 4.2455 5.04015 3.69162 4.6965 3.34862C4.13409 2.78643 3.3455 3.05068 2.95459 3.23925C3.25251 3.45893 3.46614 3.77409 3.55987 4.13218C3.61038 4.3233 3.70442 4.50014 3.83462 4.64887C3.98275 4.77998 4.16129 4.87199 4.35403 4.91654C4.54677 4.96108 4.74758 4.95675 4.93822 4.90393L4.04025 4.00487C4.01035 3.97394 3.99379 3.93251 3.99414 3.88949C3.9945 3.84647 4.01173 3.80532 4.04214 3.77488C4.07254 3.74445 4.11368 3.72718 4.1567 3.72678C4.19971 3.72639 4.24116 3.74291 4.27212 3.77278Z" fill="#359767"/>
<path d="M10.0625 0.710938H7.44056C7.59309 0.767012 7.73222 0.854361 7.849 0.967376C7.96578 1.08039 8.05764 1.21658 8.11869 1.36719H10.0625C10.106 1.36719 10.1477 1.38447 10.1785 1.41524C10.2093 1.44601 10.2266 1.48774 10.2266 1.53125V13.125C10.2266 13.1685 10.2093 13.2102 10.1785 13.241C10.1477 13.2718 10.106 13.2891 10.0625 13.2891H1.3125C1.26899 13.2891 1.22726 13.2718 1.19649 13.241C1.16572 13.2102 1.14844 13.1685 1.14844 13.125V1.53125C1.14844 1.48774 1.16572 1.44601 1.19649 1.41524C1.22726 1.38447 1.26899 1.36719 1.3125 1.36719H3.25697C3.31801 1.21658 3.40987 1.08039 3.52666 0.967376C3.64344 0.854361 3.78256 0.767012 3.93509 0.710938H1.3125C1.09503 0.711227 0.886547 0.797745 0.732771 0.951521C0.578995 1.1053 0.492477 1.31378 0.492188 1.53125V13.125C0.492477 13.3425 0.578995 13.551 0.732771 13.7047C0.886547 13.8585 1.09503 13.945 1.3125 13.9453H10.0625C10.28 13.945 10.4885 13.8585 10.6422 13.7047C10.796 13.551 10.8825 13.3425 10.8828 13.125V1.53125C10.8825 1.31378 10.796 1.1053 10.6422 0.951521C10.4885 0.797745 10.28 0.711227 10.0625 0.710938Z" fill="#359767"/>
<path d="M3.68506 2.13281C3.56413 2.13347 3.44729 2.08899 3.3574 2.00808C3.26751 1.92718 3.21103 1.81565 3.199 1.69531H1.47656V12.9609H9.89844V1.69531H8.176C8.16397 1.81565 8.10749 1.92718 8.0176 2.00808C7.92771 2.08899 7.81087 2.13347 7.68994 2.13281H3.68506ZM3.22656 12.25C3.22656 12.2935 3.20928 12.3352 3.17851 12.366C3.14774 12.3968 3.10601 12.4141 3.0625 12.4141H2.1875C2.14399 12.4141 2.10226 12.3968 2.07149 12.366C2.04072 12.3352 2.02344 12.2935 2.02344 12.25V11.375C2.02344 11.3315 2.04072 11.2898 2.07149 11.259C2.10226 11.2282 2.14399 11.2109 2.1875 11.2109H3.0625C3.10601 11.2109 3.14774 11.2282 3.17851 11.259C3.20928 11.2898 3.22656 11.3315 3.22656 11.375V12.25ZM3.22656 10.5C3.22656 10.5435 3.20928 10.5852 3.17851 10.616C3.14774 10.6468 3.10601 10.6641 3.0625 10.6641H2.1875C2.14399 10.6641 2.10226 10.6468 2.07149 10.616C2.04072 10.5852 2.02344 10.5435 2.02344 10.5V9.625C2.02344 9.58149 2.04072 9.53976 2.07149 9.50899C2.10226 9.47822 2.14399 9.46094 2.1875 9.46094H3.0625C3.10601 9.46094 3.14774 9.47822 3.17851 9.50899C3.20928 9.53976 3.22656 9.58149 3.22656 9.625V10.5ZM2.02344 8.75C2.02344 8.70649 2.04072 8.66476 2.07149 8.63399C2.10226 8.60322 2.14399 8.58594 2.1875 8.58594H6.78125C6.82476 8.58594 6.86649 8.60322 6.89726 8.63399C6.92803 8.66476 6.94531 8.70649 6.94531 8.75C6.94531 8.79351 6.92803 8.83524 6.89726 8.86601C6.86649 8.89678 6.82476 8.91406 6.78125 8.91406H2.1875C2.14399 8.91406 2.10226 8.89678 2.07149 8.86601C2.04072 8.83524 2.02344 8.79351 2.02344 8.75ZM7.4375 12.4141H3.9375C3.89399 12.4141 3.85226 12.3968 3.82149 12.366C3.79072 12.3352 3.77344 12.2935 3.77344 12.25C3.77344 12.2065 3.79072 12.1648 3.82149 12.134C3.85226 12.1032 3.89399 12.0859 3.9375 12.0859H7.4375C7.48101 12.0859 7.52274 12.1032 7.55351 12.134C7.58428 12.1648 7.60156 12.2065 7.60156 12.25C7.60156 12.2935 7.58428 12.3352 7.55351 12.366C7.52274 12.3968 7.48101 12.4141 7.4375 12.4141ZM9.1875 11.5391H3.9375C3.89399 11.5391 3.85226 11.5218 3.82149 11.491C3.79072 11.4602 3.77344 11.4185 3.77344 11.375C3.77344 11.3315 3.79072 11.2898 3.82149 11.259C3.85226 11.2282 3.89399 11.2109 3.9375 11.2109H9.1875C9.23101 11.2109 9.27274 11.2282 9.30351 11.259C9.33428 11.2898 9.35156 11.3315 9.35156 11.375C9.35156 11.4185 9.33428 11.4602 9.30351 11.491C9.27274 11.5218 9.23101 11.5391 9.1875 11.5391ZM3.77344 10.5C3.77344 10.4565 3.79072 10.4148 3.82149 10.384C3.85226 10.3532 3.89399 10.3359 3.9375 10.3359H6.78125C6.82476 10.3359 6.86649 10.3532 6.89726 10.384C6.92803 10.4148 6.94531 10.4565 6.94531 10.5C6.94531 10.5435 6.92803 10.5852 6.89726 10.616C6.86649 10.6468 6.82476 10.6641 6.78125 10.6641H3.9375C3.89399 10.6641 3.85226 10.6468 3.82149 10.616C3.79072 10.5852 3.77344 10.5435 3.77344 10.5ZM9.1875 9.78906H3.9375C3.89399 9.78906 3.85226 9.77178 3.82149 9.74101C3.79072 9.71024 3.77344 9.66851 3.77344 9.625C3.77344 9.58149 3.79072 9.53976 3.82149 9.50899C3.85226 9.47822 3.89399 9.46094 3.9375 9.46094H9.1875C9.23101 9.46094 9.27274 9.47822 9.30351 9.50899C9.33428 9.53976 9.35156 9.58149 9.35156 9.625C9.35156 9.66851 9.33428 9.71024 9.30351 9.74101C9.27274 9.77178 9.23101 9.78906 9.1875 9.78906ZM9.1875 8.03906H2.1875C2.14399 8.03906 2.10226 8.02178 2.07149 7.99101C2.04072 7.96024 2.02344 7.91851 2.02344 7.875C2.02344 7.83149 2.04072 7.78976 2.07149 7.75899C2.10226 7.72822 2.14399 7.71094 2.1875 7.71094H9.1875C9.23101 7.71094 9.27274 7.72822 9.30351 7.75899C9.33428 7.78976 9.35156 7.83149 9.35156 7.875C9.35156 7.91851 9.33428 7.96024 9.30351 7.99101C9.27274 8.02178 9.23101 8.03906 9.1875 8.03906ZM9.35156 7C9.35156 7.04351 9.33428 7.08524 9.30351 7.11601C9.27274 7.14678 9.23101 7.16406 9.1875 7.16406H2.1875C2.14399 7.16406 2.10226 7.14678 2.07149 7.11601C2.04072 7.08524 2.02344 7.04351 2.02344 7C2.02344 6.95649 2.04072 6.91476 2.07149 6.88399C2.10226 6.85322 2.14399 6.83594 2.1875 6.83594H9.1875C9.23101 6.83594 9.27274 6.85322 9.30351 6.88399C9.33428 6.91476 9.35156 6.95649 9.35156 7ZM8.841 3.09597C8.86518 3.11185 8.88473 3.13384 8.89767 3.15972C8.91061 3.18559 8.91647 3.21443 8.91467 3.2433C8.91288 3.27217 8.90348 3.30006 8.88742 3.32412C8.87137 3.34819 8.84924 3.36759 8.82328 3.38034C8.64939 3.46196 8.4962 3.58184 8.37517 3.73102C8.25414 3.88019 8.1684 4.0548 8.12437 4.24178C8.05872 4.47951 7.93807 4.69847 7.77219 4.88097C7.64155 5.0089 7.48647 5.10919 7.31622 5.17587C7.14596 5.24254 6.96402 5.27422 6.78125 5.26903C6.57541 5.26765 6.37094 5.23543 6.17466 5.17344C5.96579 5.41946 5.8514 5.73184 5.852 6.05456V6.34375C5.852 6.38726 5.83471 6.42899 5.80395 6.45976C5.77318 6.49053 5.73145 6.50781 5.68794 6.50781C5.64443 6.50781 5.6027 6.49053 5.57193 6.45976C5.54116 6.42899 5.52388 6.38726 5.52388 6.34375V6.05456C5.52447 5.73184 5.41008 5.41946 5.20122 5.17344C5.00465 5.23552 4.79988 5.26774 4.59375 5.26903C4.41083 5.27414 4.22876 5.24231 4.05842 5.17545C3.88808 5.10858 3.73297 5.00805 3.60238 4.87988C3.43649 4.69737 3.31584 4.47842 3.25019 4.24069C3.20616 4.0537 3.12042 3.8791 2.9994 3.72992C2.87837 3.58075 2.72518 3.46087 2.55128 3.37925C2.52557 3.36641 2.50368 3.34704 2.4878 3.32307C2.47193 3.29911 2.46263 3.2714 2.46084 3.24271C2.45904 3.21403 2.46481 3.18537 2.47758 3.15962C2.49034 3.13386 2.50965 3.11191 2.53356 3.09597C3.02641 2.76784 4.16062 2.34916 4.928 3.11653C5.49894 3.68747 5.44775 4.66069 5.42041 4.93412C5.52746 5.05276 5.61737 5.18582 5.6875 5.32941C5.7575 5.18584 5.84726 5.05279 5.95416 4.93412C5.92681 4.66069 5.87562 3.68725 6.44656 3.11653C7.2135 2.34894 8.34816 2.76741 8.841 3.09597Z" fill="#359767"/>
<path d="M3.52638 1.59491C3.51968 1.61941 3.5187 1.64513 3.52351 1.67007C3.52831 1.69502 3.53878 1.71853 3.5541 1.73879C3.56942 1.75905 3.58918 1.77553 3.61187 1.78696C3.63456 1.79838 3.65957 1.80445 3.68497 1.80469H7.68985C7.71525 1.80445 7.74026 1.79838 7.76295 1.78696C7.78564 1.77553 7.8054 1.75905 7.82072 1.73879C7.83604 1.71853 7.84651 1.69502 7.85131 1.67007C7.85612 1.64513 7.85514 1.61941 7.84844 1.59491C7.81063 1.4484 7.734 1.31481 7.62663 1.20821C7.51926 1.10161 7.38512 1.02594 7.23835 0.989187L6.99991 0.929688V0.492188C6.99991 0.376155 6.95382 0.264875 6.87177 0.182828C6.78972 0.100781 6.67844 0.0546875 6.56241 0.0546875H4.81241C4.69638 0.0546875 4.5851 0.100781 4.50305 0.182828C4.421 0.264875 4.37491 0.376155 4.37491 0.492188V0.929688L4.13647 0.989187C3.9897 1.02594 3.85556 1.10161 3.74819 1.20821C3.64082 1.31481 3.56419 1.4484 3.52638 1.59491ZM5.24991 0.765625H6.12491C6.16842 0.765625 6.21015 0.78291 6.24092 0.813678C6.27169 0.844445 6.28897 0.886175 6.28897 0.929688C6.28897 0.9732 6.27169 1.01493 6.24092 1.0457C6.21015 1.07646 6.16842 1.09375 6.12491 1.09375H5.24991C5.2064 1.09375 5.16467 1.07646 5.1339 1.0457C5.10313 1.01493 5.08585 0.9732 5.08585 0.929688C5.08585 0.886175 5.10313 0.844445 5.1339 0.813678C5.16467 0.78291 5.2064 0.765625 5.24991 0.765625Z" fill="#359767"/>
<path d="M11.7578 4.32031H12.8516V6.61719H11.7578V4.32031Z" fill="#359767"/>
<path d="M12.4688 3.11719H12.1406C12.0391 3.11725 11.9418 3.1576 11.87 3.22937C11.7982 3.30115 11.7579 3.39849 11.7578 3.5V3.99219H12.8516V3.5C12.8515 3.39849 12.8112 3.30115 12.7394 3.22937C12.6676 3.1576 12.5703 3.11725 12.4688 3.11719Z" fill="#359767"/>
<path d="M11.7578 6.94531H12.8516V9.67969H11.7578V6.94531Z" fill="#359767"/>
</g>
<defs>
<clipPath id="clip0_330_714">
<rect width="14" height="14" fill="white"/>
</clipPath>
</defs>
</svg>
