<svg width="26" height="26" viewBox="0 0 26 26" fill="none" xmlns="http://www.w3.org/2000/svg">
<g clip-path="url(#clip0_46_458)">
<path d="M20.807 24.2968L18.7018 23.9139C18.595 23.8926 18.485 23.8922 18.378 23.9126L12.5553 24.9148C12.4048 24.9402 11.9951 24.8503 11.8433 24.7899L5.98821 22.5986C5.58647 22.4481 5.22105 22.1781 5.05982 21.8019C4.9919 21.6474 4.9656 21.4779 4.98351 21.3101C5.00143 21.1422 5.06294 20.982 5.16194 20.8454L5.44124 20.445C5.78518 19.9532 6.50257 19.8135 7.37987 19.8727C7.23263 19.6628 7.13796 19.4207 7.10384 19.1666C7.06971 18.9126 7.09713 18.6541 7.18378 18.4128C7.27043 18.1716 7.41378 17.9547 7.60175 17.7804C7.78972 17.6061 8.01682 17.4796 8.26392 17.4114C8.46656 17.3524 8.67937 17.3369 8.88842 17.3659C9.09748 17.3948 9.29807 17.4675 9.47708 17.5793L12.9782 19.7907C13.0703 19.5749 13.2126 19.3842 13.3932 19.2344C13.5738 19.0846 13.7876 18.9801 14.0167 18.9295L18.0754 18.0361C18.5242 17.9367 20.5421 18.4298 21.637 18.6971L21.9205 18.7656L21.9648 18.5625C22.0182 18.3242 22.1638 18.1168 22.3698 17.9856C22.5757 17.8544 22.8253 17.8102 23.0638 17.8625L24.7176 18.2293C24.9561 18.2828 25.1637 18.4287 25.2948 18.6349C25.426 18.8411 25.4702 19.0909 25.4176 19.3296L24.2445 24.6069C24.1915 24.8454 24.046 25.0532 23.84 25.1847C23.634 25.3161 23.3843 25.3606 23.1456 25.3082L21.4917 24.9401C21.3303 24.9042 21.1814 24.8255 21.0609 24.7123C20.9403 24.599 20.8525 24.4554 20.8065 24.2965L20.807 24.2968ZM15.9315 15.0482C15.9756 14.9797 16.0448 14.9313 16.1242 14.9134C16.2037 14.8956 16.287 14.9097 16.3561 14.9528C16.3903 14.9742 16.4199 15.0022 16.4432 15.0351C16.4665 15.068 16.4831 15.1052 16.492 15.1445C16.5009 15.1839 16.5018 15.2246 16.4949 15.2643C16.4879 15.304 16.4731 15.342 16.4514 15.376L16.1115 15.9161L16.5321 16.0289C16.5802 16.0417 16.6245 16.0661 16.6612 16.0998C16.6979 16.1335 16.7258 16.1757 16.7426 16.2226C16.7594 16.2695 16.7645 16.3198 16.7576 16.3691C16.7506 16.4185 16.7318 16.4654 16.7027 16.5059L16.1505 17.3832C16.1069 17.4517 16.0378 17.5002 15.9585 17.518C15.8792 17.5358 15.7961 17.5215 15.7273 17.4781C15.6586 17.4348 15.6098 17.366 15.5916 17.2867C15.5735 17.2075 15.5875 17.1243 15.6305 17.0554L15.9705 16.5152L15.55 16.4024C15.5035 16.3899 15.4606 16.3666 15.4247 16.3345C15.3888 16.3024 15.361 16.2623 15.3435 16.2174C15.326 16.1726 15.3193 16.1243 15.3239 16.0763C15.3284 16.0284 15.3442 15.9822 15.3699 15.9415L15.9315 15.0482ZM16.2137 14.0486C16.6157 14.0802 17.0009 14.2235 17.3258 14.4624C17.7248 13.9626 17.9169 13.3527 18.1292 12.7024C18.5645 11.3778 18.6935 11.0284 19.7683 9.71046H19.7669C19.8005 9.66882 19.8287 9.63388 19.8556 9.60169H19.8059C18.187 9.59361 16.7641 9.60301 15.2232 10.1511C14.6791 10.3459 14.2102 10.5972 13.783 10.9908C13.4991 11.2691 13.2744 11.6019 13.1223 11.9692C12.8576 12.6598 12.8831 13.4739 13.0105 14.1953C13.0603 14.4427 13.1373 14.6837 13.2403 14.9141C13.3559 15.1747 14.2076 13.3852 14.44 13.0439C14.5636 12.5092 14.565 12.3211 14.444 11.8133C14.4342 11.7739 14.4323 11.733 14.4384 11.6929C14.4445 11.6528 14.4585 11.6143 14.4796 11.5796C14.5007 11.5449 14.5285 11.5148 14.5613 11.4909C14.5941 11.4671 14.6314 11.45 14.6709 11.4407C14.7104 11.4313 14.7513 11.4299 14.7914 11.4365C14.8314 11.4432 14.8697 11.4576 14.9041 11.4792C14.9385 11.5007 14.9683 11.5289 14.9917 11.562C15.0151 11.5952 15.0317 11.6326 15.0406 11.6722C15.0823 11.8341 15.1146 11.9983 15.1373 12.164C15.3442 11.9422 15.5734 11.7423 15.8211 11.5674C15.88 11.4418 15.9307 11.3126 15.973 11.1805C16.0013 11.0853 16.0176 10.9869 16.0213 10.8876C16.0245 10.8473 16.0356 10.808 16.0539 10.772C16.0723 10.7359 16.0976 10.7039 16.1283 10.6776C16.1591 10.6514 16.1947 10.6314 16.2332 10.6189C16.2716 10.6064 16.3122 10.6016 16.3525 10.6048C16.3928 10.608 16.4321 10.6191 16.4681 10.6374C16.5042 10.6558 16.5362 10.6811 16.5625 10.7118C16.5888 10.7426 16.6087 10.7782 16.6212 10.8167C16.6337 10.8552 16.6385 10.8957 16.6353 10.936C16.6286 11.0206 16.6205 11.0972 16.6071 11.1765C16.8617 11.0959 17.1243 11.0431 17.3903 11.0191C17.4711 11.0121 17.5513 11.0372 17.6135 11.0891C17.6758 11.141 17.715 11.2154 17.7226 11.2961C17.7302 11.3767 17.7057 11.4572 17.6542 11.5198C17.6028 11.5824 17.5287 11.6222 17.4481 11.6304C16.6661 11.7043 16.1973 11.969 15.6586 12.5117C15.3649 12.8168 15.1017 13.1498 14.8726 13.5059C15.3361 13.3568 15.6707 13.3635 16.1154 13.3782C16.1557 13.3795 16.1954 13.3886 16.2321 13.4052C16.2689 13.4218 16.3021 13.4454 16.3297 13.4748C16.3573 13.5042 16.3789 13.5387 16.3932 13.5764C16.4075 13.6142 16.4142 13.6543 16.413 13.6946C16.4117 13.7349 16.4026 13.7746 16.386 13.8114C16.3694 13.8482 16.3458 13.8813 16.3164 13.909C16.287 13.9366 16.2525 13.9582 16.2148 13.9725C16.177 13.9867 16.1369 13.9935 16.0966 13.9922C15.8144 13.9828 15.5323 13.9719 15.2394 14.0419C14.9652 14.1064 14.6564 14.2451 14.3433 14.3886C14.1458 14.7473 13.9604 15.11 13.7858 15.458L13.994 15.4875C14.1539 15.0368 14.4582 14.6515 14.8595 14.3913C15.2608 14.1312 15.7367 14.0107 16.2135 14.0487L16.2137 14.0486ZM17.7667 14.895C17.98 15.1732 18.1228 15.4988 18.1829 15.8442C18.2431 16.1895 18.2188 16.5442 18.1121 16.8781C18.0055 17.212 17.8196 17.5152 17.5704 17.7617C17.3212 18.0082 17.016 18.1907 16.681 18.2937C16.346 18.3967 15.991 18.4172 15.6463 18.3532C15.3017 18.2893 14.9776 18.143 14.7018 17.9267C14.426 17.7104 14.2066 17.4305 14.0623 17.1111C13.9181 16.7916 13.8533 16.442 13.8734 16.092C13.7512 16.0759 13.6276 16.0545 13.5094 16.0303C13.3204 16.5365 13.194 17.0639 13.133 17.6008C13.1344 17.6297 13.1317 17.6586 13.125 17.6868C13.1055 17.8581 13.1033 18.0309 13.1182 18.2027C13.1275 18.2838 13.1042 18.3652 13.0534 18.4291C13.0283 18.4607 12.9971 18.4871 12.9618 18.5066C12.9265 18.5262 12.8876 18.5387 12.8475 18.5433C12.7664 18.5525 12.685 18.5292 12.6212 18.4784C12.5573 18.4277 12.5162 18.3536 12.5069 18.2725C12.4879 18.0606 12.4902 17.8472 12.5136 17.6357C12.4116 17.3227 12.0784 16.7544 11.8554 16.4414C11.4852 16.5628 11.1 16.632 10.7107 16.6469C9.2248 16.6563 8.39854 16.2264 7.74427 14.8493C7.2391 13.7879 7.20823 13.5434 6.18986 12.5692C6.05883 12.4508 5.94165 12.3179 5.84053 12.1731C5.7976 12.1155 5.77624 12.0447 5.78017 11.9731C5.78411 11.9014 5.81309 11.8333 5.86207 11.7808C5.98699 11.6464 6.27045 11.5887 6.45722 11.5659C7.74026 11.4019 8.85917 11.2783 10.1439 11.5645C11.0669 11.7714 11.8811 12.243 12.3043 13.1095C12.3058 12.6456 12.3881 12.1855 12.5475 11.7499C12.7337 11.2935 13.0128 10.8809 13.367 10.5381C13.8614 10.084 14.3921 9.79511 15.0195 9.57213C16.637 8.99571 18.1176 8.97962 19.809 8.98769C20.0254 8.98769 20.3384 9.01186 20.5184 9.12206C20.5878 9.1627 20.6385 9.22903 20.6594 9.30672C20.6803 9.38441 20.6698 9.4672 20.6301 9.53719C20.5231 9.7387 20.3938 9.92752 20.2445 10.1001C19.0743 11.5309 19.0664 11.8426 18.5598 13.3634C18.369 13.9331 18.1245 14.4624 17.7671 14.895H17.7667ZM17.228 15.2053C17.028 14.9706 16.763 14.8005 16.4663 14.7164C16.1697 14.6324 15.8548 14.6381 15.5614 14.733C15.2681 14.8279 15.0094 15.0077 14.8182 15.2496C14.627 15.4914 14.5119 15.7846 14.4872 16.0919C14.4626 16.3992 14.5297 16.707 14.68 16.9762C14.8303 17.2454 15.057 17.464 15.3315 17.6044C15.606 17.7448 15.916 17.8006 16.2222 17.7648C16.5285 17.729 16.8172 17.6032 17.052 17.4033C17.3661 17.1348 17.5611 16.7527 17.5941 16.3407C17.6271 15.9287 17.4954 15.5205 17.228 15.2053ZM12.3269 16.0451C12.4371 16.1969 12.5661 16.397 12.6897 16.608C12.7605 16.3015 12.8562 16.0014 12.9759 15.7105C12.8268 15.4816 12.7026 15.2375 12.6052 14.9824C12.5749 15.3501 12.4808 15.7097 12.3271 16.0451H12.3269ZM10.2093 13.4494C10.2134 13.3834 10.2201 13.3123 10.2281 13.2304C10.2617 12.822 10.8435 12.861 10.8435 13.2466C10.8435 13.3849 10.7977 13.5085 10.826 13.7168C10.8532 13.8681 10.8946 14.0165 10.9496 14.1601C11.1242 14.363 11.2975 14.5846 11.4668 14.8184L11.8994 15.4351C11.9478 15.2704 11.9788 15.1011 11.9921 14.93C12.0204 14.3925 11.9667 13.7839 11.7114 13.303C11.5682 13.0506 11.3764 12.8291 11.1471 12.6514C10.8065 12.4114 10.4193 12.2457 10.0105 12.165C8.85267 11.9057 7.81521 12.0132 6.65039 12.1596C7.70776 13.1794 7.75072 13.4333 8.30023 14.5873C8.84704 15.7374 9.45697 16.041 10.7078 16.033C10.9691 16.0225 11.2284 15.9814 11.4802 15.9107C11.3325 15.6917 11.1847 15.474 11.0342 15.2645C10.482 15.0871 10.3289 15.0455 9.73505 15.1382C9.71953 15.1408 9.70382 15.1422 9.68808 15.1422V15.1436C9.31052 15.1436 9.25679 14.5739 9.66654 14.5282C9.91236 14.4795 10.1637 14.4646 10.4135 14.4839C10.2472 14.2977 10.0656 14.1256 9.87079 13.9694C9.4261 13.6174 9.0687 13.4709 8.48832 13.4857C8.4071 13.4871 8.32862 13.4564 8.27005 13.4001C8.21148 13.3438 8.1776 13.2666 8.17582 13.1854C8.17404 13.1042 8.2045 13.0256 8.26055 12.9668C8.3166 12.908 8.39366 12.8738 8.47486 12.8717C9.1858 12.8542 9.71088 13.0625 10.2093 13.4494ZM5.19297 1.70195L7.29821 2.08616C7.40506 2.10743 7.51502 2.10787 7.62204 2.08748L13.4447 1.08526C13.5938 1.0584 14.0049 1.14976 14.1568 1.21019L20.0119 3.40013C20.4135 3.55059 20.779 3.82197 20.9402 4.19816C21.0082 4.3527 21.0345 4.52239 21.0163 4.69026C20.9981 4.85813 20.9362 5.01829 20.8367 5.15472L20.5574 5.55508C20.2149 6.0468 19.4974 6.1865 18.6201 6.12607C18.7673 6.33604 18.8619 6.57827 18.896 6.8324C18.93 7.08653 18.9026 7.34512 18.8159 7.58643C18.7293 7.82775 18.5859 8.04473 18.398 8.21913C18.21 8.39353 17.983 8.52026 17.7358 8.58865C17.5332 8.64765 17.3204 8.66319 17.1113 8.63425C16.9022 8.60532 16.7016 8.53255 16.5226 8.42072L13.0215 6.20935C12.9294 6.42516 12.7871 6.61588 12.6065 6.76566C12.4259 6.91544 12.2121 7.01996 11.983 7.07055L7.92429 7.96394C7.47559 8.062 5.45764 7.57028 4.3627 7.30292L4.07924 7.23442L4.0349 7.43754C3.98131 7.67599 3.83546 7.88351 3.62925 8.01469C3.42304 8.14587 3.17327 8.19003 2.93458 8.13751L1.2821 7.77077C1.04357 7.71732 0.835953 7.5715 0.704747 7.36525C0.573541 7.159 0.52945 6.90914 0.582135 6.67044L1.75498 1.39142C1.80824 1.15309 1.95382 0.945604 2.15981 0.814432C2.3658 0.683261 2.6154 0.639111 2.85389 0.691659L4.50636 1.0584C4.66789 1.09446 4.81679 1.17319 4.93754 1.28639C5.05828 1.39958 5.14646 1.54309 5.19287 1.70195H5.19297ZM7.18939 2.69071L5.17149 2.3226L4.21223 6.6352C4.3009 6.65551 4.39896 6.67958 4.50646 6.70629C5.55306 6.96157 7.47828 7.43043 7.7913 7.36193L11.8527 6.46848V6.46985C12.0732 6.4217 12.2656 6.28793 12.3874 6.09796C12.5093 5.908 12.5508 5.67739 12.5027 5.45687C12.4572 5.25198 12.3375 5.07113 12.1668 4.94906C12.0023 4.82983 11.8013 4.77185 11.5985 4.78514L7.38667 5.71215C7.34695 5.72116 7.30583 5.7222 7.26571 5.71521C7.22558 5.70822 7.18724 5.69333 7.15291 5.67141C7.11858 5.64949 7.08894 5.62097 7.06572 5.58752C7.04249 5.55406 7.02613 5.51632 7.0176 5.47649C7.00906 5.43667 7.00852 5.39554 7.01599 5.3555C7.02347 5.31546 7.03882 5.27731 7.06115 5.24324C7.08348 5.20918 7.11235 5.17989 7.14609 5.15706C7.17983 5.13424 7.21776 5.11834 7.25769 5.11029L12.8012 3.89047V3.89184C12.8569 3.87891 12.9152 3.88217 12.9691 3.90124C13.1639 3.96974 13.3896 4.0517 13.6422 4.14306C14.6673 4.51655 16.1707 5.06337 17.4752 5.35891C17.5355 5.35443 17.5959 5.36798 17.6485 5.39786C18.777 5.63567 19.7309 5.6666 20.0547 5.20307C20.1207 5.1077 20.353 4.79463 20.3852 4.70597C20.5088 4.3768 20.1004 4.08933 19.7967 3.97512L13.9417 1.78523C13.8489 1.75167 13.6017 1.69256 13.5144 1.69657L7.72538 2.69346C7.54791 2.7241 7.36643 2.72317 7.18928 2.69071H7.18939ZM17.3583 5.94071C15.9826 5.64918 14.4779 5.101 13.4326 4.7208C13.2136 4.64153 13.0162 4.56901 12.8496 4.5099L12.6534 4.55423C12.8809 4.75858 13.0383 5.02928 13.1035 5.32804H13.1048C13.121 5.40281 13.1314 5.47874 13.1357 5.55513L16.8505 7.90087C17.533 8.3321 18.5002 7.65204 18.2611 6.78439C18.2275 6.66068 18.1697 6.54486 18.0911 6.44363C18.0125 6.34239 17.9145 6.25776 17.803 6.19462L17.3583 5.94071ZM1.4151 7.1713L3.06757 7.53804C3.14732 7.55529 3.23065 7.54045 3.29954 7.49674C3.36843 7.45302 3.41734 7.38394 3.43569 7.30444L4.60873 2.02589C4.62597 1.94614 4.61113 1.86281 4.56742 1.79391C4.52371 1.72502 4.45464 1.67609 4.37514 1.65772L2.70251 1.28702C2.62849 1.27662 2.5532 1.29297 2.49015 1.33311C2.42711 1.37326 2.38045 1.43457 2.35856 1.50604L1.1813 6.80318C1.1635 6.88297 1.1781 6.96657 1.2219 7.03559C1.2657 7.10462 1.33512 7.15343 1.4149 7.1713H1.4151ZM18.8094 23.3093L20.8286 23.6774L21.7866 19.3648C21.6992 19.3433 21.6012 19.3191 21.4937 19.2937C20.4471 19.0385 18.5219 18.5683 18.2088 18.6382V18.6367L14.1463 19.5301C14.0372 19.5539 13.9339 19.5989 13.8423 19.6626C13.7506 19.7263 13.6724 19.8075 13.6121 19.9015C13.5519 19.9954 13.5107 20.1003 13.491 20.2102C13.4713 20.3201 13.4735 20.4328 13.4974 20.5418H13.4961C13.5421 20.747 13.662 20.9282 13.8328 21.0509C13.9975 21.1697 14.1985 21.2272 14.4011 21.2134L18.6116 20.2877C18.6511 20.2791 18.6919 20.2784 18.7317 20.2857C18.7715 20.2929 18.8094 20.3079 18.8434 20.3298C18.8774 20.3517 18.9068 20.38 18.9298 20.4133C18.9528 20.4465 18.9691 20.4839 18.9776 20.5235C18.9862 20.563 18.9869 20.6038 18.9797 20.6436C18.9725 20.6834 18.9575 20.7213 18.9356 20.7553C18.9137 20.7893 18.8853 20.8187 18.8521 20.8417C18.8188 20.8647 18.7814 20.881 18.7419 20.8895L13.1988 22.1096L13.1975 22.1082C13.1422 22.1205 13.0845 22.1172 13.0309 22.0988C12.8361 22.0303 12.6104 21.9483 12.3578 21.8557C11.3327 21.4835 9.82935 20.9354 8.52351 20.6398C8.46326 20.6451 8.4028 20.632 8.35019 20.6022C7.22285 20.363 6.26913 20.3321 5.94535 20.797C5.87816 20.8924 5.64706 21.2054 5.61349 21.2941C5.49126 21.6232 5.89964 21.9107 6.20331 22.0236L12.0584 24.2148C12.1498 24.2471 12.3983 24.3062 12.4856 24.3021L18.2747 23.3068C18.4515 23.2748 18.6328 23.2757 18.8094 23.3095V23.3093ZM8.64183 20.0593C10.0175 20.3508 11.5223 20.8976 12.5675 21.2781C12.7852 21.3587 12.9839 21.4299 13.1506 21.489L13.3467 21.4461C13.1195 21.2415 12.9621 20.9708 12.8966 20.6722H12.8953C12.8792 20.5974 12.8689 20.5215 12.8644 20.4452L9.14969 18.0994C8.46719 17.6681 7.49986 18.3466 7.73899 19.2145C7.77249 19.3384 7.83023 19.4545 7.90887 19.5559C7.98751 19.6574 8.08549 19.7423 8.19714 19.8056V19.8043L8.64183 20.0593ZM24.5851 18.8286L22.9325 18.4619C22.8528 18.4442 22.7692 18.4588 22.7002 18.5026C22.6312 18.5464 22.5824 18.6158 22.5644 18.6955L21.3914 23.9727C21.3738 24.0525 21.3884 24.136 21.4322 24.205C21.476 24.274 21.5453 24.3228 21.625 24.3408L23.2976 24.7115C23.3713 24.7224 23.4465 24.7064 23.5094 24.6664C23.5723 24.6265 23.6187 24.5652 23.6402 24.4939L24.8183 19.1965C24.8358 19.1167 24.821 19.0333 24.7773 18.9644C24.7335 18.8955 24.6643 18.8466 24.5848 18.8284L24.5851 18.8286Z" fill="#242424"/>
</g>
<defs>
<clipPath id="clip0_46_458">
<rect width="26" height="26" fill="white"/>
</clipPath>
</defs>
</svg>
