<?xml version="1.0" encoding="UTF-8"?>
<svg version="1.1" xmlns="http://www.w3.org/2000/svg" width="512" height="512">
<path d="M0 0 C6.4316173 4.59560198 10.15660821 10.0452733 12.2578125 17.61328125 C12.54431095 20.32378128 12.68778185 22.72944004 12.6328125 25.42578125 C12.62266113 26.18366943 12.61250977 26.94155762 12.60205078 27.72241211 C11.31358818 78.22714947 -6.04409555 127.24506073 -37.7421875 166.61328125 C-38.1767627 167.16209961 -38.61133789 167.71091797 -39.05908203 168.27636719 C-50.38574027 182.51781548 -63.3885593 195.63452081 -78.08007812 206.39111328 C-79.70766583 207.58789707 -81.31123924 208.81712267 -82.9140625 210.046875 C-130.45284433 245.99434398 -192.91538961 259.52807587 -251.43359375 251.58203125 C-285.51165358 246.53574673 -318.01305156 234.76603855 -346.7421875 215.61328125 C-346.68417969 216.86882812 -346.62617188 218.124375 -346.56640625 219.41796875 C-346.22290714 229.93618451 -346.11911784 238.11117092 -353.31640625 246.43359375 C-358.57923947 251.51241182 -365.00619655 253.68573111 -372.2421875 253.98828125 C-380.21065424 253.64182617 -386.21363128 251.04494378 -392.015625 245.578125 C-397.98946906 238.7798364 -398.8900966 231.36771261 -398.90332031 222.58520508 C-398.90828522 221.79099152 -398.91325012 220.99677795 -398.91836548 220.17849731 C-398.93293203 217.55909344 -398.93978075 214.93975017 -398.9453125 212.3203125 C-398.95106953 210.49053446 -398.95682719 208.66075643 -398.96258545 206.83097839 C-398.97308052 202.99530762 -398.97893261 199.15965771 -398.98242188 195.32397461 C-398.98789616 190.42956163 -399.0119077 185.5354283 -399.04039383 180.64110279 C-399.05909924 176.86021645 -399.06423005 173.07939632 -399.06575775 169.29846764 C-399.0687682 167.49530195 -399.07674184 165.69213698 -399.08994293 163.88901711 C-399.24851856 140.55974359 -399.24851856 140.55974359 -392.1796875 132.73828125 C-391.58027344 132.03960937 -390.98085938 131.3409375 -390.36328125 130.62109375 C-380.60391362 123.14521452 -369.52508379 124.02448399 -357.83203125 124.08203125 C-355.89490057 124.07933218 -353.95777122 124.07544631 -352.02064514 124.07043457 C-347.97513843 124.06456046 -343.9299867 124.07303582 -339.88452148 124.09179688 C-334.71758532 124.11460042 -329.55147978 124.10144106 -324.38457394 124.07750702 C-320.38922443 124.06300551 -316.39406966 124.06767469 -312.39871407 124.07801819 C-310.49425723 124.08067266 -308.58978229 124.07746112 -306.6853466 124.06809998 C-304.01754235 124.05786049 -301.35105648 124.07353686 -298.68334961 124.09570312 C-297.52115402 124.08355774 -297.52115402 124.08355774 -296.33547974 124.07116699 C-289.09128334 124.18182952 -283.49433877 126.81379772 -277.4921875 130.73828125 C-271.83076802 136.65703798 -269.43884751 142.40201604 -269.1171875 150.61328125 C-269.45180668 158.93354199 -271.94007787 165.31482864 -278.0546875 171.05078125 C-286.5084049 177.41804925 -295.60014397 177.2563404 -305.7421875 177.61328125 C-284.49511787 188.75786137 -262.72735591 196.85930998 -238.7421875 199.61328125 C-237.78699219 199.72414063 -236.83179688 199.835 -235.84765625 199.94921875 C-188.48118122 204.64148 -141.49237162 189.29448607 -104.76953125 159.41796875 C-67.74849516 128.55000053 -45.87428767 84.54772216 -41.3125 36.76391602 C-40.98344659 33.04113204 -40.7114208 29.32884862 -40.578125 25.59375 C-40.19233172 16.2230343 -38.48158781 8.77584356 -31.4296875 2.17578125 C-22.06018502 -4.92171741 -10.29533795 -5.87595655 0 0 Z " fill="#969595" transform="translate(474.7421875,233.38671875)"/>
<path d="M0 0 C-0.05800781 -1.25554688 -0.11601562 -2.51109375 -0.17578125 -3.8046875 C-0.51928036 -14.32290326 -0.62306966 -22.49788967 6.57421875 -30.8203125 C11.83705197 -35.89913057 18.26400905 -38.07244986 25.5 -38.375 C33.46846674 -38.02854492 39.47144378 -35.43166253 45.2734375 -29.96484375 C51.24728156 -23.16655515 52.1479091 -15.75443136 52.16113281 -6.97192383 C52.16609772 -6.17771027 52.17106262 -5.3834967 52.17617798 -4.56521606 C52.19074453 -1.94581219 52.19759325 0.67353108 52.203125 3.29296875 C52.20888203 5.12274679 52.21463969 6.95252482 52.22039795 8.78230286 C52.23089302 12.61797363 52.23674511 16.45362354 52.24023438 20.28930664 C52.24570866 25.18371962 52.2697202 30.07785295 52.29820633 34.97217846 C52.31691174 38.7530648 52.32204255 42.53388493 52.32357025 46.31481361 C52.3265807 48.1179793 52.33455434 49.92114427 52.34775543 51.72426414 C52.50633106 75.05353766 52.50633106 75.05353766 45.4375 82.875 C44.83808594 83.57367188 44.23867188 84.27234375 43.62109375 84.9921875 C33.86172612 92.46806673 22.78289629 91.58879726 11.08984375 91.53125 C9.15271307 91.53394907 7.21558372 91.53783494 5.27845764 91.54284668 C1.23295093 91.54872079 -2.8122008 91.54024543 -6.85766602 91.52148438 C-12.02460218 91.49868083 -17.19070772 91.51184019 -22.35761356 91.53577423 C-26.35296307 91.55027574 -30.34811784 91.54560656 -34.34347343 91.53526306 C-36.24793027 91.53260859 -38.15240521 91.53582013 -40.0568409 91.54518127 C-42.72464515 91.55542076 -45.39113102 91.53974439 -48.05883789 91.51757812 C-48.83363495 91.52567505 -49.60843201 91.53377197 -50.40670776 91.54211426 C-57.65090416 91.43145173 -63.24784873 88.79948353 -69.25 84.875 C-74.91141948 78.95624327 -77.30333999 73.21126521 -77.625 65 C-77.29038082 56.67973926 -74.80210963 50.29845261 -68.6875 44.5625 C-60.2337826 38.195232 -51.14204353 38.35694085 -41 38 C-65.94907617 25.08286989 -91.6935081 16.18693041 -120 15 C-121.21042969 14.94714844 -122.42085937 14.89429688 -123.66796875 14.83984375 C-171.89067163 13.4603679 -216.75465226 32.93034229 -252 65 C-252.74507813 65.67289062 -253.49015625 66.34578125 -254.2578125 67.0390625 C-282.66081985 94.06216666 -301.69591583 135.00243355 -304.79296875 173.81640625 C-304.85482864 174.59134933 -304.91668854 175.36629242 -304.98042297 176.16471863 C-305.2794478 180.03958512 -305.54010536 183.91295457 -305.74926758 187.79370117 C-306.35461359 197.7655871 -307.8184452 206.23382417 -315.3125 213.4375 C-322.50855601 218.88858964 -330.07442314 220.19775483 -339 219 C-346.2624131 216.76859 -351.96545943 212.45312457 -356 206 C-358.62218927 200.55560471 -359.46201305 195.75149429 -359.3125 189.75 C-359.30049561 188.97406494 -359.28849121 188.19812988 -359.27612305 187.39868164 C-358.10587236 137.59580017 -340.64281462 87.65261131 -309 49 C-308.18402344 47.98035156 -307.36804688 46.96070312 -306.52734375 45.91015625 C-294.94452699 31.65148509 -281.81639733 18.85054307 -267 8 C-265.86032863 7.14238995 -264.72100752 6.28431424 -263.58203125 5.42578125 C-255.14415747 -0.85092582 -246.28283275 -6.07786643 -237 -11 C-236.36368652 -11.34272949 -235.72737305 -11.68545898 -235.07177734 -12.03857422 C-161.99233989 -51.19295864 -68.81672204 -45.87781469 0 0 Z " fill="#969595" transform="translate(384,63)"/>
</svg>
