<svg width="20" height="18" viewBox="0 0 20 18" fill="none" xmlns="http://www.w3.org/2000/svg">
<g clip-path="url(#clip0_173_780)">
<path d="M18.517 1.36773L4.64502 11.8564C4.52011 11.8791 4.31715 11.6977 4.20786 11.6297C3.16961 10.9949 1.67858 9.937 0.726203 9.18133C-0.226177 8.42566 -0.280822 7.95715 0.406141 7.14103C6.62784 4.63977 13.0135 2.44834 19.2976 0.0453129C19.766 -0.120934 20.1485 0.219116 19.9456 0.672517C17.8534 5.63725 16.3156 10.9572 14.2001 15.8917C13.7551 16.9345 13.2945 17.5768 11.9908 17.0856L6.339 13.0428L18.517 1.36773Z" fill="#797979"/>
<path d="M3.68457 12.9294L8.44648 16.2166L5.89378 17.8942C5.08192 18.2116 4.63695 17.7959 4.44179 17.0705C4.0905 15.7556 3.95779 14.267 3.68457 12.9294Z" fill="#797979"/>
</g>
<defs>
<clipPath id="clip0_173_780">
<rect width="20" height="18" fill="white"/>
</clipPath>
</defs>
</svg>
