<svg width="14" height="14" viewBox="0 0 14 14" fill="none" xmlns="http://www.w3.org/2000/svg">
<g clip-path="url(#clip0_299_578)">
<path d="M12.3958 14H1.60417C0.71925 14 0 13.2807 0 12.3958V3.93749C0 3.05258 0.71925 2.33333 1.60417 2.33333H3.64583C3.88733 2.33333 4.08333 2.52933 4.08333 2.77083C4.08333 3.01233 3.88733 3.20833 3.64583 3.20833H1.60417C1.20225 3.20833 0.875 3.53558 0.875 3.93749V12.3958C0.875 12.7977 1.20225 13.125 1.60417 13.125H12.3958C12.7977 13.125 13.125 12.7977 13.125 12.3958V7.43749C13.125 7.19599 13.321 6.99999 13.5625 6.99999C13.804 6.99999 14 7.19599 14 7.43749V12.3958C14 13.2807 13.2807 14 12.3958 14Z" fill="#359767" stroke="#359767" stroke-width="0.4"/>
<path d="M3.43692 9.32589C3.40483 9.32589 3.37275 9.32239 3.34067 9.31422C3.14292 9.26814 3 9.09897 3 8.89597V8.02097C3 4.88497 5.5515 2.33347 8.6875 2.33347H8.83333V0.437639C8.83333 0.259139 8.94183 0.0987223 9.1075 0.031639C9.27258 -0.034861 9.46217 0.00538897 9.58583 0.134306L13.3775 4.07181C13.5408 4.24097 13.5408 4.50931 13.3775 4.67847L9.58583 8.61597C9.46217 8.74489 9.27142 8.78456 9.1075 8.71864C8.94183 8.65156 8.83333 8.49114 8.83333 8.31264V6.41681H8.14033C6.30517 6.41681 4.65608 7.43647 3.83592 9.07739C3.76067 9.22906 3.60258 9.32589 3.43692 9.32589ZM8.6875 3.20847C6.2375 3.20847 4.20867 5.04889 3.91175 7.42014C4.97225 6.23714 6.493 5.54181 8.14033 5.54181H9.27083C9.51233 5.54181 9.70833 5.73781 9.70833 5.97931V7.22764L12.4552 4.37514L9.70833 1.52264V2.77097C9.70833 3.01247 9.51233 3.20847 9.27083 3.20847H8.6875Z" fill="#359767" stroke="#359767" stroke-width="0.2"/>
</g>
<defs>
<clipPath id="clip0_299_578">
<rect width="14" height="14" fill="white"/>
</clipPath>
</defs>
</svg>
