<svg width="16" height="16" viewBox="0 0 16 16" fill="none" xmlns="http://www.w3.org/2000/svg">
<path d="M7.03564 10.7943V6.38208C7.03564 6.03689 6.75583 5.75708 6.41064 5.75708C6.06546 5.75708 5.78564 6.03689 5.78564 6.38208V10.7943C5.05749 11.0518 4.53564 11.7459 4.53564 12.5622C4.53564 13.5977 5.37511 14.4372 6.41064 14.4372C7.44618 14.4372 8.28564 13.5977 8.28564 12.5622C8.28564 11.7459 7.76383 11.0518 7.03564 10.7943Z" fill="#FF5656"/>
<path d="M8.28564 10.0629V2.1875C8.28564 1.15363 7.44452 0.3125 6.41064 0.3125C5.37677 0.3125 4.53564 1.15363 4.53564 2.1875V10.0629C3.76396 10.643 3.28564 11.5635 3.28564 12.5625C3.28564 14.2857 4.68752 15.6875 6.41064 15.6875C8.13377 15.6875 9.53564 14.2857 9.53564 12.5625C9.53564 11.5634 9.05733 10.643 8.28564 10.0629Z" stroke="#FF5656" stroke-width="0.625" stroke-miterlimit="10" stroke-linecap="round" stroke-linejoin="round"/>
<path d="M3.25 1.8125H2" stroke="#FF5656" stroke-width="0.625" stroke-miterlimit="10" stroke-linecap="round" stroke-linejoin="round"/>
<path d="M3.25 3.54102H2" stroke="#FF5656" stroke-width="0.625" stroke-miterlimit="10" stroke-linecap="round" stroke-linejoin="round"/>
<path d="M3.25 5.26929H2" stroke="#FF5656" stroke-width="0.625" stroke-miterlimit="10" stroke-linecap="round" stroke-linejoin="round"/>
<path d="M3.25 6.9978H2" stroke="#FF5656" stroke-width="0.625" stroke-miterlimit="10" stroke-linecap="round" stroke-linejoin="round"/>
<path d="M3.25 8.72583H2" stroke="#FF5656" stroke-width="0.625" stroke-miterlimit="10" stroke-linecap="round" stroke-linejoin="round"/>
<path d="M10.0669 0.3125C9.72171 0.3125 9.44189 0.592313 9.44189 0.9375C9.44189 1.28269 9.72171 1.5625 10.0669 1.5625C10.4121 1.5625 10.6919 1.28269 10.6919 0.9375C10.6919 0.592313 10.4121 0.3125 10.0669 0.3125Z" stroke="#FF5656" stroke-width="0.625" stroke-miterlimit="10" stroke-linecap="round" stroke-linejoin="round"/>
<path d="M14.0002 1.25753C13.7494 1.09253 13.4493 0.996338 13.1267 0.996338C12.2477 0.996338 11.5352 1.7089 11.5352 2.5879C11.5352 3.4669 12.2477 4.17946 13.1267 4.17946C13.4837 4.17946 13.7773 4.06193 14.0002 3.86343" stroke="#FF5656" stroke-width="0.625" stroke-miterlimit="10" stroke-linecap="round" stroke-linejoin="round"/>
</svg>
