<svg width="16" height="16" viewBox="0 0 16 16" fill="none" xmlns="http://www.w3.org/2000/svg">
<path d="M11.4586 0.133345H7.60849C7.113 0.132005 6.62217 0.228988 6.16442 0.418676C5.70668 0.608365 5.29112 0.88699 4.94182 1.23841L2.57915 3.60001C2.22799 3.94948 1.94958 4.36509 1.75999 4.8228C1.57041 5.28051 1.47342 5.77126 1.47462 6.26668V12.8C1.47547 13.6131 1.79883 14.3926 2.37376 14.9675C2.94869 15.5425 3.72822 15.8658 4.54129 15.8667H11.4586C12.2717 15.8658 13.0512 15.5425 13.6261 14.9675C14.2011 14.3926 14.5244 13.6131 14.5253 12.8V3.20001C14.5244 2.38694 14.2011 1.60741 13.6261 1.03249C13.0512 0.457558 12.2717 0.134192 11.4586 0.133345ZM5.50662 1.80428C5.66357 1.65001 5.83706 1.51354 6.02395 1.39735C5.87037 1.70276 5.78934 2.0395 5.78715 2.38135V3.25335C5.78603 3.5711 5.65908 3.87548 5.43409 4.09987C5.20909 4.32426 4.90438 4.4504 4.58662 4.45068H3.85062C3.44479 4.45334 3.04658 4.56121 2.69489 4.76375C2.81943 4.54606 2.97123 4.34515 3.14662 4.16588L5.50662 1.80428ZM13.7253 12.8C13.7247 13.401 13.4857 13.9772 13.0608 14.4022C12.6358 14.8271 12.0596 15.0661 11.4586 15.0667H4.54129C3.9403 15.0661 3.3641 14.8271 2.93914 14.4022C2.51418 13.9772 2.27519 13.401 2.27462 12.8V6.82668C2.27504 6.40883 2.44122 6.00821 2.73669 5.71275C3.03215 5.41728 3.43277 5.2511 3.85062 5.25068H4.58662C5.11684 5.24997 5.62513 5.03903 6.00005 4.66411C6.37497 4.28919 6.58591 3.78089 6.58662 3.25068V2.38135C6.58704 1.99735 6.73981 1.62921 7.01139 1.35773C7.28296 1.08626 7.65116 0.933627 8.03515 0.933345H11.4586C12.0596 0.93391 12.6358 1.1729 13.0608 1.59786C13.4857 2.02282 13.7247 2.59903 13.7253 3.20001V12.8Z" fill="#359767"/>
<path d="M8.72715 5.31413H10.7949C10.901 5.31413 11.0027 5.27199 11.0777 5.19697C11.1527 5.12196 11.1949 5.02022 11.1949 4.91413C11.1949 4.80804 11.1527 4.7063 11.0777 4.63129C11.0027 4.55627 10.901 4.51413 10.7949 4.51413H8.72715C8.62106 4.51413 8.51932 4.55627 8.44431 4.63129C8.36929 4.7063 8.32715 4.80804 8.32715 4.91413C8.32715 5.02022 8.36929 5.12196 8.44431 5.19697C8.51932 5.27199 8.62106 5.31413 8.72715 5.31413Z" fill="#359767"/>
<path d="M8.72715 7.26933H10.7949C10.901 7.26933 11.0027 7.22719 11.0777 7.15217C11.1527 7.07716 11.1949 6.97542 11.1949 6.86933C11.1949 6.76324 11.1527 6.6615 11.0777 6.58649C11.0027 6.51147 10.901 6.46933 10.7949 6.46933H8.72715C8.62106 6.46933 8.51932 6.51147 8.44431 6.58649C8.36929 6.6615 8.32715 6.76324 8.32715 6.86933C8.32715 6.97542 8.36929 7.07716 8.44431 7.15217C8.51932 7.22719 8.62106 7.26933 8.72715 7.26933Z" fill="#359767"/>
<path d="M10.4423 8.41013H9.0023C8.79848 8.41485 8.6037 8.49521 8.45583 8.63557C8.30797 8.77594 8.2176 8.96629 8.2023 9.16959L7.93564 11.6144C7.92738 11.7372 7.94421 11.8604 7.98511 11.9765C8.026 12.0925 8.0901 12.1991 8.1735 12.2896C8.24901 12.3716 8.34068 12.4372 8.44275 12.482C8.54482 12.5269 8.65507 12.5502 8.76657 12.5504H10.6764C10.7879 12.5502 10.8982 12.5269 11.0003 12.482C11.1023 12.4372 11.194 12.3716 11.2695 12.2896C11.3546 12.1966 11.4195 12.087 11.4602 11.9677C11.5009 11.8483 11.5164 11.7219 11.5058 11.5963L11.2439 9.17333C11.2292 8.96917 11.1389 8.77783 10.9907 8.6367C10.8425 8.49556 10.6469 8.41478 10.4423 8.41013ZM10.678 11.7504H8.7687C8.7579 11.7429 8.74909 11.7328 8.74305 11.7211C8.73701 11.7094 8.73392 11.6964 8.73404 11.6832L9.0039 9.20959L10.4268 9.20639L10.7106 11.6656C10.7129 11.6813 10.7112 11.6974 10.7055 11.7123C10.6998 11.7271 10.6903 11.7403 10.678 11.7504Z" fill="#359767"/>
</svg>
