<svg width="26" height="26" viewBox="0 0 26 26" fill="none" xmlns="http://www.w3.org/2000/svg">
<path d="M14.5097 7.42781L14.5095 7.01298C14.5092 6.37705 14.0018 5.81998 13.3093 5.81998C13.2814 5.82536 12.8319 5.7952 12.4599 6.16763C12.2333 6.39452 12.1086 6.69159 12.1088 7.01217L12.109 7.35733C11.8639 7.2448 11.5899 7.21834 11.3241 7.28365C10.6852 7.44051 10.2926 8.08091 10.441 8.7203L11.4849 14.2606C11.5368 14.5363 11.8025 14.7177 12.078 14.6656C12.3535 14.6138 12.5349 14.3482 12.483 14.0726C11.3902 8.27413 11.4372 8.51875 11.431 8.49336C11.4067 8.39443 11.4672 8.29434 11.5663 8.27002C11.6662 8.24549 11.7655 8.30719 11.7897 8.4054L11.9678 9.13051C12.0385 9.41884 12.3143 9.60948 12.6089 9.57388C12.9037 9.53813 13.1258 9.28783 13.1257 8.99091L13.1246 7.01379C13.1244 6.83555 13.3423 6.78782 13.4397 6.88521C13.4599 6.90538 13.4938 6.94478 13.4938 7.01136L13.4953 9.50568C13.4955 9.80234 13.7177 10.0529 14.0123 10.0885C14.3066 10.1241 14.5824 9.93371 14.6532 9.64548L14.9578 8.4053C14.9821 8.30643 15.0823 8.24575 15.1812 8.27002C15.2801 8.29429 15.3408 8.39454 15.3165 8.49341C15.31 8.52022 15.3555 8.28388 14.2645 14.0726C14.2126 14.3482 14.3939 14.6137 14.6695 14.6656C14.9442 14.7175 15.2105 14.5371 15.2626 14.2606L16.3065 8.7205C16.3777 8.41388 16.3272 8.09757 16.1639 7.82782C15.8166 7.25434 15.0743 7.08154 14.5097 7.42781Z" fill="black"/>
<path d="M20.8063 9.08841C20.8063 5.00793 17.5206 1.68862 13.4342 1.65607C13.347 1.67343 10.5121 1.4602 8.12959 3.84063C5.28751 6.68021 5.27888 11.0592 7.72481 13.9169C8.82539 15.2026 9.51708 16.7441 9.74032 18.4001C8.8816 18.7883 8.61759 19.9 9.2294 20.6366C9.02085 20.8831 8.89577 21.202 8.89577 21.553C8.89577 22.3421 9.53775 22.9841 10.3269 22.9841H11.5641C11.6877 23.8442 12.4292 24.5075 13.323 24.5075C14.2168 24.5075 14.9583 23.8442 15.0819 22.9841H16.3284C17.1175 22.9841 17.7595 22.3443 17.7595 21.5553C17.7595 21.2054 17.6339 20.8851 17.4249 20.6367C18.0332 19.9045 17.7781 18.8039 16.931 18.4066C17.1754 16.7697 17.8854 15.235 19 13.945C20.1647 12.5969 20.8063 10.8722 20.8063 9.08841ZM16.3483 19.2902C16.565 19.3003 16.7438 19.4898 16.7438 19.7156C16.7438 19.9149 16.6027 20.0886 16.4152 20.1306C16.409 20.1302 16.4029 20.1295 16.3967 20.1292L16.3907 20.1335C16.3701 20.1321 16.3494 20.1403 16.3283 20.1403H10.3268C10.309 20.1403 10.2914 20.1319 10.2713 20.1332C10.2674 20.1334 10.2635 20.1338 10.2595 20.134C10.0624 20.0996 9.9114 19.9183 9.9114 19.7122C9.9114 19.488 10.0872 19.2934 10.3114 19.2854H10.3114C10.3196 19.2851 10.3279 19.2771 10.3375 19.2771H16.321L16.3483 19.2902ZM13.3229 23.4919C12.9919 23.4919 12.7095 23.2796 12.6047 22.984H14.0411C13.9364 23.2796 13.654 23.4919 13.3229 23.4919ZM16.3283 21.9684H10.3268C10.0978 21.9684 9.91135 21.7866 9.91135 21.5575C9.91135 21.3523 10.0589 21.1867 10.2558 21.154C10.3159 21.1571 16.3495 21.1566 16.3993 21.154C16.596 21.1866 16.7437 21.3487 16.7437 21.5529C16.7438 21.782 16.5574 21.9684 16.3283 21.9684ZM15.9232 18.2614H10.7483C10.5001 16.4333 9.72691 14.6887 8.49638 13.2511C6.36869 10.7652 6.40952 6.99475 8.84743 4.55903C10.066 3.34155 11.6739 2.67063 13.3749 2.67063L13.4261 2.66997C16.9355 2.69795 19.7906 5.57475 19.7906 9.08496C19.7906 10.6249 19.2369 12.1104 18.2314 13.274C16.9858 14.7155 16.1933 16.4333 15.9232 18.2614Z" fill="black"/>
<path d="M22.4636 16.3825C21.4836 16.3825 20.6863 17.1798 20.6863 18.1598C20.6863 19.1398 21.4836 19.9372 22.4636 19.9372C23.4437 19.9372 24.241 19.1398 24.241 18.1598C24.241 17.1798 23.4437 16.3825 22.4636 16.3825ZM22.4636 18.9215C22.0436 18.9215 21.7019 18.5798 21.7019 18.1598C21.7019 17.7398 22.0436 17.3981 22.4636 17.3981C22.8836 17.3981 23.2253 17.7398 23.2253 18.1598C23.2253 18.5798 22.8837 18.9215 22.4636 18.9215Z" fill="black"/>
<path d="M5.198 15.3669C4.49798 15.3669 3.92847 15.9364 3.92847 16.6364C3.92847 17.3364 4.49798 17.9059 5.198 17.9059C5.89802 17.9059 6.46753 17.3364 6.46753 16.6364C6.46753 15.9364 5.89802 15.3669 5.198 15.3669ZM5.198 16.8903C5.05799 16.8903 4.94409 16.7763 4.94409 16.6364C4.94409 16.4963 5.05799 16.3825 5.198 16.3825C5.338 16.3825 5.4519 16.4963 5.4519 16.6364C5.4519 16.7763 5.338 16.8903 5.198 16.8903Z" fill="black"/>
<path d="M4.43628 5.46451C4.43628 4.76449 3.86677 4.19498 3.16675 4.19498C2.46673 4.19498 1.89722 4.76449 1.89722 5.46451C1.89722 6.16453 2.46673 6.73404 3.16675 6.73404C3.86677 6.73404 4.43628 6.16458 4.43628 5.46451ZM3.16675 5.71841C3.02674 5.71841 2.91284 5.60451 2.91284 5.46451C2.91284 5.3245 3.02674 5.2106 3.16675 5.2106C3.30675 5.2106 3.42065 5.3245 3.42065 5.46451C3.42065 5.60451 3.30675 5.71841 3.16675 5.71841Z" fill="black"/>
</svg>
