<svg width="26" height="26" viewBox="0 0 26 26" fill="none" xmlns="http://www.w3.org/2000/svg">
<path d="M4.875 9.28711H21.125C21.6786 9.28711 22.2101 9.50696 22.6016 9.89844C22.993 10.2899 23.2129 10.8214 23.2129 11.375C23.2129 11.9286 22.993 12.4601 22.6016 12.8516C22.2101 13.243 21.6786 13.4629 21.125 13.4629H4.875C4.32136 13.4629 3.78992 13.243 3.39844 12.8516C3.00696 12.4601 2.78711 11.9286 2.78711 11.375C2.78711 10.8214 3.00696 10.2899 3.39844 9.89844C3.78992 9.50696 4.32136 9.28711 4.875 9.28711ZM4.875 10.2129C4.56669 10.2129 4.27075 10.3347 4.05273 10.5527C3.83472 10.7707 3.71289 11.0667 3.71289 11.375C3.71289 11.6833 3.83472 11.9793 4.05273 12.1973C4.27075 12.4153 4.56669 12.5371 4.875 12.5371H21.125C21.4333 12.5371 21.7293 12.4153 21.9473 12.1973C22.1653 11.9793 22.2871 11.6833 22.2871 11.375C22.2871 11.0667 22.1653 10.7707 21.9473 10.5527C21.7293 10.3347 21.4333 10.2129 21.125 10.2129H4.875Z" stroke="black" stroke-width="0.7"/>
<path d="M4.875 12.5371H21.125C21.2477 12.5371 21.3654 12.5861 21.4521 12.6729C21.5389 12.7596 21.5879 12.8773 21.5879 13V17.875L21.5811 18.1396C21.5141 19.4583 20.9605 20.7094 20.0225 21.6475C19.0219 22.6481 17.6651 23.2112 16.25 23.2129H9.75C8.33494 23.2112 6.97815 22.6481 5.97754 21.6475C4.97693 20.6469 4.41383 19.2901 4.41211 17.875V13C4.41211 12.8773 4.46112 12.7596 4.54785 12.6729C4.63459 12.5861 4.75234 12.5371 4.875 12.5371ZM5.33789 17.875C5.33929 19.0447 5.80374 20.167 6.63086 20.9941C7.40638 21.7697 8.44105 22.227 9.53125 22.2822L9.75 22.2871H16.25C17.4197 22.2857 18.542 21.8213 19.3691 20.9941C20.1963 20.167 20.6607 19.0447 20.6621 17.875V13.4629H5.33789V17.875Z" stroke="black" stroke-width="0.7"/>
<path d="M13.8125 4.41211H15.4375C15.5602 4.41211 15.6779 4.46112 15.7646 4.54785C15.8514 4.63459 15.9004 4.75234 15.9004 4.875V6.5L15.8955 6.68359C15.849 7.60093 15.4641 8.47146 14.8115 9.12402C14.1156 9.81998 13.1717 10.2116 12.1875 10.2129H10.5625C10.4398 10.2129 10.3221 10.1639 10.2354 10.0771C10.1486 9.99041 10.0996 9.87266 10.0996 9.75V8.125C10.1009 7.14079 10.4925 6.19693 11.1885 5.50098C11.8844 4.80502 12.8283 4.4134 13.8125 4.41211ZM13.8125 5.33789C13.0732 5.33789 12.3646 5.63154 11.8418 6.1543C11.319 6.67705 11.0254 7.38571 11.0254 8.125V9.28711H12.1875C12.9268 9.28711 13.6354 8.99346 14.1582 8.4707C14.681 7.94795 14.9746 7.23929 14.9746 6.5V5.33789H13.8125Z" stroke="black" stroke-width="0.7"/>
<path d="M4.0625 2.78711H5.6875C7.10256 2.78883 8.45935 3.35193 9.45996 4.35254C10.4606 5.35315 11.0237 6.70994 11.0254 8.125V9.75C11.0254 9.87266 10.9764 9.99041 10.8896 10.0771C10.8029 10.1639 10.6852 10.2129 10.5625 10.2129H8.9375C7.52244 10.2112 6.16565 9.64807 5.16504 8.64746C4.16443 7.64685 3.60133 6.29006 3.59961 4.875V3.25C3.59961 3.12734 3.64862 3.00959 3.73535 2.92285C3.82209 2.83612 3.93984 2.78711 4.0625 2.78711ZM4.52539 4.875C4.52679 6.04473 4.99124 7.16702 5.81836 7.99414C6.59388 8.76966 7.62855 9.22701 8.71875 9.28223L8.9375 9.28711H10.0996V8.125L10.0947 7.90625C10.0395 6.81605 9.58216 5.78138 8.80664 5.00586C7.97952 4.17874 6.85723 3.71429 5.6875 3.71289H4.52539V4.875Z" stroke="black" stroke-width="0.7"/>
<path d="M13 14.5684C13.2304 14.5684 13.4513 14.6603 13.6143 14.8232C13.7772 14.9862 13.8691 15.2071 13.8691 15.4375V20.3125C13.8691 20.5429 13.7772 20.7638 13.6143 20.9268C13.4513 21.0897 13.2304 21.1816 13 21.1816C12.7696 21.1816 12.5487 21.0897 12.3857 20.9268C12.2228 20.7638 12.1309 20.5429 12.1309 20.3125V15.4375C12.1309 15.2071 12.2228 14.9862 12.3857 14.8232C12.5487 14.6603 12.7696 14.5684 13 14.5684Z" stroke="black" stroke-width="0.7"/>
<path d="M10.5625 17.0059H15.4375C15.6679 17.0059 15.8888 17.0978 16.0518 17.2607C16.2147 17.4237 16.3066 17.6446 16.3066 17.875C16.3066 18.1054 16.2147 18.3263 16.0518 18.4893C15.8888 18.6522 15.6679 18.7441 15.4375 18.7441H10.5625C10.3321 18.7441 10.1112 18.6522 9.94824 18.4893C9.78532 18.3263 9.69336 18.1054 9.69336 17.875L9.69824 17.7891C9.71801 17.5902 9.80571 17.4033 9.94824 17.2607C10.1112 17.0978 10.3321 17.0059 10.5625 17.0059Z" stroke="black" stroke-width="0.7"/>
</svg>
