<svg width="26" height="18" viewBox="0 0 26 18" fill="none" xmlns="http://www.w3.org/2000/svg">
<g clip-path="url(#clip0_97_254)">
<path d="M19.4385 2.78081L24.9329 8.2812C25.9461 9.61745 25.0234 10.2421 24.0671 11.0968C22.4049 12.1274 20.6857 14.3429 19.0753 15.2814C18.2289 15.7752 17.6592 15.5667 17.0478 14.8745L12.5778 8.53782L19.4364 2.77979L19.4385 2.78081Z" fill="#359767"/>
<path d="M17.6297 1.34654C18.0142 1.276 18.7874 1.90578 18.6266 2.15115L11.9573 7.62497C11.5676 7.23953 11.3713 6.73039 11.7111 6.24374C13.4578 4.90851 15.0631 3.28497 16.7945 1.94668C16.9878 1.79741 17.4435 1.38028 17.6297 1.34654Z" fill="#359767"/>
<path d="M25.3866 7.15766C25.2685 7.24457 24.6104 6.58615 24.59 6.4788C24.5768 6.41133 24.9359 5.46665 24.9684 5.15176C25.2808 2.15107 22.6012 -0.427364 20.0468 1.94251L19.3937 1.26569C20.8097 -0.531647 23.4334 -0.343529 24.882 1.37918C26.2584 3.01601 26.2879 5.28875 25.3866 7.15766Z" fill="#359767"/>
<path d="M15.5209 14.5187L10.9359 14.577L10.7528 12.387L13.7203 11.9822L15.5209 14.5187Z" fill="#359767"/>
<path d="M8.05391 11.1501L9.61953 12.0151L9.90844 14.9708C9.55646 15.1671 8.79349 16.1537 8.44761 16.1588C8.16785 16.1629 8.11699 15.5903 8.09562 15.3869C8.00305 14.4882 7.9176 13.3268 7.88606 12.4281C7.8769 12.1603 7.80569 11.2238 8.05391 11.1512V11.1501Z" fill="#359767"/>
<path d="M6.54323 12.0897C7.15462 13.0415 5.42827 13.1488 4.9064 12.9689C4.6419 12.8779 4.5829 12.4465 4.74465 12.2277C4.96235 11.9302 6.29806 11.8443 6.54323 12.0907V12.0897Z" fill="#359767"/>
<path d="M0.738544 14.6404C1.11901 14.5208 1.53915 14.7068 1.46591 15.1608C1.42318 15.4276 0.763976 16.497 0.419113 16.4663C-0.52697 16.3815 0.373335 14.7549 0.738544 14.6404Z" fill="#359767"/>
<path d="M2.22075 13.114C2.4476 12.8779 3.26245 12.5732 3.46693 12.9852C3.86062 13.6283 2.30722 14.4308 2.10884 13.7305C2.06103 13.5618 2.09969 13.2398 2.22075 13.114Z" fill="#359767"/>
<path d="M2.67751 17.866C2.32858 18.2054 1.70498 17.8497 1.80264 17.3569C1.89114 16.9121 2.21668 16.4337 2.73143 16.5809C3.24618 16.7281 2.91047 17.6401 2.67751 17.867V17.866Z" fill="#359767"/>
<path d="M6.14039 14.1344C6.80265 14.1212 7.02544 14.9125 6.49339 15.1088C5.08648 15.6261 4.81384 14.161 6.14039 14.1344Z" fill="#359767"/>
<path d="M4.30518 15.0557C4.82298 15.5771 3.81993 16.3285 3.40488 15.8071C2.96235 15.2509 3.90233 14.6498 4.30518 15.0557Z" fill="#359767"/>
</g>
<defs>
<clipPath id="clip0_97_254">
<rect width="26" height="18" fill="white"/>
</clipPath>
</defs>
</svg>
