<svg width="20" height="15" viewBox="0 0 20 15" fill="none" xmlns="http://www.w3.org/2000/svg">
<g clip-path="url(#clip0_329_691)">
<path d="M14.9522 2.24716L19.1787 6.69193C19.9581 7.77173 19.2483 8.27651 18.5127 8.96719C17.2341 9.79996 15.9116 11.5903 14.6728 12.3487C14.0218 12.7477 13.5836 12.5792 13.1133 12.0199L9.6748 6.8993L14.9506 2.24634L14.9522 2.24716Z" fill="#45CCE4"/>
<path d="M13.561 1.08792C13.8568 1.03092 14.4516 1.53983 14.3279 1.73811L9.19764 6.1614C8.89793 5.84993 8.7469 5.4385 9.00827 5.04525C10.3519 3.96628 11.5867 2.65433 12.9186 1.57288C13.0673 1.45226 13.4178 1.11519 13.561 1.08792Z" fill="#45CCE4"/>
<path d="M19.5279 5.78397C19.4371 5.8542 18.9308 5.32214 18.9152 5.2354C18.905 5.18087 19.1812 4.41749 19.2063 4.16304C19.4465 1.73824 17.3853 -0.345345 15.4204 1.5697L14.918 1.02278C16.0073 -0.429614 18.0254 -0.277599 19.1397 1.11449C20.1985 2.43718 20.2212 4.27374 19.5279 5.78397Z" fill="#45CCE4"/>
<path d="M11.9392 11.7323L8.41234 11.7794L8.27148 10.0098L10.5541 9.68262L11.9392 11.7323Z" fill="#45CCE4"/>
<path d="M6.19544 9.01025L7.39976 9.70919L7.622 12.0976C7.35125 12.2563 6.76435 13.0535 6.49829 13.0576C6.28309 13.0609 6.24396 12.5983 6.22753 12.4339C6.15632 11.7077 6.09059 10.7692 6.06633 10.043C6.05928 9.8265 6.00451 9.06974 6.19544 9.01108V9.01025Z" fill="#45CCE4"/>
<path d="M5.03305 9.76927C5.50335 10.5384 4.17539 10.6252 3.77395 10.4798C3.57049 10.4062 3.52511 10.0576 3.64953 9.8808C3.81699 9.64038 4.84446 9.57099 5.03305 9.77009V9.76927Z" fill="#45CCE4"/>
<path d="M0.568111 11.8306C0.860778 11.7339 1.18396 11.8843 1.12762 12.2511C1.09476 12.4667 0.587674 13.3309 0.322395 13.3061C-0.405362 13.2376 0.287181 11.9231 0.568111 11.8306Z" fill="#45CCE4"/>
<path d="M1.70833 10.5972C1.88284 10.4064 2.50965 10.1602 2.66694 10.4931C2.96978 11.0128 1.77485 11.6613 1.62225 11.0954C1.58547 10.9591 1.61521 10.6988 1.70833 10.5972Z" fill="#45CCE4"/>
<path d="M2.05928 14.4372C1.79087 14.7114 1.31118 14.4239 1.3863 14.0257C1.45438 13.6663 1.70479 13.2797 2.10076 13.3987C2.49672 13.5176 2.23848 14.2546 2.05928 14.438V14.4372Z" fill="#45CCE4"/>
<path d="M4.72354 11.4215C5.23297 11.4108 5.40434 12.0502 4.99508 12.2089C3.91283 12.6269 3.70311 11.443 4.72354 11.4215Z" fill="#45CCE4"/>
<path d="M3.3119 12.1659C3.71021 12.5872 2.93864 13.1944 2.61936 12.7731C2.27896 12.3237 3.00202 11.8379 3.3119 12.1659Z" fill="#45CCE4"/>
</g>
<defs>
<clipPath id="clip0_329_691">
<rect width="20" height="14.5455" fill="white"/>
</clipPath>
</defs>
</svg>
